Preview_shantell-semi_organic-300_800-Weight_440.00_VL.ufo
<glyph name="exclam" format="2">
	<unicode hex="0021"/>
	<advance width="285"/>
	<outline>
		<contour>
			<point x="189.96" y="638.16" type="curve" smooth="yes"/>
			<point x="189.96" y="583.7967479675"/>
			<point x="179.92" y="547.5873170732"/>
			<point x="179.92" y="451" type="curve" smooth="yes"/>
			<point x="179.92" y="358.76"/>
			<point x="188.8" y="330.76"/>
			<point x="188.8" y="280.96" type="curve" smooth="yes"/>
			<point x="188.8" y="239.52"/>
			<point x="168.28" y="224.48"/>
			<point x="146.88" y="224.48" type="curve" smooth="yes"/>
			<point x="122.92" y="224.48"/>
			<point x="105.6" y="240.16"/>
			<point x="100.2" y="269.16" type="curve" smooth="yes"/>
			<point x="87.76" y="342.12"/>
			<point x="84.2" y="392.2"/>
			<point x="84.2" y="456.6" type="curve" smooth="yes"/>
			<point x="84.2" y="555.4379166667"/>
			<point x="94.7708564384" y="605.8091682169"/>
			<point x="94.24" y="668.84" type="curve" smooth="yes"/>
			<point x="93.68" y="693.44"/>
			<point x="104.52" y="713.68"/>
			<point x="128.96" y="713.68" type="curve" smooth="yes"/>
			<point x="163.24" y="713.68"/>
			<point x="189.96" y="689.04"/>
		</contour>
		<contour>
			<point x="156.48" y="-10.84" type="curve" smooth="yes"/>
			<point x="198.36" y="-10.84"/>
			<point x="216.84" y="15.44"/>
			<point x="216.84" y="45.48" type="curve" smooth="yes"/>
			<point x="216.84" y="87.52"/>
			<point x="191.08" y="127.56"/>
			<point x="129.24" y="127.56" type="curve" smooth="yes"/>
			<point x="94.96" y="127.56"/>
			<point x="68.32" y="103.6"/>
			<point x="68.32" y="65.2" type="curve" smooth="yes"/>
			<point x="68.32" y="16.84"/>
			<point x="105.68" y="-10.84"/>
		</contour>
	</outline>
</glyph>
<glyph name="quotedbl" format="2">
	<unicode hex="0022"/>
	<advance width="455"/>
	<outline>
		<contour>
			<point x="176.68" y="403.16" type="curve" smooth="yes"/>
			<point x="198.12" y="403.16"/>
			<point x="211.16" y="416.24"/>
			<point x="218.68" y="438.68" type="curve" smooth="yes"/>
			<point x="242.64" y="508.44"/>
			<point x="256.68" y="603.84"/>
			<point x="240.52" y="679.92" type="curve" smooth="yes"/>
			<point x="236.12" y="701.24"/>
			<point x="214.96" y="716.44"/>
			<point x="192.24" y="716.44" type="curve" smooth="yes"/>
			<point x="161.68" y="716.44"/>
			<point x="141.08" y="689.88"/>
			<point x="145.24" y="661.32" type="curve" smooth="yes"/>
			<point x="156.6138948775" y="595.9987331843"/>
			<point x="143" y="525.88"/>
			<point x="129.12" y="470.2" type="curve" smooth="yes"/>
			<point x="118.4" y="427.88"/>
			<point x="145.88" y="403.16"/>
		</contour>
		<contour>
			<point x="250.96" y="403.16" type="curve" smooth="yes"/>
			<point x="272.4" y="403.16"/>
			<point x="288.32" y="416.24"/>
			<point x="295.12" y="438.68" type="curve" smooth="yes"/>
			<point x="316.2" y="509.88"/>
			<point x="326.64" y="600.24"/>
			<point x="314.08" y="679.2" type="curve" smooth="yes"/>
			<point x="310.4" y="701.24"/>
			<point x="289.24" y="716.44"/>
			<point x="266.52" y="716.44" type="curve" smooth="yes"/>
			<point x="235.96" y="716.44"/>
			<point x="216.4" y="689.88"/>
			<point x="219.52" y="661.32" type="curve" smooth="yes"/>
			<point x="226.4748088634" y="594.0119113656"/>
			<point x="215.8" y="523"/>
			<point x="202.24" y="468.2" type="curve" smooth="yes"/>
			<point x="193" y="432.56"/>
			<point x="218.9636363637" y="403.16"/>
		</contour>
	</outline>
</glyph>
<glyph name="numbersign" format="2">
	<unicode hex="0023"/>
	<advance width="963"/>
	<outline>
		<contour>
			<point x="473.48" y="753.2" type="curve" smooth="yes"/>
			<point x="473.48" y="593.08"/>
			<point x="266.48" y="139.36"/>
			<point x="266.48" y="-62.24" type="curve" smooth="yes"/>
			<point x="266.48" y="-87.04"/>
			<point x="243.92" y="-108.04"/>
			<point x="221.36" y="-107.04" type="curve" smooth="yes"/>
			<point x="191.12" y="-106.04"/>
			<point x="166.56" y="-83.6"/>
			<point x="166.56" y="-41.16" type="curve" smooth="yes"/>
			<point x="166.56" y="156.36"/>
			<point x="371.68" y="604.88"/>
			<point x="373.84" y="765.2" type="curve" smooth="yes"/>
			<point x="373.84" y="795.2"/>
			<point x="388.6" y="813.96"/>
			<point x="415.72" y="814.24" type="curve" smooth="yes"/>
			<point x="446.8" y="814.52"/>
			<point x="473.48" y="786.56"/>
		</contour>
		<contour>
			<point x="813.44" y="697.4" type="curve" smooth="yes"/>
			<point x="813.44" y="548.08"/>
			<point x="607.84" y="176.04"/>
			<point x="607.84" y="-114.68" type="curve" smooth="yes"/>
			<point x="607.84" y="-141.44"/>
			<point x="587.8" y="-160.2"/>
			<point x="564.4" y="-159.2" type="curve" smooth="yes"/>
			<point x="531.36" y="-158.2"/>
			<point x="507.64" y="-134.08"/>
			<point x="507.92" y="-97.24" type="curve" smooth="yes"/>
			<point x="509.32" y="180.12"/>
			<point x="714.64" y="552.36"/>
			<point x="714.64" y="716.08" type="curve" smooth="yes"/>
			<point x="714.64" y="741.88"/>
			<point x="726.28" y="761.08"/>
			<point x="752.56" y="761.8" type="curve" smooth="yes"/>
			<point x="782.64" y="762.52"/>
			<point x="813.44" y="738.8"/>
		</contour>
		<contour>
			<point x="92.72" y="225.92" type="curve" smooth="yes"/>
			<point x="342.2778807947" y="225.92"/>
			<point x="625.3621192053" y="262.52"/>
			<point x="865.56" y="262.52" type="curve" smooth="yes"/>
			<point x="893.6" y="262.52"/>
			<point x="909.56" y="250.88"/>
			<point x="909.84" y="225.84" type="curve" smooth="yes"/>
			<point x="910.4" y="197.04"/>
			<point x="884.4" y="167.96"/>
			<point x="831.52" y="166.84" type="curve" smooth="yes"/>
			<point x="611.1971104699" y="165.3961747518"/>
			<point x="320.2433855799" y="121.36"/>
			<point x="116.64" y="121.36" type="curve" smooth="yes"/>
			<point x="61.68" y="121.36"/>
			<point x="41.36" y="154.44"/>
			<point x="42.92" y="184.64" type="curve" smooth="yes"/>
			<point x="44.2" y="209.64"/>
			<point x="65.04" y="225.92"/>
		</contour>
		<contour>
			<point x="873.2" y="532.36" type="curve" smooth="yes"/>
			<point x="902.2" y="532.36"/>
			<point x="918.84" y="521.32"/>
			<point x="919.84" y="496.04" type="curve" smooth="yes"/>
			<point x="920.84" y="465.6"/>
			<point x="895.52" y="440.48"/>
			<point x="853.28" y="440.48" type="curve" smooth="yes"/>
			<point x="627.6" y="440.48"/>
			<point x="428.04" y="445.32"/>
			<point x="229.52" y="470.36" type="curve" smooth="yes"/>
			<point x="169.8" y="477.32"/>
			<point x="155.16" y="504.68"/>
			<point x="155.16" y="530.96" type="curve" smooth="yes"/>
			<point x="155.16" y="557.24"/>
			<point x="172.24" y="573.4"/>
			<point x="204.72" y="573.4" type="curve" smooth="yes"/>
			<point x="278.4038438439" y="573.4"/>
			<point x="357.44" y="532.36"/>
		</contour>
	</outline>
</glyph>
<glyph name="dollar" format="2">
	<unicode hex="0024"/>
	<advance width="573"/>
	<outline>
		<contour>
			<point x="190" y="-9" type="curve" smooth="yes"/>
			<point x="367.56" y="-9"/>
			<point x="512.8" y="48.16"/>
			<point x="512.8" y="167.28" type="curve" smooth="yes"/>
			<point x="512.8" y="346.88"/>
			<point x="161.2" y="351.1743426295"/>
			<point x="161.2" y="429.4" type="curve" smooth="yes"/>
			<point x="161.2" y="509.5848648649"/>
			<point x="267.4348662791" y="579.6946866864"/>
			<point x="467.12" y="612" type="curve" smooth="yes"/>
			<point x="503.08" y="616.88"/>
			<point x="518" y="635.04"/>
			<point x="518" y="659.64" type="curve" smooth="yes"/>
			<point x="518" y="688.48"/>
			<point x="501.2" y="710"/>
			<point x="460.16" y="710" type="curve" smooth="yes"/>
			<point x="335.48" y="710"/>
			<point x="61.4" y="603"/>
			<point x="61.4" y="426.2" type="curve" smooth="yes"/>
			<point x="61.4" y="266.2571428571"/>
			<point x="412.5011749872" y="293.1035375705"/>
			<point x="419.4" y="164.08" type="curve"/>
			<point x="383.2442936949" y="108.5059384587"/>
			<point x="297.8692537313" y="86.72"/>
			<point x="178.36" y="86.72" type="curve" smooth="yes"/>
			<point x="124.24" y="86.72"/>
			<point x="113.44" y="101.48"/>
			<point x="83.2" y="101.48" type="curve" smooth="yes"/>
			<point x="57.04" y="101.48"/>
			<point x="47.76" y="89.12"/>
			<point x="47.76" y="67.8" type="curve" smooth="yes"/>
			<point x="47.76" y="25.88"/>
			<point x="95.72" y="-9"/>
		</contour>
		<contour>
			<point x="310.2" y="409.84" type="curve" smooth="yes"/>
			<point x="329.96" y="409.84"/>
			<point x="339.32" y="423.2"/>
			<point x="344.84" y="446.48" type="curve" smooth="yes"/>
			<point x="364.1307168706" y="543.2275776226"/>
			<point x="367.8804743812" y="673.4729419453"/>
			<point x="345.2" y="781.6" type="curve" smooth="yes"/>
			<point x="340.52" y="802.92"/>
			<point x="321.8" y="818.12"/>
			<point x="296.92" y="818.12" type="curve" smooth="yes"/>
			<point x="257.72" y="818.12"/>
			<point x="244.08" y="791.56"/>
			<point x="249.92" y="763" type="curve" smooth="yes"/>
			<point x="269.961121047" y="667.2298151576"/>
			<point x="267.5874280236" y="565.0765675028"/>
			<point x="260.36" y="481.64" type="curve" smooth="yes"/>
			<point x="259.44" y="432.88"/>
			<point x="279.68" y="409.56"/>
		</contour>
		<contour>
			<point x="259.28" y="215.6" type="curve" smooth="yes"/>
			<point x="239.24" y="215.6"/>
			<point x="228.2" y="202.8"/>
			<point x="225.2" y="179.52" type="curve" smooth="yes"/>
			<point x="212.2703707713" y="89.6726820025"/>
			<point x="206.0378316723" y="-16.0440787598"/>
			<point x="225.12" y="-117.56" type="curve" smooth="yes"/>
			<point x="228.4" y="-138.04"/>
			<point x="246.68" y="-157.44"/>
			<point x="280.68" y="-157.44" type="curve" smooth="yes"/>
			<point x="315.52" y="-157.44"/>
			<point x="323.16" y="-136.76"/>
			<point x="319" y="-104.28" type="curve" smooth="yes"/>
			<point x="302.4386654175" y="-16.728827556"/>
			<point x="303.2412507813" y="79.5022972657"/>
			<point x="308.56" y="149.4" type="curve" smooth="yes"/>
			<point x="308.08" y="192.84"/>
			<point x="284.76" y="215.6"/>
		</contour>
	</outline>
</glyph>
<glyph name="ampersand" format="2">
	<unicode hex="0026"/>
	<advance width="632"/>
	<outline>
		<contour>
			<point x="295.04" y="616.32" type="curve" smooth="yes"/>
			<point x="195.213480663" y="616.32"/>
			<point x="137.44" y="573.913295305"/>
			<point x="137.44" y="510.88" type="curve" smooth="yes"/>
			<point x="137.44" y="445.7990583607"/>
			<point x="174.7741029686" y="403.229220661"/>
			<point x="334.56" y="294.44" type="curve" smooth="yes"/>
			<point x="590.8" y="120.2"/>
			<point x="640.84" y="56.36"/>
			<point x="640.84" y="-19.56" type="curve" smooth="yes"/>
			<point x="640.84" y="-63.4349367088"/>
			<point x="616.5637735849" y="-130.72"/>
			<point x="563.44" y="-130.72" type="curve" smooth="yes"/>
			<point x="537.1531034483" y="-130.72"/>
			<point x="523" y="-114.7485714286"/>
			<point x="523" y="-91.56" type="curve" smooth="yes"/>
			<point x="523" y="-62.04"/>
			<point x="542.84" y="-55.6"/>
			<point x="542.84" y="-26.72" type="curve" smooth="yes"/>
			<point x="542.84" y="17.84"/>
			<point x="498.52" y="60.48"/>
			<point x="264.56" y="224.2" type="curve" smooth="yes"/>
			<point x="76.56" y="354.64"/>
			<point x="40.16" y="422.88"/>
			<point x="40.16" y="510.56" type="curve" smooth="yes"/>
			<point x="40.16" y="611.52"/>
			<point x="113" y="710.72"/>
			<point x="293.92" y="710.72" type="curve" smooth="yes"/>
			<point x="379.0783756345" y="710.72"/>
			<point x="437.68" y="690.08"/>
			<point x="490.48" y="660.2" type="curve" smooth="yes"/>
			<point x="517.44" y="644.48"/>
			<point x="526.08" y="627.88"/>
			<point x="526.08" y="609.28" type="curve" smooth="yes"/>
			<point x="526.08" y="582.72"/>
			<point x="507.4" y="562.72"/>
			<point x="480.4" y="562.72" type="curve" smooth="yes"/>
			<point x="444.84" y="562.72"/>
			<point x="410.24" y="616.32"/>
		</contour>
		<contour>
			<point x="196.4" y="295.52" type="curve" smooth="yes"/>
			<point x="156.88" y="256.64"/>
			<point x="143.84" y="225.24"/>
			<point x="143.84" y="176.08" type="curve" smooth="yes"/>
			<point x="143.84" y="121.92"/>
			<point x="182.92" y="72.52"/>
			<point x="228.76" y="72.52" type="curve" smooth="yes"/>
			<point x="333.6" y="72.52"/>
			<point x="418.35512224" y="174.6877551788"/>
			<point x="545.48" y="400.92" type="curve" smooth="yes"/>
			<point x="558.8613159656" y="425.5103687381"/>
			<point x="567.88" y="435.56"/>
			<point x="584.8" y="435.56" type="curve" smooth="yes"/>
			<point x="611.8" y="435.56"/>
			<point x="632.48" y="411.08"/>
			<point x="632.48" y="380.72" type="curve" smooth="yes"/>
			<point x="632.48" y="369.6"/>
			<point x="629.08" y="356.6"/>
			<point x="615.72" y="334.12" type="curve" smooth="yes"/>
			<point x="457.6" y="62.52"/>
			<point x="349.6" y="-18.64"/>
			<point x="222.68" y="-18.64" type="curve" smooth="yes"/>
			<point x="130.16" y="-18.64"/>
			<point x="47.28" y="61.28"/>
			<point x="47.28" y="169.04" type="curve" smooth="yes"/>
			<point x="47.28" y="245.96"/>
			<point x="82.52" y="306.56"/>
			<point x="134.64" y="346.88" type="curve" smooth="yes"/>
			<point x="155.24" y="361.96"/>
			<point x="180.88" y="361.64"/>
			<point x="198.04" y="344.56" type="curve" smooth="yes"/>
			<point x="209.84" y="332.72"/>
			<point x="207.64" y="307.44"/>
		</contour>
	</outline>
</glyph>
<glyph name="quotesingle" format="2">
	<unicode hex="0027"/>
	<advance width="265"/>
	<outline>
		<contour>
			<point x="121.36" y="403.16" type="curve" smooth="yes"/>
			<point x="142.8553846154" y="403.16"/>
			<point x="155.84" y="416.24"/>
			<point x="163.36" y="438.68" type="curve" smooth="yes"/>
			<point x="187.32" y="508.44"/>
			<point x="201.36" y="603.84"/>
			<point x="185.2" y="679.92" type="curve" smooth="yes"/>
			<point x="180.52" y="701.24"/>
			<point x="159.64" y="716.44"/>
			<point x="136.92" y="716.44" type="curve" smooth="yes"/>
			<point x="106.36" y="716.44"/>
			<point x="84.2917647059" y="690.0070588235"/>
			<point x="89.92" y="661.32" type="curve" smooth="yes"/>
			<point x="103.24" y="596.64"/>
			<point x="89.08" y="526.44"/>
			<point x="74.08" y="474.68" type="curve" smooth="yes"/>
			<point x="62.2757832107" y="435.2803617089"/>
			<point x="90.4651428571" y="403.16"/>
		</contour>
	</outline>
</glyph>
<glyph name="parenleft" format="2">
	<unicode hex="0028"/>
	<advance width="448"/>
	<outline>
		<contour>
			<point x="392.76" y="720.8" type="curve" smooth="yes"/>
			<point x="284.84" y="582.64"/>
			<point x="185.24" y="396.16"/>
			<point x="185.24" y="178.8" type="curve" smooth="yes"/>
			<point x="185.24" y="-8.4"/>
			<point x="255.64" y="-124.32"/>
			<point x="379.24" y="-170.8" type="curve" smooth="yes"/>
			<point x="410.28" y="-182.2"/>
			<point x="421.24" y="-195.92"/>
			<point x="421.24" y="-214.68" type="curve" smooth="yes"/>
			<point x="421.24" y="-241.2810352406"/>
			<point x="397.6" y="-261.56"/>
			<point x="375.36" y="-261.56" type="curve" smooth="yes"/>
			<point x="357.96" y="-261.56"/>
			<point x="348.72" y="-259.56"/>
			<point x="318.84" y="-247.32" type="curve" smooth="yes"/>
			<point x="183.84" y="-192.76"/>
			<point x="85.56" y="-60.44"/>
			<point x="85.56" y="178.8" type="curve" smooth="yes"/>
			<point x="85.56" y="419.44"/>
			<point x="193.96" y="627.2"/>
			<point x="317.2" y="785.24" type="curve" smooth="yes"/>
			<point x="332.28" y="804.6"/>
			<point x="347.2" y="811"/>
			<point x="361.4" y="811" type="curve" smooth="yes"/>
			<point x="390.56" y="811"/>
			<point x="412.08" y="785.88"/>
			<point x="412.08" y="760.32" type="curve" smooth="yes"/>
			<point x="412.08" y="748.96"/>
			<point x="407.12" y="739.16"/>
		</contour>
	</outline>
</glyph>
<glyph name="parenright" format="2">
	<unicode hex="0029"/>
	<advance width="423"/>
	<outline>
		<contour>
			<point x="57.92" y="-173.64" type="curve" smooth="yes"/>
			<point x="180.36" y="-74.96"/>
			<point x="261.8" y="77.52"/>
			<point x="261.8" y="256.92" type="curve" smooth="yes"/>
			<point x="261.8" y="480.96"/>
			<point x="173.36" y="636.4"/>
			<point x="68.28" y="709.24" type="curve" smooth="yes"/>
			<point x="36.96" y="730.6"/>
			<point x="27.2" y="747.2"/>
			<point x="27.2" y="764.92" type="curve" smooth="yes"/>
			<point x="27.2" y="790.64"/>
			<point x="50.8" y="810.56"/>
			<point x="74.6" y="810.56" type="curve" smooth="yes"/>
			<point x="92.16" y="810.56"/>
			<point x="102.52" y="807.72"/>
			<point x="129.2" y="789.88" type="curve" smooth="yes"/>
			<point x="252" y="705.96"/>
			<point x="361.48" y="518.52"/>
			<point x="361.48" y="256.92" type="curve" smooth="yes"/>
			<point x="361.48" y="49.36"/>
			<point x="268.64" y="-131.24"/>
			<point x="129.56" y="-237.4" type="curve" smooth="yes"/>
			<point x="106.8" y="-254.48"/>
			<point x="91.8" y="-259.72"/>
			<point x="79.48" y="-259.72" type="curve" smooth="yes"/>
			<point x="54.56" y="-259.72"/>
			<point x="32.72" y="-242"/>
			<point x="32.72" y="-216.88" type="curve" smooth="yes"/>
			<point x="32.72" y="-201.12"/>
			<point x="39.68" y="-189.16"/>
		</contour>
	</outline>
</glyph>
<glyph name="asterisk" format="2">
	<unicode hex="002A"/>
	<advance width="491"/>
	<outline>
		<contour>
			<point x="302.32" y="559.92" type="curve" smooth="yes"/>
			<point x="302.32" y="488.2"/>
			<point x="290.4" y="382.12"/>
			<point x="307.84" y="294.4" type="curve" smooth="yes"/>
			<point x="314.4" y="260.48"/>
			<point x="294.96" y="244"/>
			<point x="268.56" y="244" type="curve" smooth="yes"/>
			<point x="244.36" y="244"/>
			<point x="230.4" y="257.52"/>
			<point x="225.84" y="280.48" type="curve" smooth="yes"/>
			<point x="208.28" y="369.16"/>
			<point x="218.32" y="484.36"/>
			<point x="218.32" y="558.48" type="curve" smooth="yes"/>
			<point x="218.32" y="672.68"/>
			<point x="180.84" y="685.04"/>
			<point x="180.84" y="723.16" type="curve" smooth="yes"/>
			<point x="180.84" y="742.52"/>
			<point x="191.52" y="755.2"/>
			<point x="214.28" y="755.2" type="curve" smooth="yes"/>
			<point x="259.32" y="755.2"/>
			<point x="302.32" y="680.64"/>
		</contour>
		<contour>
			<point x="433.4" y="598.16" type="curve" smooth="yes"/>
			<point x="389.64" y="531.96"/>
			<point x="213" y="447.92"/>
			<point x="141.08" y="355.4" type="curve" smooth="yes"/>
			<point x="132.4" y="344.04"/>
			<point x="121.28" y="338.48"/>
			<point x="108.2" y="338.48" type="curve" smooth="yes"/>
			<point x="85.56" y="338.48"/>
			<point x="65.64" y="359.56"/>
			<point x="65.64" y="380.76" type="curve" smooth="yes"/>
			<point x="65.64" y="389.6"/>
			<point x="68.08" y="399"/>
			<point x="77" y="410.32" type="curve" smooth="yes"/>
			<point x="146.64" y="496.36"/>
			<point x="321.16" y="576.64"/>
			<point x="370.76" y="654.44" type="curve" smooth="yes"/>
			<point x="381" y="669.8"/>
			<point x="390.52" y="679.2"/>
			<point x="408.04" y="679.2" type="curve" smooth="yes"/>
			<point x="432.52" y="679.2"/>
			<point x="447.8" y="659.68"/>
			<point x="447.8" y="638.76" type="curve" smooth="yes"/>
			<point x="447.8" y="627.28"/>
			<point x="444.4" y="616.32"/>
		</contour>
		<contour>
			<point x="107.4" y="636.12" type="curve" smooth="yes"/>
			<point x="183.72" y="593.52"/>
			<point x="320.08" y="534"/>
			<point x="436.92" y="452" type="curve" smooth="yes"/>
			<point x="449" y="444.16"/>
			<point x="455.96" y="430.92"/>
			<point x="455.96" y="416.72" type="curve" smooth="yes"/>
			<point x="455.96" y="392.64"/>
			<point x="437.52" y="374.44"/>
			<point x="416.64" y="374.44" type="curve" smooth="yes"/>
			<point x="404.84" y="374.44"/>
			<point x="397.56" y="377.72"/>
			<point x="371.52" y="395.12" type="curve" smooth="yes"/>
			<point x="275.04" y="462.56"/>
			<point x="138.12" y="521.2"/>
			<point x="61.64" y="566.24" type="curve" smooth="yes"/>
			<point x="35.6" y="581.32"/>
			<point x="29.48" y="601.08"/>
			<point x="29.48" y="617.76" type="curve" smooth="yes"/>
			<point x="29.48" y="637.52"/>
			<point x="42" y="651.36"/>
			<point x="62.08" y="651.36" type="curve" smooth="yes"/>
			<point x="78.48" y="651.36"/>
			<point x="85.6" y="648.24"/>
		</contour>
	</outline>
</glyph>
<glyph name="comma" format="2">
	<unicode hex="002C"/>
	<advance width="262"/>
	<outline>
		<contour>
			<point x="116.6" y="162.96" type="curve" smooth="yes"/>
			<point x="86.36" y="162.96"/>
			<point x="70" y="140.64"/>
			<point x="70" y="100.76" type="curve" smooth="yes"/>
			<point x="70" y="40.64"/>
			<point x="63.44" y="-17.96"/>
			<point x="34.72" y="-78.4" type="curve" smooth="yes"/>
			<point x="20.9087932365" y="-107.3098847026"/>
			<point x="14.68" y="-125.5564705882"/>
			<point x="14.68" y="-140.08" type="curve" smooth="yes"/>
			<point x="14.68" y="-159.2016666667"/>
			<point x="26.92" y="-171.36"/>
			<point x="48.36" y="-171.36" type="curve" smooth="yes"/>
			<point x="73.92" y="-171.36"/>
			<point x="104.5812668795" y="-152.8476120066"/>
			<point x="122.72" y="-126.76" type="curve" smooth="yes"/>
			<point x="164.0705448564" y="-65.7564715558"/>
			<point x="190.08" y="23.9515151515"/>
			<point x="190.08" y="87.2" type="curve" smooth="yes"/>
			<point x="190.08" y="138.7124631888"/>
			<point x="162.52" y="162.96"/>
		</contour>
	</outline>
</glyph>
<glyph name="hyphen" format="2">
	<unicode hex="002D"/>
	<advance width="488"/>
	<outline>
		<contour>
			<point x="142.64" y="201.92" type="curve" smooth="yes"/>
			<point x="176.810182954" y="201.92"/>
			<point x="232.4072110665" y="219.12"/>
			<point x="385.44" y="219.12" type="curve" smooth="yes"/>
			<point x="417.16" y="219.12"/>
			<point x="435.88" y="232.92"/>
			<point x="435.88" y="255.12" type="curve" smooth="yes"/>
			<point x="435.88" y="275.96"/>
			<point x="408" y="310.12"/>
			<point x="330.04" y="310.12" type="curve" smooth="yes"/>
			<point x="247.5138866397" y="310.12"/>
			<point x="170.5682317098" y="300.6517359607"/>
			<point x="84.2" y="285.56" type="curve" smooth="yes"/>
			<point x="58.36" y="281.16"/>
			<point x="51.64" y="266.44"/>
			<point x="51.64" y="252.36" type="curve" smooth="yes"/>
			<point x="51.64" y="227.56"/>
			<point x="83.72" y="201.92"/>
		</contour>
	</outline>
</glyph>
<glyph name="period" format="2">
	<unicode hex="002E"/>
	<advance width="320"/>
	<outline>
		<contour>
			<point x="177.96" y="-11.68" type="curve" smooth="yes"/>
			<point x="220.36" y="-11.68"/>
			<point x="238.96" y="16.56"/>
			<point x="238.96" y="45.48" type="curve" smooth="yes"/>
			<point x="238.96" y="90.56"/>
			<point x="206.6" y="140.84"/>
			<point x="142.92" y="140.84" type="curve" smooth="yes"/>
			<point x="109.64" y="140.84"/>
			<point x="82.04" y="116.92"/>
			<point x="82.04" y="79.4" type="curve" smooth="yes"/>
			<point x="82.04" y="27.76"/>
			<point x="121.4" y="-11.68"/>
		</contour>
	</outline>
</glyph>
<glyph name="slash" format="2">
	<unicode hex="002F"/>
	<advance width="365"/>
	<outline>
		<contour>
			<point x="433" y="713.6" type="curve" smooth="yes"/>
			<point x="263.2363193928" y="433.7530094251"/>
			<point x="171.6" y="174.76"/>
			<point x="147.24" y="-104.32" type="curve" smooth="yes"/>
			<point x="144.12" y="-141.16"/>
			<point x="126.52" y="-159.2"/>
			<point x="99.56" y="-159.2" type="curve" smooth="yes"/>
			<point x="65.36" y="-159.2"/>
			<point x="44.0395994085" y="-132.6858085774"/>
			<point x="47.44" y="-93.88" type="curve" smooth="yes"/>
			<point x="72.8" y="202.72"/>
			<point x="179.08" y="505.12"/>
			<point x="337.24" y="763.8" type="curve" smooth="yes"/>
			<point x="362.12" y="803.08"/>
			<point x="379.04" y="820"/>
			<point x="403.76" y="820" type="curve" smooth="yes"/>
			<point x="440.48" y="820"/>
			<point x="469.4" y="773.2"/>
		</contour>
	</outline>
</glyph>
<glyph name="zero" format="2">
	<unicode hex="0030"/>
	<advance width="700"/>
	<outline>
		<contour>
			<point x="290.6" y="539.56" type="curve" smooth="yes"/>
			<point x="215.8" y="483.56"/>
			<point x="160.88" y="386.32"/>
			<point x="160.88" y="270" type="curve" smooth="yes"/>
			<point x="160.88" y="163.52"/>
			<point x="205.92" y="84.4"/>
			<point x="316.44" y="84.4" type="curve" smooth="yes"/>
			<point x="433.36" y="84.4"/>
			<point x="538.12" y="201.32"/>
			<point x="538.12" y="417" type="curve" smooth="yes"/>
			<point x="538.12" y="531.08"/>
			<point x="503.66" y="616.04"/>
			<point x="400" y="616.04" type="curve" smooth="yes"/>
			<point x="325.9803278689" y="616.04"/>
			<point x="259.2816148451" y="570.7066503089"/>
			<point x="209.56" y="504.52" type="curve" smooth="yes"/>
			<point x="198.48" y="492.12"/>
			<point x="179.2" y="487.76"/>
			<point x="161.64" y="487.76" type="curve" smooth="yes"/>
			<point x="134.24" y="487.76"/>
			<point x="118.48" y="513.04"/>
			<point x="118.48" y="532.88" type="curve" smooth="yes"/>
			<point x="118.48" y="584.261443299"/>
			<point x="247.387480916" y="711"/>
			<point x="400" y="711" type="curve" smooth="yes"/>
			<point x="563.76" y="711"/>
			<point x="634.8" y="599"/>
			<point x="634.8" y="417" type="curve" smooth="yes"/>
			<point x="634.8" y="128"/>
			<point x="472.6283987915" y="-11"/>
			<point x="317" y="-11" type="curve" smooth="yes"/>
			<point x="173.5368421052" y="-11"/>
			<point x="64.2" y="74"/>
			<point x="64.2" y="270" type="curve" smooth="yes"/>
			<point x="64.2" y="482.53530343"/>
			<point x="211" y="630.2"/>
			<point x="279.68" y="630.2" type="curve" smooth="yes"/>
			<point x="305.3808" y="630.2"/>
			<point x="317.44" y="621"/>
			<point x="317.44" y="588.6" type="curve" smooth="yes"/>
			<point x="317.44" y="570.48"/>
			<point x="308.6279778672" y="553.0839827856"/>
		</contour>
	</outline>
</glyph>
<glyph name="one" format="2">
	<unicode hex="0031"/>
	<advance width="700"/>
	<outline>
		<contour>
			<point x="146.6" y="87.8" type="curve" smooth="yes"/>
			<point x="246.68" y="87.8"/>
			<point x="417.4706382979" y="96.24"/>
			<point x="540.24" y="96.24" type="curve" smooth="yes"/>
			<point x="595.8836363637" y="96.24"/>
			<point x="637.84" y="77.12"/>
			<point x="637.68" y="41.56" type="curve" smooth="yes"/>
			<point x="637.52" y="17.88"/>
			<point x="617.3793548387" y="0"/>
			<point x="577.72" y="0" type="curve" smooth="yes"/>
			<point x="433.7830927835" y="0"/>
			<point x="287.84" y="-9.72"/>
			<point x="192.32" y="-9.72" type="curve" smooth="yes"/>
			<point x="109.04" y="-9.72"/>
			<point x="78.12" y="16.7465486726"/>
			<point x="78.12" y="48.2" type="curve" smooth="yes"/>
			<point x="78.12" y="73.72"/>
			<point x="98.44" y="87.8"/>
		</contour>
		<contour>
			<point x="131.8" y="611.72" type="curve" smooth="yes"/>
			<point x="209.96" y="613.96"/>
			<point x="292.4" y="639.36"/>
			<point x="369.68" y="689.6" type="curve" smooth="yes"/>
			<point x="387.96" y="702.28"/>
			<point x="405.64" y="709.52"/>
			<point x="423.96" y="709.52" type="curve" smooth="yes"/>
			<point x="462.12" y="709.52"/>
			<point x="487.3886722756" y="678.7811092655"/>
			<point x="481.32" y="639.48" type="curve" smooth="yes"/>
			<point x="467.88" y="559.56"/>
			<point x="422.92" y="346.6"/>
			<point x="422.92" y="89.56" type="curve" smooth="yes"/>
			<point x="422.92" y="65.96"/>
			<point x="408.56" y="47.04"/>
			<point x="387.16" y="47.04" type="curve" smooth="yes"/>
			<point x="351.84" y="47.04"/>
			<point x="326.24" y="75.56"/>
			<point x="326.24" y="109.88" type="curve" smooth="yes"/>
			<point x="326.24" y="272.16"/>
			<point x="349.88" y="464.08"/>
			<point x="377.36" y="619.08" type="curve"/>
			<point x="401.44" y="601.16" type="line"/>
			<point x="324.7180603791" y="549.2014357054"/>
			<point x="236.32" y="520.12"/>
			<point x="151" y="520.12" type="curve" smooth="yes"/>
			<point x="114.12" y="520.12"/>
			<point x="90.76" y="542.6342268041"/>
			<point x="90.76" y="574.24" type="curve" smooth="yes"/>
			<point x="90.76" y="594.9821276596"/>
			<point x="104.56" y="610.04"/>
		</contour>
	</outline>
</glyph>
<glyph name="two" format="2">
	<unicode hex="0032"/>
	<advance width="700"/>
	<outline>
		<contour>
			<point x="131.52" y="625.28" type="curve" smooth="yes"/>
			<point x="201.5463566704" y="676.883205863"/>
			<point x="288.9102040816" y="713"/>
			<point x="378" y="713" type="curve" smooth="yes"/>
			<point x="527.92" y="713"/>
			<point x="585.6" y="630.8117647059"/>
			<point x="585.6" y="513.4" type="curve" smooth="yes"/>
			<point x="585.6" y="395.4301461378"/>
			<point x="512.5182001258" y="246.8646571304"/>
			<point x="197.56" y="56.88" type="curve"/>
			<point x="176.88" y="88.2" type="line"/>
			<point x="197.84" y="79.04"/>
			<point x="217.36" y="77.04"/>
			<point x="238.04" y="77.04" type="curve" smooth="yes"/>
			<point x="311.2" y="77.04"/>
			<point x="420.88" y="96.24"/>
			<point x="545.56" y="96.24" type="curve" smooth="yes"/>
			<point x="614.44" y="96.24"/>
			<point x="633.6" y="67.7932075472"/>
			<point x="633.6" y="39.44" type="curve" smooth="yes"/>
			<point x="633.6" y="15.5105882353"/>
			<point x="615.672" y="0"/>
			<point x="577.4" y="0" type="curve" smooth="yes"/>
			<point x="375.1823868642" y="0"/>
			<point x="277.5036123348" y="-20"/>
			<point x="188.12" y="-20" type="curve" smooth="yes"/>
			<point x="125.76" y="-20"/>
			<point x="93.76" y="8.12"/>
			<point x="93.76" y="58.84" type="curve" smooth="yes"/>
			<point x="93.76" y="82.84"/>
			<point x="104.44" y="99.4"/>
			<point x="119.56" y="108.52" type="curve" smooth="yes"/>
			<point x="398.0975226961" y="284.3381694161"/>
			<point x="488.92" y="405.3873584906"/>
			<point x="488.92" y="513.4" type="curve" smooth="yes"/>
			<point x="488.92" y="577.6376978417"/>
			<point x="453.76" y="617.2"/>
			<point x="378" y="617.2" type="curve" smooth="yes"/>
			<point x="245.1835087719" y="617.2"/>
			<point x="185.03" y="533.84"/>
			<point x="146.88" y="533.84" type="curve" smooth="yes"/>
			<point x="121.04" y="533.84"/>
			<point x="101.32" y="554.96"/>
			<point x="101.32" y="579.2" type="curve" smooth="yes"/>
			<point x="101.32" y="596.8"/>
			<point x="109.88" y="609.04"/>
		</contour>
	</outline>
</glyph>
<glyph name="three" format="2">
	<unicode hex="0033"/>
	<advance width="700"/>
	<outline>
		<contour>
			<point x="372" y="712" type="curve" smooth="yes"/>
			<point x="502.88" y="712"/>
			<point x="565.04" y="649.5552941177"/>
			<point x="565.04" y="553.6" type="curve" smooth="yes"/>
			<point x="565.04" y="478.0918032787"/>
			<point x="523.0251482065" y="390.5328924475"/>
			<point x="347.4" y="360.68" type="curve"/>
			<point x="346.44" y="383.84" type="line"/>
			<point x="546.5609448602" y="384.7200094961"/>
			<point x="624.8" y="319.8638484009"/>
			<point x="624.8" y="213.6" type="curve" smooth="yes"/>
			<point x="624.8" y="73.3060869565"/>
			<point x="491.6" y="-12"/>
			<point x="300.2" y="-12" type="curve" smooth="yes"/>
			<point x="157.576" y="-12"/>
			<point x="94.92" y="43.44"/>
			<point x="94.92" y="92.92" type="curve" smooth="yes"/>
			<point x="94.92" y="119.1682758621"/>
			<point x="107.6793333333" y="139.08"/>
			<point x="131.44" y="139.08" type="curve" smooth="yes"/>
			<point x="167.4" y="139.08"/>
			<point x="169.0610526316" y="84.68"/>
			<point x="283.28" y="84.68" type="curve" smooth="yes"/>
			<point x="419.24" y="84.68"/>
			<point x="528.12" y="135.8888343559"/>
			<point x="528.12" y="216.68" type="curve" smooth="yes"/>
			<point x="528.12" y="289.7942857143"/>
			<point x="444.3205281813" y="310.7999961163"/>
			<point x="299.64" y="311.52" type="curve" smooth="yes"/>
			<point x="261.04" y="311.52"/>
			<point x="239.8" y="340.96"/>
			<point x="239.8" y="369.8" type="curve" smooth="yes"/>
			<point x="239.8" y="387.88"/>
			<point x="249.64" y="403"/>
			<point x="273.16" y="408.28" type="curve" smooth="yes"/>
			<point x="380.8775006167" y="434.1726962356"/>
			<point x="466.12" y="473.549787234"/>
			<point x="466.12" y="550.8" type="curve" smooth="yes"/>
			<point x="466.12" y="608.2971428571"/>
			<point x="422.72" y="619"/>
			<point x="375.08" y="619" type="curve" smooth="yes"/>
			<point x="204.88" y="619"/>
			<point x="177.24" y="545.56"/>
			<point x="134.4" y="545.56" type="curve" smooth="yes"/>
			<point x="109.28" y="545.56"/>
			<point x="88.08" y="563.28"/>
			<point x="88.08" y="587.68" type="curve" smooth="yes"/>
			<point x="88.08" y="632.8877419355"/>
			<point x="223.0026067416" y="712"/>
		</contour>
	</outline>
</glyph>
<glyph name="four" format="2">
	<unicode hex="0034"/>
	<advance width="700"/>
	<outline>
		<contour>
			<point x="363.72" y="157" type="curve" smooth="yes"/>
			<point x="363.72" y="287.5527272727"/>
			<point x="410.16" y="414.2"/>
			<point x="410.16" y="547.48" type="curve" smooth="yes"/>
			<point x="410.16" y="589.84"/>
			<point x="405.72" y="619.12"/>
			<point x="395.44" y="647.44" type="curve"/>
			<point x="430.44" y="629.32" type="line"/>
			<point x="304.48" y="549.44"/>
			<point x="203.76" y="398.2"/>
			<point x="149.76" y="229.4" type="curve"/>
			<point x="117.64" y="276.36" type="line"/>
			<point x="152.08" y="261.92"/>
			<point x="159.36" y="260.36"/>
			<point x="180.04" y="260.36" type="curve" smooth="yes"/>
			<point x="304.762" y="260.36"/>
			<point x="407.33" y="309.4"/>
			<point x="576.36" y="309.4" type="curve" smooth="yes"/>
			<point x="623.92" y="309.4"/>
			<point x="653.84" y="283.32"/>
			<point x="653.84" y="251.8" type="curve" smooth="yes"/>
			<point x="653.84" y="229.64"/>
			<point x="638.72" y="213.6"/>
			<point x="602.36" y="213.6" type="curve" smooth="yes"/>
			<point x="414.6156057495" y="213.6"/>
			<point x="306.7371663244" y="163.56"/>
			<point x="157.92" y="163.56" type="curve" smooth="yes"/>
			<point x="100.6" y="163.56"/>
			<point x="63.96" y="200.4"/>
			<point x="63.96" y="244.8" type="curve" smooth="yes"/>
			<point x="63.96" y="276.5019354839"/>
			<point x="70.4366172269" y="305.5545414343"/>
			<point x="97.48" y="359.24" type="curve" smooth="yes"/>
			<point x="191.36" y="560.72"/>
			<point x="348.2" y="715"/>
			<point x="431.56" y="715" type="curve" smooth="yes"/>
			<point x="486.4" y="715"/>
			<point x="508.52" y="657.4"/>
			<point x="508.52" y="555.08" type="curve" smooth="yes"/>
			<point x="508.52" y="409.72"/>
			<point x="460.96" y="301.8666987952"/>
			<point x="460.96" y="148" type="curve" smooth="yes"/>
			<point x="460.96" y="92.8"/>
			<point x="470.96" y="68.92"/>
			<point x="470.96" y="38.6" type="curve" smooth="yes"/>
			<point x="470.96" y="7.24"/>
			<point x="452.24" y="-11"/>
			<point x="424.16" y="-11" type="curve" smooth="yes"/>
			<point x="380.64" y="-11"/>
			<point x="363.72" y="39"/>
		</contour>
	</outline>
</glyph>
<glyph name="five" format="2">
	<unicode hex="0035"/>
	<advance width="700"/>
	<outline>
		<contour>
			<point x="565" y="620.76" type="curve" smooth="yes"/>
			<point x="415.3783541147" y="620.76"/>
			<point x="346.500525298" y="601.7017977356"/>
			<point x="170" y="604.76" type="curve"/>
			<point x="236.84" y="641.36" type="line"/>
			<point x="216.36" y="601.56"/>
			<point x="194.64" y="538.44"/>
			<point x="194.64" y="496.84" type="curve" smooth="yes"/>
			<point x="194.64" y="467.64"/>
			<point x="201.2381011878" y="462.3234733784"/>
			<point x="381" y="427.12" type="curve" smooth="yes"/>
			<point x="574.3758547143" y="389.1007554996"/>
			<point x="619.4" y="333.84"/>
			<point x="619.4" y="246.92" type="curve" smooth="yes"/>
			<point x="619.4" y="101.16"/>
			<point x="472.8887804878" y="-12"/>
			<point x="249.2" y="-12" type="curve" smooth="yes"/>
			<point x="148.2411428571" y="-12"/>
			<point x="102.12" y="28.48"/>
			<point x="102.12" y="89.2" type="curve" smooth="yes"/>
			<point x="102.12" y="116.36"/>
			<point x="114.76" y="137.4"/>
			<point x="140.32" y="137.4" type="curve" smooth="yes"/>
			<point x="173.16" y="137.4"/>
			<point x="169.24" y="82.4"/>
			<point x="237.32" y="82.4" type="curve" smooth="yes"/>
			<point x="387.7715254238" y="82.4"/>
			<point x="519.64" y="141.88"/>
			<point x="519.64" y="243.48" type="curve" smooth="yes"/>
			<point x="519.64" y="297.56"/>
			<point x="455.1899511875" y="321.0278991937"/>
			<point x="350.6" y="342.24" type="curve" smooth="yes"/>
			<point x="120.2505888612" y="387.5319375874"/>
			<point x="96.84" y="407.84"/>
			<point x="96.84" y="489.72" type="curve" smooth="yes"/>
			<point x="96.84" y="526.72"/>
			<point x="105.84" y="576.6"/>
			<point x="126.28" y="642.68" type="curve" smooth="yes"/>
			<point x="138.72" y="683"/>
			<point x="159.2" y="700"/>
			<point x="188.72" y="700" type="curve" smooth="yes"/>
			<point x="348.2542761937" y="697.769210989"/>
			<point x="407.872238806" y="716"/>
			<point x="527.52" y="716" type="curve" smooth="yes"/>
			<point x="585.44" y="716"/>
			<point x="615.6" y="686.48"/>
			<point x="614.04" y="654.84" type="curve" smooth="yes"/>
			<point x="613.04" y="633.96"/>
			<point x="593.8" y="620.76"/>
		</contour>
	</outline>
</glyph>
<glyph name="six" format="2">
	<unicode hex="0036"/>
	<advance width="700"/>
	<outline>
		<contour>
			<point x="439.08" y="609.48" type="curve" smooth="yes"/>
			<point x="272.7023429326" y="488.3947939655"/>
			<point x="166.84" y="366.2290909091"/>
			<point x="166.84" y="240.4" type="curve" smooth="yes"/>
			<point x="166.84" y="123.1767088608"/>
			<point x="245.2753352296" y="84.4"/>
			<point x="353.8" y="84.4" type="curve" smooth="yes"/>
			<point x="449.6366669416" y="84.4"/>
			<point x="533.84" y="120.4740372671"/>
			<point x="533.84" y="205.8" type="curve" smooth="yes"/>
			<point x="533.84" y="254.5963636363"/>
			<point x="496.5210301856" y="307.44"/>
			<point x="385.04" y="307.44" type="curve" smooth="yes"/>
			<point x="256.198478401" y="307.44"/>
			<point x="234.3940425532" y="277.08"/>
			<point x="191.56" y="277.08" type="curve" smooth="yes"/>
			<point x="167.56" y="277.08"/>
			<point x="160.04" y="288.44"/>
			<point x="160.04" y="308.68" type="curve" smooth="yes"/>
			<point x="160.04" y="345.188976378"/>
			<point x="248.1151219512" y="395.96"/>
			<point x="400.52" y="395.96" type="curve" smooth="yes"/>
			<point x="551.661719457" y="395.96"/>
			<point x="631.8" y="308.231255814"/>
			<point x="631.8" y="196.2" type="curve" smooth="yes"/>
			<point x="631.8" y="87.6865116279"/>
			<point x="533.3861410691" y="-10"/>
			<point x="352.68" y="-10" type="curve" smooth="yes"/>
			<point x="154.2118412457" y="-10"/>
			<point x="68.2" y="84.52"/>
			<point x="68.2" y="239" type="curve" smooth="yes"/>
			<point x="68.2" y="385.1989066059"/>
			<point x="179.4979329029" y="538.8372499508"/>
			<point x="372.68" y="678.88" type="curve" smooth="yes"/>
			<point x="407.097596034" y="703.2171646735"/>
			<point x="418.1553623188" y="710.72"/>
			<point x="437.04" y="710.72" type="curve" smooth="yes"/>
			<point x="460.6085106383" y="710.72"/>
			<point x="478.08" y="689.6614141414"/>
			<point x="478.08" y="665.28" type="curve" smooth="yes"/>
			<point x="478.08" y="643.72"/>
			<point x="471.2" y="632.04"/>
		</contour>
	</outline>
</glyph>
<glyph name="seven" format="2">
	<unicode hex="0037"/>
	<advance width="700"/>
	<outline>
		<contour>
			<point x="208" y="351.6" type="curve" smooth="yes"/>
			<point x="313.3754228225" y="351.6"/>
			<point x="406.7558436069" y="379.6"/>
			<point x="563.2" y="379.6" type="curve" smooth="yes"/>
			<point x="614.84" y="379.6"/>
			<point x="646" y="353.48"/>
			<point x="646" y="317.8" type="curve" smooth="yes"/>
			<point x="646" y="299.08"/>
			<point x="631.08" y="286.6"/>
			<point x="603.8" y="286.6" type="curve" smooth="yes"/>
			<point x="404.7164577619" y="286.6"/>
			<point x="333.4362043412" y="258.6"/>
			<point x="246" y="258.6" type="curve" smooth="yes"/>
			<point x="204.84" y="258.6"/>
			<point x="174.36" y="287.6"/>
			<point x="174.36" y="315.28" type="curve" smooth="yes"/>
			<point x="174.36" y="337.68"/>
			<point x="188.32" y="351.6"/>
		</contour>
		<contour>
			<point x="100.96" y="646.44" type="curve" smooth="yes"/>
			<point x="184.4706444696" y="683.5795093454"/>
			<point x="281.4462084056" y="710"/>
			<point x="376" y="710" type="curve" smooth="yes"/>
			<point x="532.1254901961" y="710"/>
			<point x="591.2" y="646.52"/>
			<point x="591.2" y="553.8" type="curve" smooth="yes"/>
			<point x="591.2" y="408.2"/>
			<point x="396.8" y="235"/>
			<point x="396.8" y="54.88" type="curve" smooth="yes"/>
			<point x="396.8" y="5.4"/>
			<point x="386.44" y="-9"/>
			<point x="358.6" y="-9" type="curve" smooth="yes"/>
			<point x="326.52" y="-9"/>
			<point x="300.12" y="12.8"/>
			<point x="300.12" y="58.52" type="curve" smooth="yes"/>
			<point x="300.12" y="245.04"/>
			<point x="493.4" y="446.8"/>
			<point x="493.4" y="546.32" type="curve" smooth="yes"/>
			<point x="493.4" y="594.04"/>
			<point x="470.2" y="615.84"/>
			<point x="383" y="615.84" type="curve" smooth="yes"/>
			<point x="232.7993442623" y="615.84"/>
			<point x="168.1259629673" y="555.92"/>
			<point x="123.4" y="555.92" type="curve" smooth="yes"/>
			<point x="97.3736363636" y="555.92"/>
			<point x="73.12" y="579.4"/>
			<point x="73.12" y="606.68" type="curve" smooth="yes"/>
			<point x="73.12" y="622.92"/>
			<point x="83.12" y="638.72"/>
		</contour>
	</outline>
</glyph>
<glyph name="eight" format="2">
	<unicode hex="0038"/>
	<advance width="700"/>
	<outline>
		<contour>
			<point x="432" y="617.44" type="curve" smooth="yes"/>
			<point x="248.810372079" y="622.135135105"/>
			<point x="172.88" y="594.04"/>
			<point x="172.88" y="538.56" type="curve" smooth="yes"/>
			<point x="172.88" y="499.875979021"/>
			<point x="214.0195780313" y="470.9278621761"/>
			<point x="384.64" y="409.72" type="curve" smooth="yes"/>
			<point x="592.999667951" y="335.8649289359"/>
			<point x="612.6" y="277.0845283019"/>
			<point x="612.6" y="198.96" type="curve" smooth="yes"/>
			<point x="612.6" y="90.36"/>
			<point x="522.7223529412" y="-12"/>
			<point x="287.76" y="-12" type="curve" smooth="yes"/>
			<point x="148.4861538462" y="-12"/>
			<point x="97.5999806828" y="57.7190631158"/>
			<point x="98.88" y="138.16" type="curve" smooth="yes"/>
			<point x="100.1600313939" y="208.9612243621"/>
			<point x="120.680931261" y="268.9585897569"/>
			<point x="326.16" y="398.24" type="curve" smooth="yes"/>
			<point x="440.7589668312" y="468.5802158748"/>
			<point x="488.3631835727" y="519.6960812386"/>
			<point x="510.2" y="596.68" type="curve" smooth="yes"/>
			<point x="519.48" y="627.64"/>
			<point x="528.56" y="642.72"/>
			<point x="550.76" y="642.72" type="curve" smooth="yes"/>
			<point x="577.4589473684" y="642.72"/>
			<point x="599.96" y="618.76"/>
			<point x="599.96" y="588.28" type="curve" smooth="yes"/>
			<point x="599.96" y="519.6"/>
			<point x="545.7916609326" y="425.8301574077"/>
			<point x="403.96" y="337.2" type="curve" smooth="yes"/>
			<point x="229.96" y="230.92"/>
			<point x="194.52" y="183.6859893048"/>
			<point x="194.52" y="132.12" type="curve" smooth="yes"/>
			<point x="194.52" y="105.2941176471"/>
			<point x="200.0442927938" y="74.6056993815"/>
			<point x="218.84" y="42.88" type="curve"/>
			<point x="164.16" y="112" type="line"/>
			<point x="203.8612933098" y="89.7019009289"/>
			<point x="244.9587692308" y="82.68"/>
			<point x="287.2" y="82.68" type="curve" smooth="yes"/>
			<point x="411.7419354839" y="82.68"/>
			<point x="513.12" y="119.9729032258"/>
			<point x="513.12" y="201.24" type="curve" smooth="yes"/>
			<point x="513.12" y="251.0272"/>
			<point x="484.3627747126" y="284.7075418857"/>
			<point x="342.28" y="331.48" type="curve" smooth="yes"/>
			<point x="111.5911178245" y="407.0316025513"/>
			<point x="75.1964884622" y="460.8636577426"/>
			<point x="76.2" y="540" type="curve" smooth="yes"/>
			<point x="78.1999957675" y="647.7597460516"/>
			<point x="171.8134246575" y="711"/>
			<point x="385.4" y="711" type="curve" smooth="yes"/>
			<point x="444.92" y="711"/>
			<point x="473.64" y="680.48"/>
			<point x="473.08" y="651.08" type="curve" smooth="yes"/>
			<point x="472.8" y="632.2"/>
			<point x="453.6" y="616.44"/>
		</contour>
	</outline>
</glyph>
<glyph name="nine" format="2">
	<unicode hex="0039"/>
	<advance width="700"/>
	<outline>
		<contour>
			<point x="486.48" y="571.08" type="curve" smooth="yes"/>
			<point x="507.48" y="571.08"/>
			<point x="517.28" y="594.72"/>
			<point x="517.28" y="618.08" type="curve" smooth="yes"/>
			<point x="517.28" y="674.8"/>
			<point x="462.4769491525" y="710"/>
			<point x="369" y="710" type="curve" smooth="yes"/>
			<point x="181.76" y="710"/>
			<point x="75.2" y="578.6015267175"/>
			<point x="75.2" y="453.52" type="curve" smooth="yes"/>
			<point x="75.2" y="341.1973333333"/>
			<point x="138.1454222222" y="267.36"/>
			<point x="271.12" y="267.36" type="curve" smooth="yes"/>
			<point x="390.5275247525" y="267.36"/>
			<point x="495.5582941727" y="329.5704654631"/>
			<point x="543.44" y="444.24" type="curve"/>
			<point x="496.76" y="431.56" type="line"/>
			<point x="496.76" y="268.953639576"/>
			<point x="490.4663692651" y="140.9153259237"/>
			<point x="504.72" y="50.6" type="curve" smooth="yes"/>
			<point x="510.9779859308" y="14.6591057341"/>
			<point x="534.68" y="-9"/>
			<point x="570.64" y="-9" type="curve" smooth="yes"/>
			<point x="594.04" y="-9"/>
			<point x="606.8" y="5.36"/>
			<point x="606.8" y="33.88" type="curve" smooth="yes"/>
			<point x="606.8" y="80.52"/>
			<point x="593.4" y="129.0030278885"/>
			<point x="593.4" y="280.84" type="curve" smooth="yes"/>
			<point x="593.4" y="324.2"/>
			<point x="591.52" y="410.32"/>
			<point x="593.08" y="512.68" type="curve"/>
			<point x="613.9987014808" y="622.369597735"/>
			<point x="587.52" y="659.52"/>
			<point x="532.28" y="659.52" type="curve" smooth="yes"/>
			<point x="510.24" y="659.52"/>
			<point x="495.6" y="639.84"/>
			<point x="495.6" y="602.88" type="curve" smooth="yes"/>
			<point x="495.6" y="429.0019251337"/>
			<point x="389.2" y="361.2"/>
			<point x="271.4" y="361.2" type="curve" smooth="yes"/>
			<point x="207.6" y="361.2"/>
			<point x="171.88" y="394.0088888889"/>
			<point x="171.88" y="455.2" type="curve" smooth="yes"/>
			<point x="171.88" y="542.4981818182"/>
			<point x="248" y="615.32"/>
			<point x="369" y="615.32" type="curve" smooth="yes"/>
			<point x="457.48" y="615.32"/>
			<point x="453.28" y="571.08"/>
		</contour>
	</outline>
</glyph>
<glyph name="colon" format="2">
	<unicode hex="003A"/>
	<advance width="320"/>
	<outline>
		<contour>
			<point x="165.16" y="351.72" type="curve" smooth="yes"/>
			<point x="216.24" y="351.72"/>
			<point x="238.96" y="382.5682191781"/>
			<point x="238.96" y="414.48" type="curve" smooth="yes"/>
			<point x="238.96" y="458.16"/>
			<point x="210.2717241379" y="504.24"/>
			<point x="150.04" y="504.24" type="curve" smooth="yes"/>
			<point x="106.5710638298" y="504.24"/>
			<point x="82.04" y="479.12"/>
			<point x="82.04" y="439.92" type="curve" smooth="yes"/>
			<point x="82.04" y="386.4711111111"/>
			<point x="116.24" y="351.72"/>
		</contour>
		<contour>
			<point x="167.96" y="-11.12" type="curve" smooth="yes"/>
			<point x="217.08" y="-11.12"/>
			<point x="238.96" y="19.7282191781"/>
			<point x="238.96" y="51.64" type="curve" smooth="yes"/>
			<point x="238.96" y="93.88"/>
			<point x="209.9550344827" y="141.4"/>
			<point x="151.8" y="141.4" type="curve" smooth="yes"/>
			<point x="113.9906382979" y="141.4"/>
			<point x="82.04" y="114.6"/>
			<point x="82.04" y="72.76" type="curve" smooth="yes"/>
			<point x="82.04" y="25.56"/>
			<point x="117.8" y="-11.12"/>
		</contour>
	</outline>
</glyph>
<glyph name="semicolon" format="2">
	<unicode hex="003B"/>
	<advance width="320"/>
	<outline>
		<contour>
			<point x="162.36" y="358.04" type="curve" smooth="yes"/>
			<point x="215.2827350427" y="358.04"/>
			<point x="238.96" y="388.8882191781"/>
			<point x="238.96" y="420.8" type="curve" smooth="yes"/>
			<point x="238.96" y="460.2333333333"/>
			<point x="212.6468965517" y="504.96"/>
			<point x="161.32" y="504.96" type="curve" smooth="yes"/>
			<point x="118.2442553191" y="504.96"/>
			<point x="82.04" y="477.1683333333"/>
			<point x="82.04" y="433.52" type="curve" smooth="yes"/>
			<point x="82.04" y="391.2762886598"/>
			<point x="114.8990163934" y="358.04"/>
		</contour>
		<component base="comma"/>
	</outline>
</glyph>
<glyph name="question" format="2">
	<unicode hex="003F"/>
	<advance width="484"/>
	<outline>
		<contour>
			<point x="48.8" y="680.88" type="curve" smooth="yes"/>
			<point x="94.04" y="704.28"/>
			<point x="171" y="720"/>
			<point x="227.96" y="720" type="curve" smooth="yes"/>
			<point x="375.36" y="720"/>
			<point x="443.04" y="654.6"/>
			<point x="443.04" y="564.68" type="curve" smooth="yes"/>
			<point x="443.04" y="506.56"/>
			<point x="420.12" y="462.72"/>
			<point x="336.96" y="408.52" type="curve" smooth="yes"/>
			<point x="263.64" y="362.28"/>
			<point x="254.24" y="346.08"/>
			<point x="254.24" y="325.56" type="curve" smooth="yes"/>
			<point x="254.24" y="291.64"/>
			<point x="296.44" y="287.72"/>
			<point x="296.44" y="253.48" type="curve" smooth="yes"/>
			<point x="296.44" y="235.96"/>
			<point x="282.64" y="220.2"/>
			<point x="259.36" y="220.2" type="curve" smooth="yes"/>
			<point x="204.68" y="220.2"/>
			<point x="156.24" y="270.44"/>
			<point x="156.24" y="329.12" type="curve" smooth="yes"/>
			<point x="156.24" y="367.36"/>
			<point x="166.4" y="406.08"/>
			<point x="272.12" y="474.04" type="curve" smooth="yes"/>
			<point x="333.8" y="513.56"/>
			<point x="343.68" y="533.48"/>
			<point x="343.68" y="561.88" type="curve" smooth="yes"/>
			<point x="343.68" y="601.2"/>
			<point x="312" y="623.44"/>
			<point x="231.04" y="623.44" type="curve" smooth="yes"/>
			<point x="140.4" y="623.44"/>
			<point x="106.48" y="589.44"/>
			<point x="69.84" y="589.44" type="curve" smooth="yes"/>
			<point x="42.56" y="589.44"/>
			<point x="22.12" y="607.8"/>
			<point x="22.12" y="637.16" type="curve" smooth="yes"/>
			<point x="22.12" y="656.16"/>
			<point x="31.64" y="671.8"/>
		</contour>
		<contour>
			<point x="251.68" y="-10.84" type="curve" smooth="yes"/>
			<point x="295.52" y="-10.84"/>
			<point x="314.84" y="16.56"/>
			<point x="314.84" y="48.28" type="curve" smooth="yes"/>
			<point x="314.84" y="88.92"/>
			<point x="289.08" y="127.56"/>
			<point x="227.24" y="127.56" type="curve" smooth="yes"/>
			<point x="192.96" y="127.56"/>
			<point x="166.32" y="103.6"/>
			<point x="166.32" y="65.2" type="curve" smooth="yes"/>
			<point x="166.32" y="16.84"/>
			<point x="202.56" y="-10.84"/>
		</contour>
	</outline>
</glyph>
<glyph name="at" format="2">
	<unicode hex="0040"/>
	<advance width="869"/>
	<outline>
		<contour>
			<point x="508.08" y="327" type="curve" smooth="yes"/>
			<point x="423.88" y="316.16"/>
			<point x="376.24" y="265.2"/>
			<point x="376.24" y="215.36" type="curve" smooth="yes"/>
			<point x="376.24" y="199.52"/>
			<point x="378.2" y="183.52"/>
			<point x="394.36" y="151.36" type="curve"/>
			<point x="332.84" y="210.04" type="line"/>
			<point x="365.2" y="191"/>
			<point x="380.04" y="188"/>
			<point x="393.72" y="188" type="curve" smooth="yes"/>
			<point x="419.8" y="188"/>
			<point x="432.12" y="203.16"/>
			<point x="451.8" y="243.4" type="curve" smooth="yes"/>
			<point x="479.64" y="304.16"/>
			<point x="505" y="319.08"/>
			<point x="539.72" y="319.08" type="curve" smooth="yes"/>
			<point x="570.4" y="319.08"/>
			<point x="598.5097643911" y="306.7251392768"/>
			<point x="622.68" y="258.96" type="curve" smooth="yes"/>
			<point x="651.5711896966" y="202.837839249"/>
			<point x="656.4951351351" y="200.72"/>
			<point x="672.4" y="200.72" type="curve" smooth="yes"/>
			<point x="703.32" y="200.72"/>
			<point x="712.8" y="246.88"/>
			<point x="712.8" y="283.84" type="curve" smooth="yes"/>
			<point x="712.8" y="392.3023529412"/>
			<point x="643.64" y="549.48"/>
			<point x="474.68" y="549.48" type="curve" smooth="yes"/>
			<point x="310.8" y="549.48"/>
			<point x="156.48" y="393.4"/>
			<point x="156.48" y="235.76" type="curve" smooth="yes"/>
			<point x="156.48" y="59.56"/>
			<point x="306.88" y="-25.88"/>
			<point x="466.04" y="-25.88" type="curve" smooth="yes"/>
			<point x="641.48" y="-25.88"/>
			<point x="665.08" y="24.36"/>
			<point x="702.2" y="24.36" type="curve" smooth="yes"/>
			<point x="730.72" y="24.36"/>
			<point x="745.16" y="4.08"/>
			<point x="745.16" y="-23.2" type="curve" smooth="yes"/>
			<point x="745.16" y="-43.52"/>
			<point x="734.52" y="-61.84"/>
			<point x="710.2" y="-76.12" type="curve" smooth="yes"/>
			<point x="662.52" y="-104.56"/>
			<point x="597.12" y="-122.16"/>
			<point x="466.04" y="-122.16" type="curve" smooth="yes"/>
			<point x="247.52" y="-122.16"/>
			<point x="60.2" y="4"/>
			<point x="60.2" y="235.76" type="curve"/>
			<point x="60.2" y="440.28"/>
			<point x="259.12" y="646.04"/>
			<point x="474.68" y="646.04" type="curve" smooth="yes"/>
			<point x="712.04" y="646.04"/>
			<point x="809.08" y="428.4305882353"/>
			<point x="809.08" y="283.84" type="curve" smooth="yes"/>
			<point x="809.08" y="155.64"/>
			<point x="743.56" y="104.44"/>
			<point x="678.28" y="104.44" type="curve" smooth="yes"/>
			<point x="584.997037037" y="104.44"/>
			<point x="582.6847590127" y="192.9189156962"/>
			<point x="518.12" y="241.44" type="curve"/>
			<point x="550.96" y="240.6" type="line"/>
			<point x="515.8" y="194.64"/>
			<point x="498.76" y="98.48"/>
			<point x="401.32" y="98.48" type="curve" smooth="yes"/>
			<point x="336.88" y="98.48"/>
			<point x="284.16" y="136.32"/>
			<point x="284.16" y="221.52" type="curve" smooth="yes"/>
			<point x="284.16" y="329.32"/>
			<point x="400.36" y="422.16"/>
			<point x="497.52" y="422.16" type="curve" smooth="yes"/>
			<point x="528.32" y="422.16"/>
			<point x="545.8" y="403.16"/>
			<point x="545.8" y="376.32" type="curve" smooth="yes"/>
			<point x="545.8" y="352.12"/>
			<point x="531.28" y="331.8"/>
		</contour>
	</outline>
</glyph>
<glyph name="A" format="2">
	<unicode hex="0041"/>
	<advance width="732"/>
	<outline>
		<contour>
			<point x="625.16" y="-9.56" type="curve" smooth="yes"/>
			<point x="647.07875" y="-9.56"/>
			<point x="660.2" y="3.24"/>
			<point x="660.2" y="26.84" type="curve" smooth="yes"/>
			<point x="660.2" y="82.2"/>
			<point x="598.68" y="168.92"/>
			<point x="574.08" y="390" type="curve" smooth="yes"/>
			<point x="549.4" y="615.64"/>
			<point x="530.6" y="714.48"/>
			<point x="411.4" y="714.48" type="curve" smooth="yes"/>
			<point x="337.5616393443" y="714.48"/>
			<point x="275.8" y="651.4"/>
			<point x="215.16" y="528.52" type="curve"/>
			<point x="255.92" y="540.56" type="line"/>
			<point x="237.3768297732" y="563.4188631659"/>
			<point x="220.8117431193" y="575.44"/>
			<point x="201.2" y="575.44" type="curve"/>
			<point x="180.16" y="575.44"/>
			<point x="169.48" y="560.88"/>
			<point x="169.48" y="538.76" type="curve" smooth="yes"/>
			<point x="169.48" y="379.3387096774"/>
			<point x="89.08" y="229.7470967742"/>
			<point x="89.08" y="72.88" type="curve" smooth="yes"/>
			<point x="89.08" y="17.28"/>
			<point x="114.2517647059" y="-8"/>
			<point x="142.24" y="-8" type="curve" smooth="yes"/>
			<point x="164.52" y="-8.56"/>
			<point x="174.88" y="6.4"/>
			<point x="178.44" y="33.96" type="curve" smooth="yes"/>
			<point x="226.52" y="386.04"/>
			<point x="336.76" y="619.24"/>
			<point x="409.16" y="619.24" type="curve" smooth="yes"/>
			<point x="452.36" y="619.24"/>
			<point x="458.92" y="561.56"/>
			<point x="477.92" y="387.8" type="curve" smooth="yes"/>
			<point x="490.2" y="279.36"/>
			<point x="516.16" y="145.24"/>
			<point x="549.4" y="71.68" type="curve" smooth="yes"/>
			<point x="574.6579187693" y="12.5627749743"/>
			<point x="591.8355555556" y="-9.56"/>
		</contour>
		<contour>
			<point x="87.92" y="184.48" type="curve" smooth="yes"/>
			<point x="188.6" y="185.36"/>
			<point x="292.16" y="245.52"/>
			<point x="611.48" y="245.52" type="curve" smooth="yes"/>
			<point x="656" y="245.52"/>
			<point x="693.84" y="272.52"/>
			<point x="693.84" y="304.96" type="curve" smooth="yes"/>
			<point x="693.84" y="334.08"/>
			<point x="685.76" y="341.76"/>
			<point x="616.28" y="341.76" type="curve" smooth="yes"/>
			<point x="403.96" y="341.76"/>
			<point x="213.36" y="317.88"/>
			<point x="66.4" y="260.32" type="curve" smooth="yes"/>
			<point x="43.84" y="251.32"/>
			<point x="36.16" y="241.2"/>
			<point x="36.16" y="224.96" type="curve" smooth="yes"/>
			<point x="36.16" y="204.64"/>
			<point x="62.04" y="184.48"/>
		</contour>
	</outline>
</glyph>
<glyph name="B" format="2">
	<unicode hex="0042"/>
	<advance width="594"/>
	<outline>
		<contour>
			<point x="169.68" y="334.04" type="curve" smooth="yes"/>
			<point x="172.56" y="420.68"/>
			<point x="176" y="474.72"/>
			<point x="193.8" y="579.64" type="curve" smooth="yes"/>
			<point x="201.68" y="623.2"/>
			<point x="176.64" y="659.96"/>
			<point x="148.84" y="659.96" type="curve" smooth="yes"/>
			<point x="127" y="659.96"/>
			<point x="114.16" y="651.16"/>
			<point x="108.76" y="626.52" type="curve" smooth="yes"/>
			<point x="82.6" y="497.68"/>
			<point x="73.72" y="438"/>
			<point x="73.72" y="331" type="curve" smooth="yes"/>
			<point x="73.72" y="151.28"/>
			<point x="138.64" y="-10"/>
			<point x="246.92" y="-10" type="curve" smooth="yes"/>
			<point x="366.5104895105" y="-10"/>
			<point x="524.12" y="82.52"/>
			<point x="524.12" y="201.12" type="curve" smooth="yes"/>
			<point x="524.12" y="265.96"/>
			<point x="469.64" y="339.68"/>
			<point x="269.76" y="360" type="curve"/>
			<point x="273" y="328.76" type="line"/>
			<point x="484.44" y="386"/>
			<point x="550.12" y="464.44"/>
			<point x="550.12" y="525" type="curve" smooth="yes"/>
			<point x="550.12" y="659.36"/>
			<point x="380.448627451" y="712"/>
			<point x="168.08" y="712" type="curve" smooth="yes"/>
			<point x="82.9539884393" y="712"/>
			<point x="42.84" y="688.16"/>
			<point x="42.84" y="647.32" type="curve" smooth="yes"/>
			<point x="42.84" y="626.32"/>
			<point x="58.36" y="610.4"/>
			<point x="81.64" y="610.4" type="curve" smooth="yes"/>
			<point x="102.36" y="610.4"/>
			<point x="152.8" y="611.52"/>
			<point x="200.24" y="611.52" type="curve" smooth="yes"/>
			<point x="341.9127868853" y="611.52"/>
			<point x="449.32" y="578.16"/>
			<point x="449.32" y="519" type="curve" smooth="yes"/>
			<point x="449.32" y="470.04"/>
			<point x="290.466352128" y="406.596100608"/>
			<point x="180.6" y="382.92" type="curve" smooth="yes"/>
			<point x="128.64" y="371.88"/>
			<point x="109.92" y="359"/>
			<point x="109.92" y="336" type="curve" smooth="yes"/>
			<point x="109.92" y="299.96"/>
			<point x="135.92" y="285.12"/>
			<point x="172.92" y="286.12" type="curve" smooth="yes"/>
			<point x="312.9201478894" y="288.4883755323"/>
			<point x="426.12" y="238.24"/>
			<point x="426.12" y="198.24" type="curve" smooth="yes"/>
			<point x="426.12" y="152.68"/>
			<point x="326.3147663551" y="87.56"/>
			<point x="255.2" y="87.56" type="curve" smooth="yes"/>
			<point x="213.68" y="87.56"/>
			<point x="164.64" y="193.92"/>
		</contour>
	</outline>
</glyph>
<glyph name="C" format="2">
	<unicode hex="0043"/>
	<advance width="647"/>
	<outline>
		<contour>
			<point x="341.08" y="-10" type="curve" smooth="yes"/>
			<point x="514.8809160305" y="-10"/>
			<point x="597" y="82.5872727272"/>
			<point x="597" y="146.56" type="curve" smooth="yes"/>
			<point x="597" y="170.72"/>
			<point x="587.2" y="190.2"/>
			<point x="570.28" y="190.2" type="curve" smooth="yes"/>
			<point x="535.12" y="190.2"/>
			<point x="502.2577777778" y="83.56"/>
			<point x="343.44" y="83.56" type="curve" smooth="yes"/>
			<point x="228.7218461538" y="83.56"/>
			<point x="155.52" y="154.8"/>
			<point x="155.52" y="284.08" type="curve" smooth="yes"/>
			<point x="155.52" y="449.44"/>
			<point x="265.8829197081" y="611.84"/>
			<point x="422.16" y="611.84" type="curve" smooth="yes"/>
			<point x="473.36" y="611.84"/>
			<point x="480.52" y="589.72"/>
			<point x="480.52" y="564.8" type="curve" smooth="yes"/>
			<point x="480.52" y="536.16"/>
			<point x="478.84" y="511.8"/>
			<point x="506.88" y="511.8" type="curve" smooth="yes"/>
			<point x="546.68" y="511.8"/>
			<point x="569.52" y="555.28"/>
			<point x="569.52" y="598.92" type="curve" smooth="yes"/>
			<point x="569.52" y="666.68"/>
			<point x="532.24" y="711"/>
			<point x="435.08" y="711" type="curve" smooth="yes"/>
			<point x="221.12" y="711"/>
			<point x="58.28" y="506"/>
			<point x="58.28" y="289" type="curve" smooth="yes"/>
			<point x="58.28" y="119.32"/>
			<point x="145" y="-10"/>
		</contour>
	</outline>
</glyph>
<glyph name="D" format="2">
	<unicode hex="0044"/>
	<advance width="663"/>
	<outline>
		<contour>
			<point x="210.44" y="-10" type="curve" smooth="yes"/>
			<point x="390.88" y="-10"/>
			<point x="613.92" y="196.56"/>
			<point x="613.92" y="459.12" type="curve" smooth="yes"/>
			<point x="613.92" y="613.08"/>
			<point x="524.64" y="709"/>
			<point x="368.44" y="709" type="curve" smooth="yes"/>
			<point x="238.1393548387" y="709"/>
			<point x="92.2566291456" y="660.5990471557"/>
			<point x="42.64" y="629.96" type="curve" smooth="yes"/>
			<point x="29.64" y="621.28"/>
			<point x="22.6" y="610.12"/>
			<point x="22.6" y="596.72" type="curve" smooth="yes"/>
			<point x="22.6" y="571.12"/>
			<point x="47.72" y="550.76"/>
			<point x="83.44" y="550.76" type="curve" smooth="yes"/>
			<point x="150.7332806324" y="550.76"/>
			<point x="211.5143083004" y="612.64"/>
			<point x="358.04" y="612.64" type="curve" smooth="yes"/>
			<point x="478.12" y="612.64"/>
			<point x="517.12" y="555.68"/>
			<point x="517.12" y="455.44" type="curve" smooth="yes"/>
			<point x="517.12" y="241.92"/>
			<point x="352.32" y="100.56"/>
			<point x="161.2" y="74.44" type="curve"/>
			<point x="205.04" y="55.72" type="line"/>
			<point x="196.72" y="97.44"/>
			<point x="194.16" y="131.88"/>
			<point x="194.16" y="163.52" type="curve" smooth="yes"/>
			<point x="194.16" y="334.84"/>
			<point x="214.24" y="467.52"/>
			<point x="214.24" y="565.08" type="curve" smooth="yes"/>
			<point x="214.24" y="595"/>
			<point x="194.96" y="619.8"/>
			<point x="171.44" y="619.8" type="curve" smooth="yes"/>
			<point x="139.96" y="619.8"/>
			<point x="126.76" y="604.96"/>
			<point x="122.32" y="565.12" type="curve" smooth="yes"/>
			<point x="106.84" y="426.56"/>
			<point x="98.24" y="294.08"/>
			<point x="98.24" y="116.4" type="curve" smooth="yes"/>
			<point x="98.24" y="54.2"/>
			<point x="145.72" y="-10"/>
		</contour>
	</outline>
</glyph>
<glyph name="E" format="2">
	<unicode hex="0045"/>
	<advance width="674"/>
	<outline>
		<contour>
			<point x="134.16" y="556.12" type="curve" smooth="yes"/>
			<point x="96.32" y="481.64"/>
			<point x="68.28" y="381.8"/>
			<point x="68.28" y="293" type="curve" smooth="yes"/>
			<point x="68.28" y="122.08"/>
			<point x="171.64" y="-7"/>
			<point x="361.28" y="-7" type="curve" smooth="yes"/>
			<point x="546.48" y="-7"/>
			<point x="633.76" y="45.72"/>
			<point x="633.76" y="97.24" type="curve" smooth="yes"/>
			<point x="633.76" y="119.4"/>
			<point x="625.8" y="134.76"/>
			<point x="598.84" y="134.76" type="curve" smooth="yes"/>
			<point x="570.52" y="134.76"/>
			<point x="517.84" y="88.8"/>
			<point x="358.4" y="88.8" type="curve" smooth="yes"/>
			<point x="241.92" y="88.8"/>
			<point x="165.8" y="172.32"/>
			<point x="166.52" y="293.88" type="curve" smooth="yes"/>
			<point x="167.24" y="401.28"/>
			<point x="205.64" y="508.64"/>
			<point x="251" y="585.2" type="curve" smooth="yes"/>
			<point x="267.56" y="620.44"/>
			<point x="248.04" y="634.8"/>
			<point x="222.32" y="634.8" type="curve" smooth="yes"/>
			<point x="185" y="634.8"/>
			<point x="156.08" y="600.04"/>
		</contour>
		<contour>
			<point x="168.16" y="268.12" type="curve" smooth="yes"/>
			<point x="237.16" y="284.12"/>
			<point x="353.36" y="300"/>
			<point x="457.12" y="306.56" type="curve" smooth="yes"/>
			<point x="500.16" y="309.12"/>
			<point x="536.84" y="324.96"/>
			<point x="536.84" y="365.04" type="curve" smooth="yes"/>
			<point x="536.84" y="391.68"/>
			<point x="525.16" y="402.24"/>
			<point x="479.64" y="402.24" type="curve" smooth="yes"/>
			<point x="395.8" y="400.12"/>
			<point x="269.4" y="384.68"/>
			<point x="177.04" y="368.24" type="curve" smooth="yes"/>
			<point x="135.72" y="360.68"/>
			<point x="110.6" y="339.52"/>
			<point x="110.6" y="314.8" type="curve" smooth="yes"/>
			<point x="110.6" y="286.28"/>
			<point x="124.04" y="258.12"/>
		</contour>
		<contour>
			<point x="142.84" y="584.08" type="curve" smooth="yes"/>
			<point x="217.24" y="584.08"/>
			<point x="326.04" y="615.56"/>
			<point x="582.08" y="615.56" type="curve" smooth="yes"/>
			<point x="614.52" y="615.56"/>
			<point x="625.96" y="634.24"/>
			<point x="625.96" y="658.92" type="curve" smooth="yes"/>
			<point x="625.96" y="686.92"/>
			<point x="600.28" y="709.12"/>
			<point x="555.52" y="709.12" type="curve" smooth="yes"/>
			<point x="439.28" y="709.12"/>
			<point x="247.84" y="698.72"/>
			<point x="107.56" y="669.28" type="curve" smooth="yes"/>
			<point x="84.36" y="663.32"/>
			<point x="76.64" y="646.48"/>
			<point x="76.64" y="631.56" type="curve" smooth="yes"/>
			<point x="76.64" y="604.32"/>
			<point x="99.32" y="584.08"/>
		</contour>
	</outline>
</glyph>
<glyph name="F" format="2">
	<unicode hex="0046"/>
	<advance width="572"/>
	<outline>
		<contour>
			<point x="190.72" y="270" type="curve" smooth="yes"/>
			<point x="188.56" y="381.2"/>
			<point x="213.52" y="514"/>
			<point x="225.76" y="588.04" type="curve" smooth="yes"/>
			<point x="228.64" y="616.88"/>
			<point x="222.88" y="631.28"/>
			<point x="195.64" y="631.28" type="curve" smooth="yes"/>
			<point x="159.64" y="631.28"/>
			<point x="137.44" y="610.44"/>
			<point x="124.16" y="547.36" type="curve" smooth="yes"/>
			<point x="106.4" y="466.76"/>
			<point x="93.04" y="377.4"/>
			<point x="93.04" y="294" type="curve" smooth="yes"/>
			<point x="93.04" y="175"/>
			<point x="110.16" y="109.16"/>
			<point x="137.96" y="59.08" type="curve" smooth="yes"/>
			<point x="166.88" y="6.32"/>
			<point x="193.2" y="-10"/>
			<point x="222.56" y="-10" type="curve" smooth="yes"/>
			<point x="246.84" y="-10"/>
			<point x="256.96" y="4"/>
			<point x="256.96" y="25.92" type="curve" smooth="yes"/>
			<point x="256.96" y="63.8"/>
			<point x="194.32" y="100.48"/>
		</contour>
		<contour>
			<point x="486.84" y="615.2" type="curve" smooth="yes"/>
			<point x="519.84" y="615.2"/>
			<point x="530.84" y="625.44"/>
			<point x="530.84" y="648.6" type="curve" smooth="yes"/>
			<point x="530.84" y="685.48"/>
			<point x="496.96" y="709.88"/>
			<point x="447.44" y="711" type="curve" smooth="yes"/>
			<point x="328.44" y="712.68"/>
			<point x="166.6" y="689.96"/>
			<point x="69.6" y="668.28" type="curve" smooth="yes"/>
			<point x="44.12" y="662.16"/>
			<point x="35.44" y="646.24"/>
			<point x="35.44" y="628.56" type="curve" smooth="yes"/>
			<point x="35.44" y="604.16"/>
			<point x="59.28" y="579.28"/>
			<point x="104.44" y="579.28" type="curve" smooth="yes"/>
			<point x="148.44" y="579.28"/>
			<point x="274.56" y="615.2"/>
		</contour>
		<contour>
			<point x="194.88" y="268.84" type="curve" smooth="yes"/>
			<point x="246.88" y="279.96"/>
			<point x="308.76" y="286.72"/>
			<point x="399.76" y="292.88" type="curve" smooth="yes"/>
			<point x="459.72" y="297.32"/>
			<point x="496.04" y="314.88"/>
			<point x="496.04" y="356.6" type="curve"/>
			<point x="496.04" y="381.64"/>
			<point x="483.48" y="388.44"/>
			<point x="437.32" y="388.44" type="curve" smooth="yes"/>
			<point x="352.8" y="386.32"/>
			<point x="254" y="377.04"/>
			<point x="178" y="364.08" type="curve" smooth="yes"/>
			<point x="137.12" y="356.96"/>
			<point x="117.72" y="334.76"/>
			<point x="117.72" y="304.72" type="curve" smooth="yes"/>
			<point x="117.72" y="284.64"/>
			<point x="132.6" y="255.72"/>
		</contour>
	</outline>
</glyph>
<glyph name="G" format="2">
	<unicode hex="0047"/>
	<advance width="769"/>
	<outline>
		<contour>
			<point x="375.96" y="265.44" type="curve" smooth="yes"/>
			<point x="425.92" y="265.44"/>
			<point x="509.52" y="303.24"/>
			<point x="684.32" y="303.24" type="curve" smooth="yes"/>
			<point x="723.68" y="303.24"/>
			<point x="740.88" y="327.2"/>
			<point x="740.88" y="351.56" type="curve" smooth="yes"/>
			<point x="740.88" y="379.28"/>
			<point x="728.36" y="397.96"/>
			<point x="665.2" y="397.96" type="curve" smooth="yes"/>
			<point x="570.52" y="397.4"/>
			<point x="479.08" y="382.4"/>
			<point x="389" y="359.84" type="curve" smooth="yes"/>
			<point x="339" y="347.28"/>
			<point x="326" y="332"/>
			<point x="326" y="310.68" type="curve" smooth="yes"/>
			<point x="326" y="284.44"/>
			<point x="344.96" y="265.44"/>
		</contour>
		<contour>
			<point x="675.76" y="-100.36" type="curve" smooth="yes"/>
			<point x="693.56" y="-100.36"/>
			<point x="710.96" y="-88.84"/>
			<point x="710.96" y="-66.84" type="curve"/>
			<point x="710.96" y="-49.6"/>
			<point x="706.96" y="-34.84"/>
			<point x="689.28" y="4.96" type="curve" smooth="yes"/>
			<point x="656.28" y="76.28"/>
			<point x="636.92" y="164.28"/>
			<point x="636.92" y="294.76" type="curve" smooth="yes"/>
			<point x="636.92" y="328.16"/>
			<point x="619.16" y="348"/>
			<point x="588.92" y="348" type="curve" smooth="yes"/>
			<point x="553.28" y="348"/>
			<point x="537.84" y="335.72"/>
			<point x="520.76" y="300.32" type="curve" smooth="yes"/>
			<point x="456.04" y="158.56"/>
			<point x="379.92" y="86.36"/>
			<point x="285.2" y="86.36" type="curve" smooth="yes"/>
			<point x="212.04" y="86.36"/>
			<point x="161.28" y="138.12"/>
			<point x="161.28" y="241.76" type="curve" smooth="yes"/>
			<point x="161.28" y="412.24"/>
			<point x="329.16" y="606.16"/>
			<point x="481.72" y="606.16" type="curve" smooth="yes"/>
			<point x="504.32" y="606.16"/>
			<point x="511.04" y="597.16"/>
			<point x="511.04" y="584.44" type="curve" smooth="yes"/>
			<point x="511.04" y="559.36"/>
			<point x="500.76" y="519"/>
			<point x="531.64" y="519" type="curve" smooth="yes"/>
			<point x="571.96" y="519"/>
			<point x="604.12" y="564.0461538462"/>
			<point x="604.12" y="628.12" type="curve" smooth="yes"/>
			<point x="604.12" y="672.04"/>
			<point x="574.32" y="708"/>
			<point x="500.6" y="708" type="curve" smooth="yes"/>
			<point x="285.2" y="708"/>
			<point x="59.4" y="480.44"/>
			<point x="59.4" y="237.72" type="curve" smooth="yes"/>
			<point x="59.4" y="72.16"/>
			<point x="150.96" y="-10"/>
			<point x="282.6" y="-10" type="curve" smooth="yes"/>
			<point x="388.56" y="-10"/>
			<point x="495.16" y="45.24"/>
			<point x="572.36" y="242.4" type="curve"/>
			<point x="544.2" y="244.96" type="line"/>
			<point x="551.28" y="83.56"/>
			<point x="580.84" y="-4.52"/>
			<point x="601.68" y="-45.24" type="curve" smooth="yes"/>
			<point x="621.2" y="-84.08"/>
			<point x="642.36" y="-100.36"/>
		</contour>
	</outline>
</glyph>
<glyph name="H" format="2">
	<unicode hex="0048"/>
	<advance width="720"/>
	<outline>
		<contour>
			<point x="173.64" y="-12" type="curve" smooth="yes"/>
			<point x="195.48" y="-12"/>
			<point x="212.64" y="6.04"/>
			<point x="212.64" y="27.2" type="curve" smooth="yes"/>
			<point x="212.64" y="175.4"/>
			<point x="212.04" y="390.48"/>
			<point x="212.04" y="610" type="curve" smooth="yes"/>
			<point x="212.04" y="677"/>
			<point x="183.56" y="709"/>
			<point x="151.76" y="709" type="curve" smooth="yes"/>
			<point x="121.56" y="709"/>
			<point x="108.08" y="695.76"/>
			<point x="108.08" y="662.8" type="curve" smooth="yes"/>
			<point x="108.08" y="428.24"/>
			<point x="114.84" y="260.68"/>
			<point x="112.6" y="87.32" type="curve" smooth="yes"/>
			<point x="111.48" y="24"/>
			<point x="144.68" y="-12"/>
		</contour>
		<contour>
			<point x="589.76" y="-10" type="curve" smooth="yes"/>
			<point x="609.88" y="-10"/>
			<point x="623.56" y="8.92"/>
			<point x="619.24" y="36.36" type="curve" smooth="yes"/>
			<point x="609.88" y="116.2"/>
			<point x="601.24" y="176"/>
			<point x="600.24" y="233" type="curve" smooth="yes"/>
			<point x="599.24" y="327.52"/>
			<point x="606.24" y="476.8"/>
			<point x="606.24" y="597.2" type="curve" smooth="yes"/>
			<point x="606.24" y="667.24"/>
			<point x="579.96" y="704"/>
			<point x="548.2" y="704" type="curve" smooth="yes"/>
			<point x="527.88" y="704"/>
			<point x="509.56" y="691.32"/>
			<point x="509.56" y="662.4" type="curve" smooth="yes"/>
			<point x="509.56" y="575.4"/>
			<point x="500.32" y="444.4"/>
			<point x="500.32" y="305.4" type="curve" smooth="yes"/>
			<point x="500.32" y="77.08"/>
			<point x="522.56" y="-10"/>
		</contour>
		<contour>
			<point x="142.64" y="301.92" type="curve" smooth="yes"/>
			<point x="209.4" y="301.92"/>
			<point x="317.76" y="331.92"/>
			<point x="617.84" y="331.92" type="curve" smooth="yes"/>
			<point x="649.56" y="331.92"/>
			<point x="668.28" y="345.72"/>
			<point x="668.28" y="367.92" type="curve" smooth="yes"/>
			<point x="668.28" y="388.76"/>
			<point x="640.4" y="422.92"/>
			<point x="562.44" y="422.92" type="curve" smooth="yes"/>
			<point x="401.64" y="422.92"/>
			<point x="248.8" y="413"/>
			<point x="84.2" y="385.56" type="curve" smooth="yes"/>
			<point x="58.36" y="381.16"/>
			<point x="51.64" y="366.44"/>
			<point x="51.64" y="352.36" type="curve" smooth="yes"/>
			<point x="51.64" y="327.56"/>
			<point x="83.72" y="301.92"/>
		</contour>
	</outline>
</glyph>
<glyph name="I" format="2">
	<unicode hex="0049"/>
	<advance width="608"/>
	<outline>
		<contour>
			<point x="102.4" y="-11" type="curve" smooth="yes"/>
			<point x="166.2725581396" y="-11"/>
			<point x="314.2886455332" y="0"/>
			<point x="493.4" y="0" type="curve" smooth="yes"/>
			<point x="559.0021621622" y="0"/>
			<point x="586.8" y="25.6123076923"/>
			<point x="586.8" y="56.24" type="curve" smooth="yes"/>
			<point x="586.8" y="77.4"/>
			<point x="573.88" y="93.44"/>
			<point x="518.4" y="93.44" type="curve" smooth="yes"/>
			<point x="342.36" y="93.44"/>
			<point x="211.32" y="97.32"/>
			<point x="62.08" y="77.56" type="curve" smooth="yes"/>
			<point x="36.16" y="74.44"/>
			<point x="25.8" y="58.96"/>
			<point x="25.8" y="39.04" type="curve" smooth="yes"/>
			<point x="25.8" y="9.688"/>
			<point x="47.9774757282" y="-11"/>
		</contour>
		<contour>
			<point x="80.28" y="585" type="curve" smooth="yes"/>
			<point x="167.52" y="585"/>
			<point x="217.28" y="608.76"/>
			<point x="463.6" y="608.76" type="curve" smooth="yes"/>
			<point x="528.4" y="608.76"/>
			<point x="571.8" y="632.04"/>
			<point x="571.8" y="669.56" type="curve" smooth="yes"/>
			<point x="571.8" y="698.88"/>
			<point x="556.76" y="706.4"/>
			<point x="507.24" y="706.4" type="curve" smooth="yes"/>
			<point x="363.64" y="706.4"/>
			<point x="191.52" y="695.24"/>
			<point x="78.84" y="676.96" type="curve" smooth="yes"/>
			<point x="42.24" y="670.68"/>
			<point x="26.12" y="651.32"/>
			<point x="26.12" y="630.08" type="curve" smooth="yes"/>
			<point x="26.12" y="603.68"/>
			<point x="44.48" y="585"/>
		</contour>
		<contour>
			<point x="311.36" y="62.4" type="curve" smooth="yes"/>
			<point x="333.64" y="62.4"/>
			<point x="346.56" y="75.32"/>
			<point x="346.56" y="102.6" type="curve" smooth="yes"/>
			<point x="346.56" y="311.16"/>
			<point x="363.56" y="479.48"/>
			<point x="363.56" y="567" type="curve" smooth="yes"/>
			<point x="363.56" y="609.08"/>
			<point x="336.4" y="642.6"/>
			<point x="303.08" y="642.6" type="curve" smooth="yes"/>
			<point x="275.12" y="642.6"/>
			<point x="266.32" y="624.96"/>
			<point x="266.32" y="590.4" type="curve" smooth="yes"/>
			<point x="266.32" y="470.24"/>
			<point x="249.88" y="305.68"/>
			<point x="249.88" y="139.4" type="curve" smooth="yes"/>
			<point x="249.88" y="92.4"/>
			<point x="274.0347826087" y="62.4"/>
		</contour>
	</outline>
</glyph>
<glyph name="J" format="2">
	<unicode hex="004A"/>
	<advance width="604"/>
	<outline>
		<contour>
			<point x="284.32" y="-12" type="curve" smooth="yes"/>
			<point x="445.52" y="-12"/>
			<point x="532.12" y="55.04"/>
			<point x="532.12" y="202.8" type="curve" smooth="yes"/>
			<point x="532.12" y="310.08"/>
			<point x="490.96" y="497.68"/>
			<point x="447.88" y="613.32" type="curve" smooth="yes"/>
			<point x="431.08" y="660.32"/>
			<point x="408.8" y="675.44"/>
			<point x="363.32" y="676" type="curve" smooth="yes"/>
			<point x="335.08" y="676"/>
			<point x="328.68" y="644"/>
			<point x="341.24" y="612.76" type="curve" smooth="yes"/>
			<point x="387.44" y="501.04"/>
			<point x="433.32" y="312.8"/>
			<point x="433.32" y="214.4" type="curve" smooth="yes"/>
			<point x="433.32" y="124.44"/>
			<point x="396.68" y="83.24"/>
			<point x="284.32" y="83.24" type="curve" smooth="yes"/>
			<point x="195.92" y="83.24"/>
			<point x="160.8" y="123.96"/>
			<point x="160.8" y="181.68" type="curve" smooth="yes"/>
			<point x="160.8" y="221.76"/>
			<point x="191.12" y="239.28"/>
			<point x="191.12" y="266.68" type="curve" smooth="yes"/>
			<point x="191.12" y="285.76"/>
			<point x="180.6" y="294.72"/>
			<point x="161.28" y="294.72" type="curve" smooth="yes"/>
			<point x="109.56" y="294.72"/>
			<point x="64.52" y="224.08"/>
			<point x="64.52" y="163.8" type="curve" smooth="yes"/>
			<point x="64.52" y="54.12"/>
			<point x="154.24" y="-12"/>
		</contour>
		<contour>
			<point x="166.56" y="603.76" type="curve" smooth="yes"/>
			<point x="246.56" y="603.76"/>
			<point x="372.84" y="617.44"/>
			<point x="503.12" y="617.44" type="curve" smooth="yes"/>
			<point x="539.76" y="617.44"/>
			<point x="558.72" y="631.24"/>
			<point x="558.72" y="655.84" type="curve" smooth="yes"/>
			<point x="558.72" y="701.64"/>
			<point x="516.8" y="712"/>
			<point x="479.12" y="712" type="curve" smooth="yes"/>
			<point x="346" y="712"/>
			<point x="278.44" y="700"/>
			<point x="182.68" y="700" type="curve" smooth="yes"/>
			<point x="141.68" y="700"/>
			<point x="126.16" y="713"/>
			<point x="93" y="713" type="curve" smooth="yes"/>
			<point x="71.08" y="713"/>
			<point x="58.84" y="699.64"/>
			<point x="58.84" y="678.6" type="curve" smooth="yes"/>
			<point x="58.84" y="624.36"/>
			<point x="122.16" y="603.76"/>
		</contour>
	</outline>
</glyph>
<glyph name="K" format="2">
	<unicode hex="004B"/>
	<advance width="667"/>
	<outline>
		<contour>
			<point x="150.12" y="-11" type="curve" smooth="yes"/>
			<point x="170.6" y="-11"/>
			<point x="183.4" y="2.24"/>
			<point x="183.4" y="24.6" type="curve" smooth="yes"/>
			<point x="183.4" y="76.92"/>
			<point x="171.4" y="84.12"/>
			<point x="171.4" y="216.04" type="curve" smooth="yes"/>
			<point x="171.4" y="332"/>
			<point x="195.84" y="467"/>
			<point x="195.84" y="552" type="curve" smooth="yes"/>
			<point x="195.84" y="617"/>
			<point x="187.32" y="710"/>
			<point x="123.12" y="710" type="curve" smooth="yes"/>
			<point x="100" y="710"/>
			<point x="87.16" y="696.92"/>
			<point x="87.16" y="670.4" type="curve" smooth="yes"/>
			<point x="87.16" y="634.48"/>
			<point x="98.6" y="614.92"/>
			<point x="98.6" y="551.44" type="curve" smooth="yes"/>
			<point x="98.6" y="483.44"/>
			<point x="75.16" y="345.72"/>
			<point x="75.16" y="187" type="curve" smooth="yes"/>
			<point x="75.16" y="41"/>
			<point x="92.92" y="-11"/>
		</contour>
		<contour>
			<point x="589.96" y="-11" type="curve" smooth="yes"/>
			<point x="620.66125" y="-11"/>
			<point x="632.8" y="4.3658823529"/>
			<point x="632.8" y="30.24" type="curve" smooth="yes"/>
			<point x="632.8" y="59.421010101"/>
			<point x="611.52" y="79"/>
			<point x="574.68" y="86.52" type="curve" smooth="yes"/>
			<point x="375.4" y="124.2"/>
			<point x="253.8" y="233.8869565217"/>
			<point x="253.8" y="312.68" type="curve" smooth="yes"/>
			<point x="253.8" y="372.64"/>
			<point x="352.28" y="501.96"/>
			<point x="514.88" y="594.28" type="curve" smooth="yes"/>
			<point x="556.2" y="617.64"/>
			<point x="575.12" y="634.88"/>
			<point x="575.12" y="665.44" type="curve" smooth="yes"/>
			<point x="575.12" y="693.64"/>
			<point x="557.56" y="707.24"/>
			<point x="531.44" y="707.24" type="curve" smooth="yes"/>
			<point x="510.16" y="707.24"/>
			<point x="486.48" y="697.24"/>
			<point x="447.84" y="671.92" type="curve" smooth="yes"/>
			<point x="304.28" y="582.24"/>
			<point x="165.8" y="441.28"/>
			<point x="165.8" y="303.52" type="curve" smooth="yes"/>
			<point x="165.8" y="106.32"/>
			<point x="471.2" y="-11"/>
		</contour>
	</outline>
</glyph>
<glyph name="L" format="2">
	<unicode hex="004C"/>
	<advance width="548"/>
	<outline>
		<contour>
			<point x="287.12" y="-9" type="curve" smooth="yes"/>
			<point x="363.3395708155" y="-9"/>
			<point x="434.9417187515" y="6.1295951712"/>
			<point x="491.16" y="36.96" type="curve" smooth="yes"/>
			<point x="513.2" y="51.12"/>
			<point x="524.76" y="73.56"/>
			<point x="524.76" y="96.84" type="curve" smooth="yes"/>
			<point x="524.76" y="118.16"/>
			<point x="511.4" y="134.88"/>
			<point x="490.2" y="134.88" type="curve" smooth="yes"/>
			<point x="457.8571428571" y="134.88"/>
			<point x="421.92" y="86.24"/>
			<point x="291.24" y="86.24" type="curve" smooth="yes"/>
			<point x="199" y="86.24"/>
			<point x="163.04" y="145.4"/>
			<point x="163.04" y="241.2" type="curve" smooth="yes"/>
			<point x="163.04" y="369.32"/>
			<point x="213.6" y="489.96"/>
			<point x="213.6" y="623.28" type="curve" smooth="yes"/>
			<point x="213.6" y="673.92"/>
			<point x="193.8121739131" y="710"/>
			<point x="154.4" y="710" type="curve" smooth="yes"/>
			<point x="123.1314285714" y="710"/>
			<point x="116.92" y="689.36"/>
			<point x="116.92" y="652.4" type="curve" smooth="yes"/>
			<point x="116.92" y="525.8"/>
			<point x="65.92" y="406.6729471033"/>
			<point x="65.92" y="251" type="curve" smooth="yes"/>
			<point x="65.92" y="83"/>
			<point x="143.5978947368" y="-9"/>
		</contour>
	</outline>
</glyph>
<glyph name="M" format="2">
	<unicode hex="004D"/>
	<advance width="952"/>
	<outline>
		<contour>
			<point x="202.6" y="494.92" type="curve" smooth="yes"/>
			<point x="209.48" y="386.36"/>
			<point x="165.12" y="379.04"/>
			<point x="184.08" y="489.2" type="curve" smooth="yes"/>
			<point x="209.6" y="634.92"/>
			<point x="250.48" y="709"/>
			<point x="305.24" y="709" type="curve" smooth="yes"/>
			<point x="377.2" y="709"/>
			<point x="412.8" y="573.28"/>
			<point x="448" y="289.28" type="curve" smooth="yes"/>
			<point x="453.4" y="250.6"/>
			<point x="461.8" y="181.56"/>
			<point x="491.56" y="113.52" type="curve" smooth="yes"/>
			<point x="507.16" y="79.4"/>
			<point x="435.8" y="72.04"/>
			<point x="464.36" y="128.04" type="curve" smooth="yes"/>
			<point x="528.84" y="246.8"/>
			<point x="556.4" y="454.84"/>
			<point x="598.36" y="564.68" type="curve" smooth="yes"/>
			<point x="633.72" y="657.32"/>
			<point x="666.52" y="706.92"/>
			<point x="711.48" y="706.92" type="curve" smooth="yes"/>
			<point x="757.92" y="706.92"/>
			<point x="819.4" y="668.92"/>
			<point x="828.96" y="452.72" type="curve" smooth="yes"/>
			<point x="834.4" y="323.64"/>
			<point x="859.44" y="173.72"/>
			<point x="900.76" y="59.32" type="curve" smooth="yes"/>
			<point x="915.32" y="16.88"/>
			<point x="903" y="-9"/>
			<point x="871.04" y="-9" type="curve" smooth="yes"/>
			<point x="839.96" y="-9"/>
			<point x="815.64" y="9.12"/>
			<point x="790.28" y="65.84" type="curve" smooth="yes"/>
			<point x="754.52" y="145.88"/>
			<point x="735.64" y="308.44"/>
			<point x="728.96" y="424.28" type="curve" smooth="yes"/>
			<point x="724.68" y="504.48"/>
			<point x="712.8" y="550.32"/>
			<point x="687.24" y="595.32" type="curve" smooth="yes"/>
			<point x="662.52" y="637.8"/>
			<point x="778.92" y="656.64"/>
			<point x="716.72" y="581.28" type="curve" smooth="yes"/>
			<point x="647.64" y="496.16"/>
			<point x="636.08" y="257.08"/>
			<point x="531.52" y="30.32" type="curve" smooth="yes"/>
			<point x="519.68" y="4.12"/>
			<point x="504.4" y="-9"/>
			<point x="480.4" y="-9" type="curve" smooth="yes"/>
			<point x="460.4" y="-9"/>
			<point x="441.8" y="2"/>
			<point x="425.36" y="27.32" type="curve" smooth="yes"/>
			<point x="382.64" y="94.84"/>
			<point x="358.52" y="219.88"/>
			<point x="341.64" y="352.84" type="curve" smooth="yes"/>
			<point x="331.2" y="443.68"/>
			<point x="315.28" y="519.24"/>
			<point x="290.84" y="587.6" type="curve" smooth="yes"/>
			<point x="264.12" y="666.08"/>
			<point x="343.52" y="676.48"/>
			<point x="298.84" y="588.2" type="curve" smooth="yes"/>
			<point x="244.6" y="471.32"/>
			<point x="206" y="270.84"/>
			<point x="206" y="29.76" type="curve" smooth="yes"/>
			<point x="206" y="2"/>
			<point x="189.8" y="-12"/>
			<point x="171.56" y="-12" type="curve" smooth="yes"/>
			<point x="122.4" y="-12"/>
			<point x="100.12" y="43.68"/>
			<point x="100.12" y="167.4" type="curve" smooth="yes"/>
			<point x="100.12" y="268.64"/>
			<point x="109.56" y="342.96"/>
			<point x="109.56" y="417.64" type="curve" smooth="yes"/>
			<point x="109.56" y="551.32"/>
			<point x="81.72" y="588.24"/>
			<point x="81.72" y="624.8" type="curve" smooth="yes"/>
			<point x="81.72" y="642.08"/>
			<point x="91.56" y="654.72"/>
			<point x="113.32" y="654.72" type="curve" smooth="yes"/>
			<point x="165.16" y="654.72"/>
			<point x="198.28" y="582.28"/>
		</contour>
	</outline>
</glyph>
<glyph name="N" format="2">
	<unicode hex="004E"/>
	<advance width="776"/>
	<outline>
		<contour>
			<point x="125.4" y="-10.8" type="curve" smooth="yes"/>
			<point x="151.8" y="-10.8"/>
			<point x="168.72" y="6.88"/>
			<point x="175.84" y="32.36" type="curve" smooth="yes"/>
			<point x="201.6" y="114"/>
			<point x="212.6" y="217"/>
			<point x="212.6" y="342" type="curve" smooth="yes"/>
			<point x="212.6" y="412.16"/>
			<point x="208.44" y="488.4"/>
			<point x="196" y="598.16" type="curve"/>
			<point x="179.4" y="593.6" type="line"/>
			<point x="358.9833734821" y="421.8558820067"/>
			<point x="387.5039603961" y="-11.96"/>
			<point x="575.4" y="-11.96" type="curve" smooth="yes"/>
			<point x="667.96" y="-11.96"/>
			<point x="683.2" y="94.8073282443"/>
			<point x="683.2" y="242" type="curve" smooth="yes"/>
			<point x="683.2" y="391"/>
			<point x="666.52" y="495.36"/>
			<point x="692.52" y="624.36" type="curve" smooth="yes"/>
			<point x="700.0700272039" y="662.9923521965"/>
			<point x="686.1817821782" y="707.8"/>
			<point x="644.72" y="707.8" type="curve" smooth="yes"/>
			<point x="619.1948387097" y="707.8"/>
			<point x="604.3499467831" y="692.6767924542"/>
			<point x="596.48" y="658.6" type="curve" smooth="yes"/>
			<point x="566.68" y="532.12"/>
			<point x="587.44" y="392.32"/>
			<point x="587.44" y="234.2" type="curve" smooth="yes"/>
			<point x="587.44" y="142.4947368421"/>
			<point x="572.76" y="105.2"/>
			<point x="545.44" y="70" type="curve"/>
			<point x="589.72" y="91.52" type="line"/>
			<point x="449.64" y="113.6"/>
			<point x="365.76" y="710"/>
			<point x="156" y="710" type="curve" smooth="yes"/>
			<point x="118.4" y="710"/>
			<point x="98.6" y="678"/>
			<point x="98.6" y="638" type="curve" smooth="yes"/>
			<point x="98.6" y="605"/>
			<point x="114.6" y="457"/>
			<point x="114.6" y="342" type="curve" smooth="yes"/>
			<point x="114.6" y="138.04"/>
			<point x="79.08" y="97.68"/>
			<point x="79.08" y="43.84" type="curve" smooth="yes"/>
			<point x="79.08" y="6.52"/>
			<point x="96.2" y="-10.8"/>
		</contour>
	</outline>
</glyph>
<glyph name="O" format="2">
	<unicode hex="004F"/>
	<advance width="737"/>
	<outline>
		<contour>
			<point x="293.92" y="542.92" type="curve" smooth="yes"/>
			<point x="230.88" y="497.72"/>
			<point x="162.4" y="420.6"/>
			<point x="162.4" y="290" type="curve" smooth="yes"/>
			<point x="162.4" y="178.8"/>
			<point x="227.12" y="86.24"/>
			<point x="352.6" y="86.24" type="curve" smooth="yes"/>
			<point x="478.12" y="86.24"/>
			<point x="574.8" y="171.44"/>
			<point x="574.8" y="300" type="curve" smooth="yes"/>
			<point x="574.8" y="444.92"/>
			<point x="498.84" y="615.76"/>
			<point x="366.6" y="615.76" type="curve" smooth="yes"/>
			<point x="338.88" y="615.76"/>
			<point x="330.12" y="592.08"/>
			<point x="330.12" y="561.52" type="curve" smooth="yes"/>
			<point x="330.12" y="531.52"/>
			<point x="313.12" y="516.52"/>
			<point x="295.12" y="516.52" type="curve" smooth="yes"/>
			<point x="267.04" y="516.52"/>
			<point x="237.96" y="540.92"/>
			<point x="237.96" y="587.28" type="curve" smooth="yes"/>
			<point x="237.96" y="652.36"/>
			<point x="281.88" y="711"/>
			<point x="359.6" y="711" type="curve" smooth="yes"/>
			<point x="553.92" y="711"/>
			<point x="672.8" y="516.76"/>
			<point x="672.8" y="300" type="curve" smooth="yes"/>
			<point x="672.8" y="128.12"/>
			<point x="539.2" y="-10"/>
			<point x="352.6" y="-10" type="curve" smooth="yes"/>
			<point x="174.12" y="-10"/>
			<point x="64.4" y="125.12"/>
			<point x="64.4" y="290" type="curve" smooth="yes"/>
			<point x="64.4" y="510.32"/>
			<point x="242.2" y="637.44"/>
			<point x="278.44" y="637.44" type="curve" smooth="yes"/>
			<point x="289.24" y="637.44"/>
			<point x="304.24" y="632.92"/>
			<point x="315.36" y="618.52" type="curve" smooth="yes"/>
			<point x="334.04" y="592.12"/>
			<point x="321.76" y="561.88"/>
		</contour>
	</outline>
</glyph>
<glyph name="P" format="2">
	<unicode hex="0050"/>
	<advance width="594"/>
	<outline>
		<contour>
			<point x="121.76" y="71.64" type="curve" smooth="yes"/>
			<point x="121.76" y="14.16"/>
			<point x="145.28" y="-10"/>
			<point x="178.84" y="-10" type="curve" smooth="yes"/>
			<point x="207.68" y="-10"/>
			<point x="219.84" y="12.68"/>
			<point x="219.84" y="54.4" type="curve" smooth="yes"/>
			<point x="219.84" y="243.92"/>
			<point x="160.72" y="348"/>
			<point x="160.72" y="466" type="curve" smooth="yes"/>
			<point x="160.72" y="560.84"/>
			<point x="211.48" y="612.2"/>
			<point x="312" y="612.2" type="curve" smooth="yes"/>
			<point x="384.36" y="612.2"/>
			<point x="451.84" y="568.56"/>
			<point x="451.84" y="480" type="curve" smooth="yes"/>
			<point x="451.84" y="397.12"/>
			<point x="371.96" y="319.2"/>
			<point x="263.84" y="319.2" type="curve" smooth="yes"/>
			<point x="205.4" y="319.2"/>
			<point x="193.4" y="337.2"/>
			<point x="166.96" y="337.2" type="curve" smooth="yes"/>
			<point x="149.24" y="337.2"/>
			<point x="135.64" y="325.28"/>
			<point x="135.64" y="303" type="curve" smooth="yes"/>
			<point x="135.64" y="261.92"/>
			<point x="191.24" y="223.4"/>
			<point x="267.96" y="223.4" type="curve" smooth="yes"/>
			<point x="429.44" y="223.4"/>
			<point x="548.52" y="351.88"/>
			<point x="548.52" y="480" type="curve" smooth="yes"/>
			<point x="548.52" y="625"/>
			<point x="442.04" y="708"/>
			<point x="312.44" y="708" type="curve" smooth="yes"/>
			<point x="135.96" y="708"/>
			<point x="64.04" y="610.56"/>
			<point x="64.04" y="466" type="curve" smooth="yes"/>
			<point x="64.04" y="342.84"/>
			<point x="121.76" y="244.76"/>
		</contour>
	</outline>
</glyph>
<glyph name="Q" format="2">
	<unicode hex="0051"/>
	<advance width="729"/>
	<outline>
		<contour>
			<point x="456.4" y="272.84" type="curve" smooth="yes"/>
			<point x="485.84" y="230.8"/>
			<point x="546.32" y="77.36"/>
			<point x="636" y="-35.96" type="curve" smooth="yes"/>
			<point x="670.12" y="-78.88"/>
			<point x="654.08" y="-121.92"/>
			<point x="628.08" y="-121.92" type="curve" smooth="yes"/>
			<point x="603.28" y="-121.92"/>
			<point x="585.2" y="-113.8"/>
			<point x="554.08" y="-80.12" type="curve" smooth="yes"/>
			<point x="483.44" y="-4.36"/>
			<point x="414.28" y="172.88"/>
			<point x="358.32" y="253.28" type="curve" smooth="yes"/>
			<point x="328" y="295.56"/>
			<point x="333.48" y="329.28"/>
			<point x="369.44" y="329.28" type="curve" smooth="yes"/>
			<point x="409.92" y="329.28"/>
			<point x="427.8" y="313.48"/>
		</contour>
		<contour>
			<point x="247.68" y="556.8" type="curve" smooth="yes"/>
			<point x="189.24" y="509.84"/>
			<point x="156.32" y="404.24"/>
			<point x="156.32" y="313" type="curve" smooth="yes"/>
			<point x="156.32" y="195.24"/>
			<point x="212.96" y="86.8"/>
			<point x="367" y="86.8" type="curve" smooth="yes"/>
			<point x="492.6" y="86.8"/>
			<point x="570.56" y="198.68"/>
			<point x="570.56" y="315" type="curve" smooth="yes"/>
			<point x="570.56" y="463.28"/>
			<point x="503.68" y="610.4"/>
			<point x="391" y="610.4" type="curve" smooth="yes"/>
			<point x="340.24" y="610.4"/>
			<point x="285.56" y="570.56"/>
			<point x="249.6" y="501.08" type="curve" smooth="yes"/>
			<point x="233.6" y="470.08"/>
			<point x="218.6" y="460.08"/>
			<point x="195.6" y="460.08" type="curve" smooth="yes"/>
			<point x="174.72" y="460.08"/>
			<point x="163.56" y="473.28"/>
			<point x="163.56" y="498.44" type="curve" smooth="yes"/>
			<point x="163.56" y="587.72"/>
			<point x="284.28" y="709"/>
			<point x="406" y="709" type="curve" smooth="yes"/>
			<point x="547.96" y="709"/>
			<point x="667.8" y="546"/>
			<point x="667.8" y="327" type="curve" smooth="yes"/>
			<point x="667.8" y="147.36"/>
			<point x="556.08" y="-9"/>
			<point x="367" y="-9" type="curve" smooth="yes"/>
			<point x="141.68" y="-9"/>
			<point x="60.2" y="144"/>
			<point x="60.2" y="313" type="curve" smooth="yes"/>
			<point x="60.2" y="526.24"/>
			<point x="190.16" y="654.56"/>
			<point x="245.6" y="654.56" type="curve" smooth="yes"/>
			<point x="273.08" y="654.56"/>
			<point x="295.08" y="632.84"/>
			<point x="295.08" y="611.44" type="curve" smooth="yes"/>
			<point x="295.08" y="591.64"/>
			<point x="280.72" y="582.84"/>
		</contour>
	</outline>
</glyph>
<glyph name="R" format="2">
	<unicode hex="0052"/>
	<advance width="716"/>
	<outline>
		<contour>
			<point x="100.92" y="643.32" type="curve" smooth="yes"/>
			<point x="63.64" y="643.32"/>
			<point x="55.16" y="618.88"/>
			<point x="71.04" y="575.04" type="curve" smooth="yes"/>
			<point x="101.2" y="491.88"/>
			<point x="112.08" y="442.16"/>
			<point x="114.84" y="372.04" type="curve"/>
			<point x="79.84" y="263.04"/>
			<point x="63.84" y="179.32"/>
			<point x="63.84" y="111.6" type="curve" smooth="yes"/>
			<point x="63.84" y="30.28"/>
			<point x="92.04" y="-13"/>
			<point x="131.36" y="-13" type="curve" smooth="yes"/>
			<point x="156.52" y="-13"/>
			<point x="163.88" y="-2.76"/>
			<point x="163.88" y="61.28" type="curve" smooth="yes"/>
			<point x="163.88" y="378.28"/>
			<point x="315.56" y="614.2"/>
			<point x="469.84" y="614.2" type="curve" smooth="yes"/>
			<point x="526.04" y="614.2"/>
			<point x="547.6" y="580.68"/>
			<point x="547.6" y="539.44" type="curve" smooth="yes"/>
			<point x="547.6" y="468.64"/>
			<point x="469.48" y="371.72"/>
			<point x="225.84" y="292.76" type="curve" smooth="yes"/>
			<point x="183.96" y="279"/>
			<point x="174.72" y="238.44"/>
			<point x="197.72" y="207.44" type="curve" smooth="yes"/>
			<point x="276.72" y="105.44"/>
			<point x="526.28" y="-12"/>
			<point x="600.56" y="-12" type="curve" smooth="yes"/>
			<point x="645.44" y="-12"/>
			<point x="669.2" y="6.52"/>
			<point x="669.2" y="36.92" type="curve" smooth="yes"/>
			<point x="669.2" y="56.4"/>
			<point x="653.6" y="69.64"/>
			<point x="604" y="84.64" type="curve" smooth="yes"/>
			<point x="482.16" y="123.24"/>
			<point x="376" y="180.04"/>
			<point x="310.12" y="232.28" type="curve"/>
			<point x="567.92" y="322.72"/>
			<point x="646.72" y="436"/>
			<point x="646.72" y="542.68" type="curve" smooth="yes"/>
			<point x="646.72" y="636.48"/>
			<point x="596.88" y="710"/>
			<point x="479.68" y="710" type="curve" smooth="yes"/>
			<point x="356.2" y="710"/>
			<point x="245.04" y="636.72"/>
			<point x="171.68" y="472.88" type="curve"/>
			<point x="195.4" y="479.36" type="line"/>
			<point x="181.92" y="599.56"/>
			<point x="148.08" y="643.32"/>
		</contour>
	</outline>
</glyph>
<glyph name="S" format="2">
	<unicode hex="0053"/>
	<advance width="573"/>
	<outline>
		<contour>
			<point x="190" y="-9" type="curve" smooth="yes"/>
			<point x="367.853877551" y="-9"/>
			<point x="512.8" y="38.8"/>
			<point x="512.8" y="138.48" type="curve" smooth="yes"/>
			<point x="512.8" y="307.5371428571"/>
			<point x="161.2" y="326.092244898"/>
			<point x="161.2" y="427.24" type="curve" smooth="yes"/>
			<point x="161.2" y="502.0575342466"/>
			<point x="272.7791848404" y="575.6399360879"/>
			<point x="464.88" y="613.68" type="curve" smooth="yes"/>
			<point x="498.1035783338" y="619.771559697"/>
			<point x="512.4" y="636.0989473684"/>
			<point x="512.4" y="659.64" type="curve" smooth="yes"/>
			<point x="512.4" y="688.21"/>
			<point x="495.9031578948" y="710"/>
			<point x="454.56" y="710" type="curve" smooth="yes"/>
			<point x="331.2478195489" y="710"/>
			<point x="61.4" y="595.44"/>
			<point x="61.4" y="426.2" type="curve" smooth="yes"/>
			<point x="61.4" y="249.8"/>
			<point x="388.08" y="242.48"/>
			<point x="411" y="135.28" type="curve"/>
			<point x="368.16" y="104.84"/>
			<point x="293.92" y="86.72"/>
			<point x="178.36" y="86.72" type="curve" smooth="yes"/>
			<point x="124.24" y="86.72"/>
			<point x="113.44" y="101.48"/>
			<point x="83.2" y="101.48" type="curve" smooth="yes"/>
			<point x="57.04" y="101.48"/>
			<point x="47.76" y="89.12"/>
			<point x="47.76" y="67.8" type="curve" smooth="yes"/>
			<point x="47.76" y="25.88"/>
			<point x="95.54" y="-9"/>
		</contour>
	</outline>
</glyph>
<glyph name="T" format="2">
	<unicode hex="0054"/>
	<advance width="643"/>
	<outline>
		<contour>
			<point x="270.36" y="602.56" type="curve" smooth="yes"/>
			<point x="246.36" y="320.56"/>
			<point x="254.16" y="177"/>
			<point x="268.76" y="87.88" type="curve" smooth="yes"/>
			<point x="281.68" y="9"/>
			<point x="309.4" y="-13"/>
			<point x="340.8" y="-13" type="curve" smooth="yes"/>
			<point x="363.08" y="-13"/>
			<point x="376.88" y="-3.2"/>
			<point x="376.88" y="24.2" type="curve" smooth="yes"/>
			<point x="376.88" y="66.08"/>
			<point x="341.12" y="167"/>
			<point x="364.56" y="535.6" type="curve" smooth="yes"/>
			<point x="369.56" y="623.6"/>
			<point x="356.96" y="654.4"/>
			<point x="311.4" y="654.4" type="curve" smooth="yes"/>
			<point x="287.68" y="654.4"/>
			<point x="272.64" y="633.04"/>
		</contour>
		<contour>
			<point x="128.12" y="612.12" type="curve" smooth="yes"/>
			<point x="251.36" y="606.16"/>
			<point x="334.48" y="605.44"/>
			<point x="482" y="605.44" type="curve" smooth="yes"/>
			<point x="547.12" y="605.44"/>
			<point x="613.8" y="626.48"/>
			<point x="613.8" y="674.92" type="curve" smooth="yes"/>
			<point x="613.8" y="696.08"/>
			<point x="601" y="711"/>
			<point x="573.4" y="711" type="curve" smooth="yes"/>
			<point x="527.84" y="711"/>
			<point x="506.92" y="700"/>
			<point x="422.04" y="700" type="curve" smooth="yes"/>
			<point x="299.08" y="700"/>
			<point x="223.44" y="707.12"/>
			<point x="73" y="707.12" type="curve" smooth="yes"/>
			<point x="42.2" y="707.12"/>
			<point x="30.08" y="693.08"/>
			<point x="30.08" y="675.48" type="curve" smooth="yes"/>
			<point x="30.08" y="641.4545454546"/>
			<point x="48.44" y="615.8"/>
		</contour>
	</outline>
</glyph>
<glyph name="U" format="2">
	<unicode hex="0055"/>
	<advance width="658"/>
	<outline>
		<contour>
			<point x="353.52" y="-13" type="curve" smooth="yes"/>
			<point x="521.04" y="-13"/>
			<point x="596.96" y="114"/>
			<point x="596.96" y="298" type="curve" smooth="yes"/>
			<point x="596.96" y="374.08"/>
			<point x="590.84" y="442.96"/>
			<point x="590.84" y="513.52" type="curve" smooth="yes"/>
			<point x="590.84" y="601.76"/>
			<point x="602" y="640.84"/>
			<point x="602" y="671.12" type="curve" smooth="yes"/>
			<point x="602" y="698.44"/>
			<point x="583.32" y="712"/>
			<point x="560.6" y="712" type="curve" smooth="yes"/>
			<point x="518.04" y="712"/>
			<point x="490.6" y="675.72"/>
			<point x="490.6" y="615" type="curve" smooth="yes"/>
			<point x="490.6" y="498"/>
			<point x="498.6" y="429"/>
			<point x="498.6" y="305" type="curve" smooth="yes"/>
			<point x="498.6" y="150.48"/>
			<point x="452.52" y="84.36"/>
			<point x="346.52" y="84.36" type="curve" smooth="yes"/>
			<point x="247.36" y="84.36"/>
			<point x="176.36" y="145.04"/>
			<point x="176.36" y="337.04" type="curve" smooth="yes"/>
			<point x="176.36" y="395.72"/>
			<point x="183.92" y="470.76"/>
			<point x="183.92" y="525.28" type="curve" smooth="yes"/>
			<point x="183.92" y="666.32"/>
			<point x="145.6" y="713.12"/>
			<point x="105.68" y="713.12" type="curve" smooth="yes"/>
			<point x="82.76" y="713.12"/>
			<point x="59.72" y="702.4"/>
			<point x="59.72" y="674.32" type="curve" smooth="yes"/>
			<point x="59.72" y="625.24"/>
			<point x="82.32" y="612.96"/>
			<point x="82.32" y="489" type="curve" smooth="yes"/>
			<point x="82.32" y="451.28"/>
			<point x="77.32" y="392.68"/>
			<point x="77.32" y="338.4" type="curve" smooth="yes"/>
			<point x="77.32" y="126.84"/>
			<point x="158.84" y="-13"/>
		</contour>
	</outline>
</glyph>
<glyph name="V" format="2">
	<unicode hex="0056"/>
	<advance width="672"/>
	<outline>
		<contour>
			<point x="344.8" y="-11.28" type="curve" smooth="yes"/>
			<point x="369.4" y="-11.28"/>
			<point x="382.92" y="3.32"/>
			<point x="396.76" y="54.88" type="curve" smooth="yes"/>
			<point x="453.76" y="264.16"/>
			<point x="511.84" y="387.52"/>
			<point x="624.68" y="579.16" type="curve" smooth="yes"/>
			<point x="644.56" y="612.68"/>
			<point x="652.44" y="632.04"/>
			<point x="652.44" y="662.16" type="curve" smooth="yes"/>
			<point x="652.44" y="689.04"/>
			<point x="638.44" y="710.68"/>
			<point x="612.8" y="710.68" type="curve" smooth="yes"/>
			<point x="591.88" y="710.68"/>
			<point x="580.56" y="704.68"/>
			<point x="541.64" y="644.52" type="curve" smooth="yes"/>
			<point x="438.48" y="483.84"/>
			<point x="366.16" y="306.96"/>
			<point x="312.08" y="97.2" type="curve"/>
			<point x="341.52" y="118.76" type="line"/>
			<point x="242.32" y="270.76"/>
			<point x="236.52" y="501.8"/>
			<point x="153.88" y="639.48" type="curve" smooth="yes"/>
			<point x="125.32" y="689.32"/>
			<point x="102.2" y="707.68"/>
			<point x="72.64" y="707.68" type="curve" smooth="yes"/>
			<point x="46.04" y="707.68"/>
			<point x="33.72" y="689.72"/>
			<point x="33.72" y="668.6" type="curve" smooth="yes"/>
			<point x="33.72" y="640.72"/>
			<point x="48.64" y="618.08"/>
			<point x="77.56" y="572.96" type="curve" smooth="yes"/>
			<point x="140.04" y="477.48"/>
			<point x="147.52" y="246.6"/>
			<point x="254.24" y="66.68" type="curve" smooth="yes"/>
			<point x="292.8" y="0.6"/>
			<point x="310.72" y="-11.28"/>
		</contour>
	</outline>
</glyph>
<glyph name="W" format="2">
	<unicode hex="0057"/>
	<advance width="964"/>
	<outline>
		<contour>
			<point x="158.72" y="631.96" type="curve" smooth="yes"/>
			<point x="155.72" y="681.96"/>
			<point x="138.24" y="712"/>
			<point x="91.56" y="712" type="curve" smooth="yes"/>
			<point x="61.68" y="712"/>
			<point x="50.44" y="684.64"/>
			<point x="52.72" y="654.04" type="curve" smooth="yes"/>
			<point x="66.16" y="462.96"/>
			<point x="130.56" y="192.36"/>
			<point x="193.96" y="58.8" type="curve" smooth="yes"/>
			<point x="220.92" y="2.28"/>
			<point x="246.8" y="-8"/>
			<point x="272.36" y="-8" type="curve" smooth="yes"/>
			<point x="302.4" y="-8"/>
			<point x="322.68" y="11.56"/>
			<point x="329.48" y="46.76" type="curve" smooth="yes"/>
			<point x="363.92" y="237.12"/>
			<point x="411.28" y="452.08"/>
			<point x="496.64" y="550.44" type="curve" smooth="yes"/>
			<point x="515.76" y="571.84"/>
			<point x="450.92" y="584.6"/>
			<point x="473.2" y="557.92" type="curve" smooth="yes"/>
			<point x="551.6" y="463.56"/>
			<point x="545.72" y="174.64"/>
			<point x="620.64" y="59.72" type="curve" smooth="yes"/>
			<point x="660.36" y="-1.52"/>
			<point x="687.32" y="-12"/>
			<point x="721.6" y="-12" type="curve" smooth="yes"/>
			<point x="742.28" y="-12"/>
			<point x="761.08" y="0.44"/>
			<point x="778.36" y="42" type="curve" smooth="yes"/>
			<point x="837.92" y="189.4"/>
			<point x="852.48" y="458.92"/>
			<point x="903.84" y="603.64" type="curve" smooth="yes"/>
			<point x="924.72" y="664.48"/>
			<point x="916.64" y="712"/>
			<point x="869.8" y="712" type="curve" smooth="yes"/>
			<point x="845.4" y="712"/>
			<point x="831.76" y="704.44"/>
			<point x="814.32" y="663.8" type="curve" smooth="yes"/>
			<point x="762.12" y="536.76"/>
			<point x="749.48" y="245.32"/>
			<point x="688.76" y="109.52" type="curve" smooth="yes"/>
			<point x="677" y="79"/>
			<point x="741.12" y="73.88"/>
			<point x="719.04" y="102.6" type="curve" smooth="yes"/>
			<point x="636.08" y="212.16"/>
			<point x="637.08" y="410.28"/>
			<point x="602.68" y="518.4" type="curve" smooth="yes"/>
			<point x="571.36" y="617"/>
			<point x="543.2" y="652"/>
			<point x="495.4" y="652" type="curve" smooth="yes"/>
			<point x="459.16" y="652"/>
			<point x="428.32" y="623.8"/>
			<point x="400.08" y="583.52" type="curve" smooth="yes"/>
			<point x="336.96" y="492.44"/>
			<point x="286.04" y="321.32"/>
			<point x="247.8" y="109.92" type="curve" smooth="yes"/>
			<point x="237.84" y="53.52"/>
			<point x="290.48" y="68.12"/>
			<point x="269.96" y="128.36" type="curve" smooth="yes"/>
			<point x="212.44" y="289.6"/>
			<point x="167.72" y="499.96"/>
		</contour>
	</outline>
</glyph>
<glyph name="X" format="2">
	<unicode hex="0058"/>
	<advance width="618"/>
	<outline>
		<contour>
			<point x="164.6" y="668.4" type="curve" smooth="yes"/>
			<point x="221.6" y="474.32"/>
			<point x="466.12" y="242.4"/>
			<point x="537.92" y="122.44" type="curve" smooth="yes"/>
			<point x="589.08" y="38.92"/>
			<point x="558.16" y="-7.68"/>
			<point x="518.96" y="-7.68" type="curve" smooth="yes"/>
			<point x="498.84" y="-7.68"/>
			<point x="479.28" y="3.8"/>
			<point x="452.16" y="50.92" type="curve" smooth="yes"/>
			<point x="369.2" y="202.92"/>
			<point x="135.76" y="423.92"/>
			<point x="77.84" y="580.36" type="curve" smooth="yes"/>
			<point x="42" y="678.4"/>
			<point x="58.32" y="710.12"/>
			<point x="107.6" y="710.12" type="curve" smooth="yes"/>
			<point x="137.52" y="710.12"/>
			<point x="157.64" y="691.6"/>
		</contour>
		<contour>
			<point x="538.2" y="595.6" type="curve" smooth="yes"/>
			<point x="419.84" y="481.2"/>
			<point x="254.08" y="270.52"/>
			<point x="132.52" y="35.44" type="curve" smooth="yes"/>
			<point x="113.12" y="-1.96"/>
			<point x="99.16" y="-10.76"/>
			<point x="76.88" y="-10.76" type="curve" smooth="yes"/>
			<point x="40.52" y="-10.76"/>
			<point x="22.64" y="33.44"/>
			<point x="62.12" y="106.44" type="curve" smooth="yes"/>
			<point x="152.84" y="273.96"/>
			<point x="348.48" y="558.2"/>
			<point x="484.6" y="683.88" type="curve" smooth="yes"/>
			<point x="505.64" y="702.92"/>
			<point x="517.56" y="708.44"/>
			<point x="532.84" y="708.44" type="curve" smooth="yes"/>
			<point x="566.6" y="708.44"/>
			<point x="595.12" y="651.2"/>
		</contour>
	</outline>
</glyph>
<glyph name="Y" format="2">
	<unicode hex="0059"/>
	<advance width="611"/>
	<outline>
		<contour>
			<point x="549.28" y="591.6" type="curve" smooth="yes"/>
			<point x="417.52" y="461.04"/>
			<point x="314.72" y="251.32"/>
			<point x="274.72" y="42.96" type="curve" smooth="yes"/>
			<point x="266.28" y="-1.44"/>
			<point x="251.48" y="-14"/>
			<point x="222" y="-14" type="curve" smooth="yes"/>
			<point x="186.48" y="-14"/>
			<point x="169.44" y="18.08"/>
			<point x="184.28" y="85.8" type="curve" smooth="yes"/>
			<point x="221.76" y="271.84"/>
			<point x="335.04" y="521.88"/>
			<point x="494.84" y="681.68" type="curve" smooth="yes"/>
			<point x="521.4" y="708"/>
			<point x="536.4" y="713"/>
			<point x="551.4" y="713" type="curve" smooth="yes"/>
			<point x="572.24" y="713"/>
			<point x="589.72" y="693.6"/>
			<point x="589.72" y="665.64" type="curve" smooth="yes"/>
			<point x="589.72" y="638.84"/>
			<point x="584.6" y="626.24"/>
		</contour>
		<contour>
			<point x="114.76" y="673.12" type="curve" smooth="yes"/>
			<point x="189.36" y="537.76"/>
			<point x="234" y="515.92"/>
			<point x="313.44" y="365.08" type="curve" smooth="yes"/>
			<point x="326.64" y="338.68"/>
			<point x="321.8" y="290.24"/>
			<point x="284.48" y="290.24" type="curve" smooth="yes"/>
			<point x="264.24" y="290.24"/>
			<point x="250" y="301.96"/>
			<point x="239.44" y="320.08" type="curve" smooth="yes"/>
			<point x="150.5476881169" y="467.6272489769"/>
			<point x="108.28" y="499.24"/>
			<point x="48.76" y="593.12" type="curve" smooth="yes"/>
			<point x="27.32" y="629.04"/>
			<point x="21.08" y="643.64"/>
			<point x="21.08" y="667.2" type="curve" smooth="yes"/>
			<point x="21.08" y="693.72"/>
			<point x="37.12" y="711.44"/>
			<point x="59.72" y="711.44" type="curve" smooth="yes"/>
			<point x="83.2" y="711.44"/>
			<point x="98.4" y="702"/>
		</contour>
	</outline>
</glyph>
<glyph name="Z" format="2">
	<unicode hex="005A"/>
	<advance width="649"/>
	<outline>
		<contour>
			<point x="117" y="682.76" type="curve" smooth="yes"/>
			<point x="191.96" y="700"/>
			<point x="263.04" y="710"/>
			<point x="334" y="710" type="curve" smooth="yes"/>
			<point x="523.84" y="710"/>
			<point x="569.2" y="642.08"/>
			<point x="569.2" y="565.56" type="curve" smooth="yes"/>
			<point x="569.2" y="483.2"/>
			<point x="541.2" y="436.12"/>
			<point x="340.04" y="308.44" type="curve" smooth="yes"/>
			<point x="149.72" y="186.96"/>
			<point x="150.64" y="150.88"/>
			<point x="154.84" y="69.76" type="curve" smooth="yes"/>
			<point x="153.08" y="44.24"/>
			<point x="86.84" y="114.16"/>
			<point x="126.36" y="97.56" type="curve" smooth="yes"/>
			<point x="150.36" y="87.28"/>
			<point x="176.84" y="85.16"/>
			<point x="202.44" y="85.16" type="curve" smooth="yes"/>
			<point x="276.24" y="85.16"/>
			<point x="355.52" y="96.24"/>
			<point x="443" y="96.24" type="curve" smooth="yes"/>
			<point x="560.48" y="96.24"/>
			<point x="622" y="79.76"/>
			<point x="622" y="28.52" type="curve" smooth="yes"/>
			<point x="622" y="5.92"/>
			<point x="604.2" y="-7"/>
			<point x="571.92" y="-7" type="curve" smooth="yes"/>
			<point x="526.76" y="-7"/>
			<point x="504.08" y="0"/>
			<point x="427" y="0" type="curve" smooth="yes"/>
			<point x="344" y="0"/>
			<point x="266" y="-8.12"/>
			<point x="199" y="-8.12" type="curve" smooth="yes"/>
			<point x="93" y="-8.12"/>
			<point x="55.96" y="41.28"/>
			<point x="55.96" y="114.28" type="curve" smooth="yes"/>
			<point x="55.96" y="180.52"/>
			<point x="82.4" y="262.84"/>
			<point x="291.24" y="391.08" type="curve" smooth="yes"/>
			<point x="465.32" y="497.52"/>
			<point x="478.64" y="539.04"/>
			<point x="471.64" y="601.6" type="curve" smooth="yes"/>
			<point x="467.08" y="650.88"/>
			<point x="521.36" y="564.8"/>
			<point x="482.24" y="589.56" type="curve" smooth="yes"/>
			<point x="454.72" y="606.6"/>
			<point x="424.08" y="613.32"/>
			<point x="347.88" y="613.32" type="curve" smooth="yes"/>
			<point x="232.6" y="613.32"/>
			<point x="175.8" y="588.76"/>
			<point x="133" y="588.76" type="curve" smooth="yes"/>
			<point x="105.68" y="588.76"/>
			<point x="71" y="603.2"/>
			<point x="71" y="637.48" type="curve" smooth="yes"/>
			<point x="71" y="657.84"/>
			<point x="85" y="674.76"/>
		</contour>
	</outline>
</glyph>
<glyph name="bracketleft" format="2">
	<unicode hex="005B"/>
	<advance width="509"/>
	<outline>
		<contour>
			<point x="393.16" y="719.16" type="curve" smooth="yes"/>
			<point x="326.84" y="719.16"/>
			<point x="221.28" y="700.36"/>
			<point x="169.16" y="701.8" type="curve"/>
			<point x="221.76" y="743.56" type="line"/>
			<point x="200.48" y="612.88"/>
			<point x="220.76" y="345.96"/>
			<point x="214.76" y="238" type="curve" smooth="yes"/>
			<point x="210.04" y="138.32"/>
			<point x="189.44" y="-70.96"/>
			<point x="241.52" y="-189.16" type="curve"/>
			<point x="184.68" y="-170.8" type="line"/>
			<point x="230.72" y="-158.16"/>
			<point x="290.1458064516" y="-162.44"/>
			<point x="351.4" y="-162.44" type="curve" smooth="yes"/>
			<point x="385.6489411765" y="-162.44"/>
			<point x="422.6768" y="-157.28"/>
			<point x="442.4" y="-157.28" type="curve" smooth="yes"/>
			<point x="466.1817142857" y="-157.28"/>
			<point x="480.44" y="-174.056"/>
			<point x="480.44" y="-196.2" type="curve" smooth="yes"/>
			<point x="480.44" y="-239.24"/>
			<point x="445.48" y="-258.44"/>
			<point x="379.32" y="-258.44" type="curve" smooth="yes"/>
			<point x="341.68" y="-258.44"/>
			<point x="304.96" y="-256.56"/>
			<point x="272.12" y="-257.68" type="curve" smooth="yes"/>
			<point x="241.72" y="-258.52"/>
			<point x="219.16" y="-265.68"/>
			<point x="198.04" y="-265.68" type="curve" smooth="yes"/>
			<point x="179.12" y="-265.68"/>
			<point x="163.96" y="-255.44"/>
			<point x="155.44" y="-240.52" type="curve" smooth="yes"/>
			<point x="87.36" y="-119.36"/>
			<point x="109.8" y="128.96"/>
			<point x="115.08" y="243.68" type="curve" smooth="yes"/>
			<point x="121.08" y="354.04"/>
			<point x="102.08" y="626.64"/>
			<point x="122.64" y="759.72" type="curve" smooth="yes"/>
			<point x="127.04" y="785.16"/>
			<point x="150.36" y="801.48"/>
			<point x="176.08" y="801.48" type="curve" smooth="yes"/>
			<point x="237.7539622641" y="801.48"/>
			<point x="339.8694339623" y="817.56"/>
			<point x="412.96" y="817.56" type="curve" smooth="yes"/>
			<point x="455.4784415585" y="817.56"/>
			<point x="481.32" y="805.78"/>
			<point x="481.32" y="775.92" type="curve" smooth="yes"/>
			<point x="481.32" y="747.9657142857"/>
			<point x="460.44" y="717.16"/>
			<point x="427.6" y="717.16" type="curve" smooth="yes"/>
			<point x="414.72" y="717.16"/>
			<point x="406.16" y="719.16"/>
		</contour>
	</outline>
</glyph>
<glyph name="bracketright" format="2">
	<unicode hex="005D"/>
	<advance width="481"/>
	<outline>
		<contour>
			<point x="69.64" y="-166" type="curve" smooth="yes"/>
			<point x="129.64" y="-165.72"/>
			<point x="268.68" y="-149.84"/>
			<point x="325.4" y="-129.68" type="curve"/>
			<point x="292.04" y="-169.56" type="line"/>
			<point x="334.04" y="83.6"/>
			<point x="244.56" y="412.2"/>
			<point x="268.84" y="761.4" type="curve"/>
			<point x="323.28" y="702.6" type="line"/>
			<point x="256.96" y="700.08"/>
			<point x="174.6" y="718.16"/>
			<point x="92.88" y="718.16" type="curve" smooth="yes"/>
			<point x="56.2" y="718.16"/>
			<point x="26.92" y="745.8"/>
			<point x="27.2" y="783.48" type="curve" smooth="yes"/>
			<point x="27.48" y="804.04"/>
			<point x="39.92" y="818.12"/>
			<point x="71.2" y="817.84" type="curve" smooth="yes"/>
			<point x="125.76" y="817.56"/>
			<point x="195.88" y="803.84"/>
			<point x="257.44" y="803.84" type="curve" smooth="yes"/>
			<point x="278.16" y="803.84"/>
			<point x="298.88" y="808.84"/>
			<point x="316.88" y="808.84" type="curve" smooth="yes"/>
			<point x="348.68" y="808.84"/>
			<point x="371.08" y="786.4"/>
			<point x="368.52" y="754.6" type="curve" smooth="yes"/>
			<point x="342.96" y="400.84"/>
			<point x="433.16" y="68.84"/>
			<point x="391.16" y="-187.16" type="curve" smooth="yes"/>
			<point x="388.04" y="-204.76"/>
			<point x="375.12" y="-219.24"/>
			<point x="357.8" y="-225.64" type="curve" smooth="yes"/>
			<point x="300.08" y="-246.52"/>
			<point x="161.48" y="-265.4"/>
			<point x="100.04" y="-265.68" type="curve" smooth="yes"/>
			<point x="62.28" y="-265.96"/>
			<point x="27.48" y="-242.12"/>
			<point x="27.2" y="-206.12" type="curve" smooth="yes"/>
			<point x="26.92" y="-185"/>
			<point x="40.6" y="-166.28"/>
		</contour>
	</outline>
</glyph>
<glyph name="a" format="2">
	<unicode hex="0061"/>
	<advance width="661"/>
	<outline>
		<contour>
			<point x="395.84" y="395.6" type="curve" smooth="yes"/>
			<point x="400.12" y="421.68"/>
			<point x="415.56" y="437.36"/>
			<point x="439.2" y="437.36" type="curve" smooth="yes"/>
			<point x="473.88" y="437.36"/>
			<point x="499.88" y="409.4"/>
			<point x="506.8" y="369.12" type="curve" smooth="yes"/>
			<point x="526.64" y="246.84"/>
			<point x="541.2" y="169"/>
			<point x="613.64" y="77.88" type="curve" smooth="yes"/>
			<point x="637.52" y="49.56"/>
			<point x="617.52" y="-7"/>
			<point x="578.96" y="-7" type="curve" smooth="yes"/>
			<point x="559" y="-7"/>
			<point x="548.76" y="1.84"/>
			<point x="538.04" y="14.56" type="curve" smooth="yes"/>
			<point x="483.64" y="85.56"/>
			<point x="445.44" y="156.84"/>
			<point x="430.2" y="337.56" type="curve"/>
			<point x="467.88" y="338.52" type="line"/>
			<point x="430.2048583509" y="80.8467406869"/>
			<point x="314.9064259928" y="-10"/>
			<point x="212.76" y="-10" type="curve" smooth="yes"/>
			<point x="120.2072727272" y="-10"/>
			<point x="61" y="56.04"/>
			<point x="61" y="157.4" type="curve" smooth="yes"/>
			<point x="61" y="319.7221902017"/>
			<point x="194.4921854305" y="502.96"/>
			<point x="358.6" y="502.96" type="curve" smooth="yes"/>
			<point x="391.56" y="502.96"/>
			<point x="416.84" y="483.68"/>
			<point x="416.84" y="448.8" type="curve" smooth="yes"/>
			<point x="416.84" y="431.56"/>
			<point x="406.16" y="419.56"/>
			<point x="386.28" y="417" type="curve" smooth="yes"/>
			<point x="250.7860364891" y="395.3748822106"/>
			<point x="158.88" y="275.4850704225"/>
			<point x="158.88" y="152.92" type="curve" smooth="yes"/>
			<point x="158.88" y="116.64"/>
			<point x="162.32" y="92.84"/>
			<point x="183.72" y="46.36" type="curve"/>
			<point x="129.88" y="119.32" type="line"/>
			<point x="159.8872073777" y="89.887734689"/>
			<point x="175.52" y="83.12"/>
			<point x="211.84" y="83.12" type="curve" smooth="yes"/>
			<point x="294.72" y="83.12"/>
			<point x="363.4140950212" y="192.2335859641"/>
		</contour>
	</outline>
</glyph>
<glyph name="b" format="2">
	<unicode hex="0062"/>
	<advance width="592"/>
	<outline>
		<contour>
			<point x="186" y="729" type="curve" smooth="yes"/>
			<point x="186" y="641.96"/>
			<point x="169.72" y="575.8"/>
			<point x="169.72" y="413.76" type="curve" smooth="yes"/>
			<point x="169.72" y="360.32"/>
			<point x="172.48" y="304.56"/>
			<point x="178.04" y="230.8" type="curve" smooth="yes"/>
			<point x="181.32" y="182.64"/>
			<point x="142.64" y="209.16"/>
			<point x="155.04" y="264.6" type="curve" smooth="yes"/>
			<point x="188.8" y="428.12"/>
			<point x="285.88" y="502.52"/>
			<point x="369.44" y="502.52" type="curve" smooth="yes"/>
			<point x="470.76" y="502.52"/>
			<point x="546.6" y="439.4"/>
			<point x="546.6" y="290.6" type="curve" smooth="yes"/>
			<point x="546.6" y="105.16"/>
			<point x="376.88" y="-10"/>
			<point x="198.4" y="-10" type="curve" smooth="yes"/>
			<point x="139.32" y="-10"/>
			<point x="71.44" y="8.48"/>
			<point x="71.44" y="58.92" type="curve" smooth="yes"/>
			<point x="71.44" y="83.76"/>
			<point x="88.16" y="96.12"/>
			<point x="112.24" y="96.12" type="curve" smooth="yes"/>
			<point x="131.48" y="96.12"/>
			<point x="160.16" y="85.24"/>
			<point x="186.4" y="85.24" type="curve" smooth="yes"/>
			<point x="322.28" y="85.24"/>
			<point x="448.8" y="157.04"/>
			<point x="448.8" y="299.6" type="curve" smooth="yes"/>
			<point x="448.8" y="355.56"/>
			<point x="431.88" y="406.28"/>
			<point x="368.6" y="406.28" type="curve" smooth="yes"/>
			<point x="272" y="406.28"/>
			<point x="214.76" y="279.48"/>
			<point x="181.4" y="100.4" type="curve" smooth="yes"/>
			<point x="176.12" y="75.72"/>
			<point x="164.16" y="66.08"/>
			<point x="148.12" y="66.08" type="curve" smooth="yes"/>
			<point x="127.4" y="66.08"/>
			<point x="110.56" y="91.48"/>
			<point x="103" y="132.4" type="curve" smooth="yes"/>
			<point x="83.56" y="240.16"/>
			<point x="74" y="355.92"/>
			<point x="74" y="420.8" type="curve" smooth="yes"/>
			<point x="74" y="600.32"/>
			<point x="91.96" y="669.68"/>
			<point x="90" y="763.24" type="curve" smooth="yes"/>
			<point x="89.16" y="787.88"/>
			<point x="100" y="809.56"/>
			<point x="123.04" y="809.56" type="curve" smooth="yes"/>
			<point x="154.52" y="809.56"/>
			<point x="186" y="780.52"/>
		</contour>
	</outline>
</glyph>
<glyph name="c" format="2">
	<unicode hex="0063"/>
	<advance width="502"/>
	<outline>
		<contour>
			<point x="458" y="109.12" type="curve" smooth="yes"/>
			<point x="458" y="141.2"/>
			<point x="448.2" y="153.12"/>
			<point x="428.04" y="153.12" type="curve" smooth="yes"/>
			<point x="391.32" y="153.12"/>
			<point x="398.16" y="86.8"/>
			<point x="271.88" y="86.8" type="curve" smooth="yes"/>
			<point x="193.88" y="86.8"/>
			<point x="144.72" y="136.0763636363"/>
			<point x="144.72" y="212.4" type="curve" smooth="yes"/>
			<point x="144.72" y="311.5563636363"/>
			<point x="226.68" y="406.28"/>
			<point x="339.4" y="406.28" type="curve" smooth="yes"/>
			<point x="368.68" y="406.28"/>
			<point x="369.68" y="388.8"/>
			<point x="390.68" y="388.8" type="curve" smooth="yes"/>
			<point x="415.887804878" y="388.8"/>
			<point x="429" y="410.5936842105"/>
			<point x="429" y="438.4" type="curve" smooth="yes"/>
			<point x="429" y="491.96"/>
			<point x="389.2" y="503.4"/>
			<point x="349.4" y="503.4" type="curve" smooth="yes"/>
			<point x="186.44" y="503.4"/>
			<point x="47.6" y="378.48"/>
			<point x="47.6" y="220" type="curve" smooth="yes"/>
			<point x="47.6" y="84.56"/>
			<point x="138.44" y="-9"/>
			<point x="274.4" y="-9" type="curve" smooth="yes"/>
			<point x="380.76" y="-9"/>
			<point x="458" y="37.48"/>
		</contour>
	</outline>
</glyph>
<glyph name="d" format="2">
	<unicode hex="0064"/>
	<advance width="640"/>
	<outline>
		<contour>
			<point x="264.2" y="-9" type="curve" smooth="yes"/>
			<point x="350.28" y="-9"/>
			<point x="439.24" y="72.96"/>
			<point x="480.04" y="289.92" type="curve"/>
			<point x="432.72" y="289" type="line"/>
			<point x="422.64" y="131.8"/>
			<point x="481.400733945" y="-11.36"/>
			<point x="548.2" y="-11.36" type="curve" smooth="yes"/>
			<point x="577.84" y="-11.36"/>
			<point x="598.56" y="13.6"/>
			<point x="598.56" y="35" type="curve" smooth="yes"/>
			<point x="598.56" y="81.344"/>
			<point x="517.8" y="91.344"/>
			<point x="517.8" y="304.08" type="curve" smooth="yes"/>
			<point x="517.8" y="449.5966972477"/>
			<point x="540.16" y="543.4176146789"/>
			<point x="542.96" y="710.68" type="curve" smooth="yes"/>
			<point x="544.64" y="775.04"/>
			<point x="524.084" y="810"/>
			<point x="483.2" y="810" type="curve" smooth="yes"/>
			<point x="460.6109090909" y="810"/>
			<point x="443.6" y="796.6334246576"/>
			<point x="443.6" y="752.52" type="curve" smooth="yes"/>
			<point x="443.6" y="325.0394713657"/>
			<point x="364.84" y="86.8"/>
			<point x="258.48" y="86.8" type="curve" smooth="yes"/>
			<point x="201.56" y="86.8"/>
			<point x="143.44" y="174.28"/>
			<point x="143.44" y="279" type="curve" smooth="yes"/>
			<point x="143.44" y="359.12"/>
			<point x="192.76" y="408.16"/>
			<point x="280.92" y="408.16" type="curve" smooth="yes"/>
			<point x="369.28" y="408.16"/>
			<point x="371.4925984252" y="363.96"/>
			<point x="405.84" y="363.96" type="curve" smooth="yes"/>
			<point x="419.504" y="363.96"/>
			<point x="430.32" y="376.16"/>
			<point x="430.32" y="394.04" type="curve" smooth="yes"/>
			<point x="430.32" y="459.12"/>
			<point x="367.8" y="503.96"/>
			<point x="267.6" y="503.96" type="curve" smooth="yes"/>
			<point x="133.88" y="504.52"/>
			<point x="44.4" y="414.8482758621"/>
			<point x="44.4" y="279" type="curve" smooth="yes"/>
			<point x="44.4" y="124"/>
			<point x="135.12" y="-9"/>
		</contour>
	</outline>
</glyph>
<glyph name="e" format="2">
	<unicode hex="0065"/>
	<advance width="559"/>
	<outline>
		<contour>
			<point x="213" y="178.8" type="curve" smooth="yes"/>
			<point x="357.32" y="178.8"/>
			<point x="468.4" y="239.04"/>
			<point x="468.4" y="349" type="curve" smooth="yes"/>
			<point x="468.4" y="449.6"/>
			<point x="402.9047398844" y="503.4"/>
			<point x="308.6" y="503.4" type="curve" smooth="yes"/>
			<point x="143.7870967742" y="503.4"/>
			<point x="39.4" y="346.92"/>
			<point x="39.4" y="210" type="curve" smooth="yes"/>
			<point x="39.4" y="82"/>
			<point x="106.44" y="-10"/>
			<point x="260.2" y="-10" type="curve" smooth="yes"/>
			<point x="392.7847457627" y="-10"/>
			<point x="506.04" y="66.84"/>
			<point x="506.04" y="122.68" type="curve" smooth="yes"/>
			<point x="506.04" y="147.16"/>
			<point x="499.24" y="158.68"/>
			<point x="480.32" y="158.68" type="curve" smooth="yes"/>
			<point x="440.44" y="158.68"/>
			<point x="399.6" y="80.48"/>
			<point x="253.28" y="80.48" type="curve" smooth="yes"/>
			<point x="166.5282352941" y="80.48"/>
			<point x="134.96" y="131.36"/>
			<point x="134.96" y="197.08" type="curve" smooth="yes"/>
			<point x="134.96" y="306.28"/>
			<point x="209.8736842105" y="408.28"/>
			<point x="313.16" y="408.28" type="curve" smooth="yes"/>
			<point x="359.1589873418" y="408.28"/>
			<point x="377.08" y="387.88"/>
			<point x="377.08" y="348.8" type="curve" smooth="yes"/>
			<point x="377.08" y="289"/>
			<point x="309.182408377" y="252.2"/>
			<point x="204.8" y="252.2" type="curve" smooth="yes"/>
			<point x="172.8" y="252.2"/>
			<point x="154.08" y="259.36"/>
			<point x="139.36" y="259.36" type="curve" smooth="yes"/>
			<point x="119.8" y="259.36"/>
			<point x="112.96" y="251.52"/>
			<point x="112.96" y="235.12" type="curve" smooth="yes"/>
			<point x="112.96" y="206.76"/>
			<point x="142.28" y="178.8"/>
		</contour>
	</outline>
</glyph>
<glyph name="f" format="2">
	<unicode hex="0066"/>
	<advance width="358"/>
	<outline>
		<contour>
			<point x="281.2" y="414.96" type="curve" smooth="yes"/>
			<point x="308.88" y="415.8"/>
			<point x="321" y="429.56"/>
			<point x="321" y="448.48" type="curve" smooth="yes"/>
			<point x="321" y="477.8897297297"/>
			<point x="295.52" y="500.16"/>
			<point x="262.44" y="500.16" type="curve" smooth="yes"/>
			<point x="214.92" y="500.16"/>
			<point x="171.36" y="494.32"/>
			<point x="124.72" y="482.96" type="curve" smooth="yes"/>
			<point x="92.12" y="473.88"/>
			<point x="77.36" y="448.88"/>
			<point x="77.36" y="422.36" type="curve" smooth="yes"/>
			<point x="77.36" y="402.1391304348"/>
			<point x="95.92" y="389.6"/>
			<point x="117.32" y="389.6" type="curve" smooth="yes"/>
			<point x="145.88" y="389.6"/>
			<point x="172.16" y="411.88"/>
		</contour>
		<contour>
			<point x="125.2" y="-56.68" type="curve" smooth="yes"/>
			<point x="151.6" y="-56.68"/>
			<point x="164.52" y="-43.48"/>
			<point x="164.52" y="5.48" type="curve" smooth="yes"/>
			<point x="164.52" y="211.842303665"/>
			<point x="140.36" y="326.6214311926"/>
			<point x="140.36" y="444.32" type="curve" smooth="yes"/>
			<point x="140.36" y="596.56"/>
			<point x="163.4" y="686.88"/>
			<point x="318.96" y="723.68" type="curve" smooth="yes"/>
			<point x="344.64" y="730.36"/>
			<point x="356.6" y="745.6847058823"/>
			<point x="356.6" y="766.2" type="curve" smooth="yes"/>
			<point x="356.6" y="796.8"/>
			<point x="327.88" y="810"/>
			<point x="302.64" y="810" type="curve" smooth="yes"/>
			<point x="163.44" y="810"/>
			<point x="42.64" y="690.4"/>
			<point x="42.64" y="484.8" type="curve" smooth="yes"/>
			<point x="42.64" y="305.3552364273"/>
			<point x="65.4" y="235.1041068447"/>
			<point x="65.4" y="29.2" type="curve" smooth="yes"/>
			<point x="65.4" y="-25.44"/>
			<point x="95.52" y="-56.68"/>
		</contour>
	</outline>
</glyph>
<glyph name="g" format="2">
	<unicode hex="0067"/>
	<advance width="617"/>
	<outline>
		<contour>
			<point x="441.48" y="464.12" type="curve" smooth="yes"/>
			<point x="483.68" y="464.12"/>
			<point x="503.4441199512" y="427.1078139513"/>
			<point x="506.44" y="388.6" type="curve" smooth="yes"/>
			<point x="520.16" y="223.24"/>
			<point x="570.2" y="147.6"/>
			<point x="570.2" y="-48.92" type="curve" smooth="yes"/>
			<point x="570.2" y="-180.08"/>
			<point x="501.47" y="-260"/>
			<point x="380.6" y="-260" type="curve" smooth="yes"/>
			<point x="175.9028571429" y="-260"/>
			<point x="110.88" y="-156.3664"/>
			<point x="110.88" y="-83.32" type="curve" smooth="yes"/>
			<point x="110.88" y="-48.04"/>
			<point x="135.04" y="-19"/>
			<point x="169.36" y="-19" type="curve" smooth="yes"/>
			<point x="189.6" y="-19"/>
			<point x="197.6" y="-30"/>
			<point x="197.6" y="-51" type="curve" smooth="yes"/>
			<point x="197.6" y="-119.386013986"/>
			<point x="265.2791443851" y="-165.76"/>
			<point x="372.04" y="-165.76" type="curve" smooth="yes"/>
			<point x="449.8113274337" y="-165.76"/>
			<point x="473.52" y="-120.6"/>
			<point x="473.52" y="-39.04" type="curve" smooth="yes"/>
			<point x="473.52" y="100.52"/>
			<point x="429.08" y="181.4"/>
			<point x="417.08" y="295.52" type="curve"/>
			<point x="458.04" y="285.64" type="line"/>
			<point x="432.4558046784" y="138.8053253227"/>
			<point x="339.8917647059" y="77"/>
			<point x="234.8" y="77" type="curve" smooth="yes"/>
			<point x="118.9078074866" y="77"/>
			<point x="46.6" y="141.1109278351"/>
			<point x="46.6" y="260" type="curve" smooth="yes"/>
			<point x="46.6" y="391.6610526316"/>
			<point x="160.44" y="504.08"/>
			<point x="286.4" y="504.08" type="curve" smooth="yes"/>
			<point x="388.04" y="504.08"/>
			<point x="423.16" y="448.6490434783"/>
			<point x="423.16" y="396.44" type="curve" smooth="yes"/>
			<point x="423.16" y="376.16"/>
			<point x="409.64" y="354.32"/>
			<point x="395.52" y="354.32" type="curve" smooth="yes"/>
			<point x="356.8206896552" y="354.32"/>
			<point x="366.48" y="410.64"/>
			<point x="301.32" y="410.64" type="curve" smooth="yes"/>
			<point x="217.56" y="410.64"/>
			<point x="143.28" y="336.815890411"/>
			<point x="143.28" y="260.32" type="curve" smooth="yes"/>
			<point x="143.28" y="202.8722580645"/>
			<point x="171.68" y="171.36"/>
			<point x="234.36" y="171.36" type="curve" smooth="yes"/>
			<point x="330" y="171.36"/>
			<point x="404.84" y="240.68"/>
			<point x="404.84" y="418.4" type="curve" smooth="yes"/>
			<point x="404.84" y="450.16"/>
			<point x="413.68" y="464.12"/>
		</contour>
	</outline>
</glyph>
<glyph name="h" format="2">
	<unicode hex="0068"/>
	<advance width="635"/>
	<outline>
		<contour>
			<point x="540.44" y="-10.56" type="curve" smooth="yes"/>
			<point x="564.8218181818" y="-10.56"/>
			<point x="584.16" y="6.62"/>
			<point x="584.16" y="27.84" type="curve" smooth="yes"/>
			<point x="584.16" y="40.8492307693"/>
			<point x="579.2713560276" y="52.8572879447"/>
			<point x="573.6" y="64.2" type="curve" smooth="yes"/>
			<point x="554.4012895694" y="98.4966397178"/>
			<point x="536.5834592236" y="138.7175880232"/>
			<point x="524" y="268" type="curve" smooth="yes"/>
			<point x="510.5098627925" y="416.6715092826"/>
			<point x="489.24" y="504.64"/>
			<point x="400.2" y="504.64" type="curve" smooth="yes"/>
			<point x="317.2" y="504.64"/>
			<point x="242.68" y="413.96"/>
			<point x="145.76" y="160.92" type="curve"/>
			<point x="168.8" y="139.04" type="line"/>
			<point x="165.92" y="337.56"/>
			<point x="209.52" y="505.68"/>
			<point x="223.92" y="639.24" type="curve" smooth="yes"/>
			<point x="234.72" y="766.4"/>
			<point x="208.88" y="809.28"/>
			<point x="169.12" y="810" type="curve" smooth="yes"/>
			<point x="139.6" y="810"/>
			<point x="127.8" y="788.92"/>
			<point x="125.64" y="766.84" type="curve" smooth="yes"/>
			<point x="122.04" y="725.84"/>
			<point x="129.12" y="681.28"/>
			<point x="124.08" y="619.4" type="curve" smooth="yes"/>
			<point x="112.56" y="492.6"/>
			<point x="69.4" y="336.64"/>
			<point x="69.4" y="106.2" type="curve" smooth="yes"/>
			<point x="69.4" y="31.2"/>
			<point x="98.3476923077" y="-10"/>
			<point x="134.2" y="-10" type="curve" smooth="yes"/>
			<point x="157.44" y="-10"/>
			<point x="174.84" y="-1.16"/>
			<point x="186.64" y="31.92" type="curve" smooth="yes"/>
			<point x="260.48" y="259.68"/>
			<point x="353.08" y="395.12"/>
			<point x="395.84" y="398.76" type="curve"/>
			<point x="415.8" y="363.16"/>
			<point x="425.12" y="315.08"/>
			<point x="433.28" y="192.92" type="curve" smooth="yes"/>
			<point x="440.6947396324" y="86.5599602381"/>
			<point x="484.2592941177" y="-10.56"/>
		</contour>
	</outline>
</glyph>
<glyph name="i" format="2">
	<unicode hex="0069"/>
	<advance width="296"/>
	<outline>
		<contour>
			<point x="153.92" y="-10.72" type="curve" smooth="yes"/>
			<point x="177.2" y="-10.72"/>
			<point x="189.12" y="4.76"/>
			<point x="189.12" y="29.6" type="curve" smooth="yes"/>
			<point x="189.12" y="109.4"/>
			<point x="199.24" y="362.52"/>
			<point x="198.24" y="436.6" type="curve" smooth="yes"/>
			<point x="197.24" y="480.8"/>
			<point x="172.2" y="504.4"/>
			<point x="142.04" y="504.4" type="curve" smooth="yes"/>
			<point x="111.52" y="504.4"/>
			<point x="86.96" y="474.4"/>
			<point x="86.96" y="436.4" type="curve" smooth="yes"/>
			<point x="86.96" y="332.36"/>
			<point x="91.64" y="270.96"/>
			<point x="91.64" y="65.6" type="curve" smooth="yes"/>
			<point x="91.64" y="25.88"/>
			<point x="119.16" y="-10.72"/>
		</contour>
		<contour>
			<point x="159.8" y="658.12" type="curve" smooth="yes"/>
			<point x="204.12" y="658.12"/>
			<point x="221.08" y="687.92"/>
			<point x="221.08" y="713.4" type="curve" smooth="yes"/>
			<point x="221.08" y="757.2"/>
			<point x="184.04" y="811.24"/>
			<point x="123.52" y="811.24" type="curve" smooth="yes"/>
			<point x="90.92" y="811.24"/>
			<point x="64.88" y="785.64"/>
			<point x="64.88" y="752.24" type="curve" smooth="yes"/>
			<point x="64.88" y="704.12"/>
			<point x="108.72" y="658.12"/>
		</contour>
	</outline>
</glyph>
<glyph name="j" format="2">
	<unicode hex="006A"/>
	<advance width="270"/>
	<outline>
		<contour>
			<point x="148.6" y="448.72" type="curve" smooth="yes"/>
			<point x="186.04" y="276.28"/>
			<point x="212.52" y="129.72"/>
			<point x="212.52" y="-40" type="curve" smooth="yes"/>
			<point x="212.52" y="-185"/>
			<point x="135.28" y="-260"/>
			<point x="17.92" y="-260" type="curve" smooth="yes"/>
			<point x="-71.44" y="-260"/>
			<point x="-122.4" y="-224.48"/>
			<point x="-122.4" y="-181.72" type="curve" smooth="yes"/>
			<point x="-122.4" y="-156.4"/>
			<point x="-108.16" y="-142.32"/>
			<point x="-87.08" y="-142.32" type="curve" smooth="yes"/>
			<point x="-52.08" y="-142.32"/>
			<point x="-33.36" y="-164.32"/>
			<point x="8.92" y="-164.32" type="curve" smooth="yes"/>
			<point x="77.36" y="-164.32"/>
			<point x="116.68" y="-123.48"/>
			<point x="116.68" y="-44.72" type="curve" smooth="yes"/>
			<point x="116.68" y="264.64"/>
			<point x="47.12" y="345.92"/>
			<point x="47.12" y="439.44" type="curve" smooth="yes"/>
			<point x="47.12" y="485.68"/>
			<point x="70.08" y="503.84"/>
			<point x="94.04" y="503.84" type="curve" smooth="yes"/>
			<point x="118.2" y="503.84"/>
			<point x="138.6" y="492.84"/>
		</contour>
		<contour>
			<point x="137.84" y="655.16" type="curve" smooth="yes"/>
			<point x="182.16" y="655.16"/>
			<point x="199.12" y="688.6"/>
			<point x="199.12" y="716.6" type="curve" smooth="yes"/>
			<point x="199.12" y="756.2"/>
			<point x="166.56" y="805.48"/>
			<point x="112.76" y="805.48" type="curve" smooth="yes"/>
			<point x="76.8" y="805.48"/>
			<point x="48.52" y="777.64"/>
			<point x="48.52" y="740.88" type="curve" smooth="yes"/>
			<point x="48.52" y="697.24"/>
			<point x="89.56" y="655.16"/>
		</contour>
	</outline>
</glyph>
<glyph name="k" format="2">
	<unicode hex="006B"/>
	<advance width="592"/>
	<outline>
		<contour>
			<point x="494.52" y="-7" type="curve" smooth="yes"/>
			<point x="522.08" y="-7"/>
			<point x="536.28" y="8.04"/>
			<point x="536.28" y="31.88" type="curve" smooth="yes"/>
			<point x="536.28" y="57.84"/>
			<point x="521.8" y="82.48"/>
			<point x="464.6" y="99.36" type="curve" smooth="yes"/>
			<point x="333.1499661981" y="138.7208317424"/>
			<point x="273.72" y="205.64"/>
			<point x="273.72" y="234.6" type="curve" smooth="yes"/>
			<point x="273.72" y="274.008358209"/>
			<point x="370.5375407094" y="366.2917087786"/>
			<point x="472.28" y="404.68" type="curve" smooth="yes"/>
			<point x="510.48" y="418.2"/>
			<point x="525.32" y="432.72"/>
			<point x="525.32" y="457.92" type="curve" smooth="yes"/>
			<point x="525.32" y="487.96"/>
			<point x="505.84" y="503.96"/>
			<point x="473.96" y="503.96" type="curve" smooth="yes"/>
			<point x="387.44" y="503.96"/>
			<point x="172" y="342.88"/>
			<point x="172" y="229" type="curve" smooth="yes"/>
			<point x="172" y="123.6"/>
			<point x="384.48" y="-7"/>
		</contour>
		<contour>
			<point x="169.96" y="809.28" type="curve" smooth="yes"/>
			<point x="143.68" y="810"/>
			<point x="129.88" y="795.36"/>
			<point x="127.72" y="769.8" type="curve" smooth="yes"/>
			<point x="122.68" y="727.32"/>
			<point x="129.52" y="713.6"/>
			<point x="114.4" y="591.84" type="curve" smooth="yes"/>
			<point x="93.52" y="404.28"/>
			<point x="69.4" y="212.8167213114"/>
			<point x="69.4" y="122.6" type="curve" smooth="yes"/>
			<point x="69.4" y="16.12"/>
			<point x="102.44" y="-10"/>
			<point x="135.2" y="-10" type="curve" smooth="yes"/>
			<point x="158.56" y="-10"/>
			<point x="171.4" y="3.24"/>
			<point x="171.4" y="32.84" type="curve" smooth="yes"/>
			<point x="171.4" y="70.32"/>
			<point x="166.4" y="102.952"/>
			<point x="166.4" y="151.4" type="curve" smooth="yes"/>
			<point x="166.4" y="284.6732552693"/>
			<point x="182.52" y="354.8"/>
			<point x="213.48" y="594.56" type="curve" smooth="yes"/>
			<point x="232.2" y="761.36"/>
			<point x="214.52" y="809.28"/>
		</contour>
	</outline>
</glyph>
<glyph name="l" format="2">
	<unicode hex="006C"/>
	<advance width="342"/>
	<outline>
		<contour>
			<point x="183.32" y="729.72" type="curve" smooth="yes"/>
			<point x="183.32" y="653.92"/>
			<point x="157" y="566.56"/>
			<point x="157" y="347" type="curve" smooth="yes"/>
			<point x="157" y="138.32"/>
			<point x="182.76" y="86.24"/>
			<point x="215.4" y="86.24" type="curve" smooth="yes"/>
			<point x="259.3303896104" y="86.24"/>
			<point x="269.84" y="112.56"/>
			<point x="294" y="112.56" type="curve" smooth="yes"/>
			<point x="316.48" y="112.56"/>
			<point x="323.88" y="95.52"/>
			<point x="323.88" y="71.8" type="curve" smooth="yes"/>
			<point x="323.88" y="24.76"/>
			<point x="266.96" y="-11"/>
			<point x="205.08" y="-11" type="curve" smooth="yes"/>
			<point x="127.84" y="-11"/>
			<point x="58.48" y="31.04"/>
			<point x="58.48" y="367" type="curve" smooth="yes"/>
			<point x="58.48" y="532.82592"/>
			<point x="69.92" y="634.6"/>
			<point x="87.32" y="742.4" type="curve" smooth="yes"/>
			<point x="96.04" y="792.44"/>
			<point x="109.8763636363" y="810"/>
			<point x="134.68" y="810" type="curve" smooth="yes"/>
			<point x="164.872" y="810"/>
			<point x="183.32" y="787.28"/>
		</contour>
	</outline>
</glyph>
<glyph name="m" format="2">
	<unicode hex="006D"/>
	<advance width="898"/>
	<outline>
		<contour>
			<point x="172.76" y="345.56" type="curve" smooth="yes"/>
			<point x="172.76" y="219"/>
			<point x="128.92" y="236.36"/>
			<point x="154.04" y="331.76" type="curve" smooth="yes"/>
			<point x="184.52" y="449.44"/>
			<point x="232.28" y="502.96"/>
			<point x="294.52" y="502.96" type="curve" smooth="yes"/>
			<point x="364.8" y="502.96"/>
			<point x="398.96" y="410.76"/>
			<point x="419.16" y="268.72" type="curve" smooth="yes"/>
			<point x="430.04" y="186.64"/>
			<point x="441.6" y="150.12"/>
			<point x="456.04" y="125.84" type="curve" smooth="yes"/>
			<point x="484.68" y="76.16"/>
			<point x="409.8" y="66.6"/>
			<point x="424.28" y="130.96" type="curve" smooth="yes"/>
			<point x="471.64" y="352.28"/>
			<point x="560.4485714286" y="502.96"/>
			<point x="648" y="502.96" type="curve" smooth="yes"/>
			<point x="736.56" y="502.96"/>
			<point x="771.84" y="424.16"/>
			<point x="786.84" y="258.48" type="curve" smooth="yes"/>
			<point x="803.28" y="76.08"/>
			<point x="837.08" y="77.52"/>
			<point x="837.08" y="27.52" type="curve" smooth="yes"/>
			<point x="837.08" y="4.84"/>
			<point x="819.4" y="-9"/>
			<point x="794.8" y="-9" type="curve" smooth="yes"/>
			<point x="741.8" y="-9"/>
			<point x="711.84" y="50.92"/>
			<point x="694.84" y="201.52" type="curve" smooth="yes"/>
			<point x="676.84" y="364"/>
			<point x="667.12" y="385.08"/>
			<point x="636.76" y="419.28" type="curve" smooth="yes"/>
			<point x="612.32" y="448.12"/>
			<point x="692.4" y="453"/>
			<point x="657" y="419.56" type="curve" smooth="yes"/>
			<point x="573.16" y="341.12"/>
			<point x="537.12" y="207.48"/>
			<point x="491.76" y="36.32" type="curve" smooth="yes"/>
			<point x="484.2" y="6.68"/>
			<point x="463.12" y="-9"/>
			<point x="439.24" y="-9" type="curve" smooth="yes"/>
			<point x="381.32" y="-9"/>
			<point x="354.52" y="67.36"/>
			<point x="338.2" y="187.64" type="curve" smooth="yes"/>
			<point x="320.6" y="315.88"/>
			<point x="307" y="382.44"/>
			<point x="265.2" y="419.4" type="curve" smooth="yes"/>
			<point x="243.04" y="440.64"/>
			<point x="320.84" y="435.72"/>
			<point x="292.76" y="410.24" type="curve" smooth="yes"/>
			<point x="218.28" y="340.6"/>
			<point x="191.92" y="172.16"/>
			<point x="179.2" y="36.24" type="curve" smooth="yes"/>
			<point x="175.92" y="1.8"/>
			<point x="159.5138461538" y="-9"/>
			<point x="136" y="-9" type="curve" smooth="yes"/>
			<point x="88.9138461538" y="-9"/>
			<point x="75.04" y="58.32"/>
			<point x="75.04" y="126.64" type="curve" smooth="yes"/>
			<point x="75.04" y="194.6514285714"/>
			<point x="84.32" y="268.72"/>
			<point x="84.32" y="335.76" type="curve" smooth="yes"/>
			<point x="84.32" y="371.0653658536"/>
			<point x="75.72" y="400.7541463415"/>
			<point x="75.72" y="430.76" type="curve" smooth="yes"/>
			<point x="75.72" y="446.56"/>
			<point x="88.84" y="460.36"/>
			<point x="109.32" y="460.36" type="curve" smooth="yes"/>
			<point x="155.6887804878" y="460.36"/>
			<point x="172.76" y="410.7552"/>
		</contour>
	</outline>
</glyph>
<glyph name="n" format="2">
	<unicode hex="006E"/>
	<advance width="639"/>
	<outline>
		<contour>
			<point x="533.88" y="-10" type="curve" smooth="yes"/>
			<point x="562.8" y="-10"/>
			<point x="582.04" y="13.88"/>
			<point x="582.04" y="39.8" type="curve" smooth="yes"/>
			<point x="582.04" y="58.32"/>
			<point x="577.2" y="68.12"/>
			<point x="564.96" y="78.08" type="curve" smooth="yes"/>
			<point x="521.08" y="114.96"/>
			<point x="522" y="198.3996946565"/>
			<point x="522" y="349.84" type="curve" smooth="yes"/>
			<point x="522" y="438.72"/>
			<point x="477.56" y="503.84"/>
			<point x="410.2" y="503.84" type="curve" smooth="yes"/>
			<point x="312.92" y="503.84"/>
			<point x="208.08" y="374.04"/>
			<point x="141.08" y="123.12" type="curve"/>
			<point x="163.72" y="110.4" type="line"/>
			<point x="156.524393769" y="278.1213515353"/>
			<point x="191.44" y="339.56"/>
			<point x="191.44" y="424.24" type="curve" smooth="yes"/>
			<point x="191.44" y="477.72"/>
			<point x="157.6228571429" y="499.48"/>
			<point x="133.8" y="499.48" type="curve" smooth="yes"/>
			<point x="110.9428571429" y="499.48"/>
			<point x="98.4" y="484.42"/>
			<point x="98.4" y="463.88" type="curve" smooth="yes"/>
			<point x="98.4" y="339.4542105263"/>
			<point x="69.4" y="287.3476923077"/>
			<point x="69.4" y="151" type="curve" smooth="yes"/>
			<point x="69.4" y="58"/>
			<point x="94.936" y="-9"/>
			<point x="145" y="-9" type="curve" smooth="yes"/>
			<point x="176.08" y="-9"/>
			<point x="193.0713623669" y="10.0882811471"/>
			<point x="205.96" y="62.96" type="curve" smooth="yes"/>
			<point x="254.64" y="252.92"/>
			<point x="353.12" y="408.84"/>
			<point x="401.96" y="408.84" type="curve" smooth="yes"/>
			<point x="423.56" y="408.84"/>
			<point x="435.12" y="397.84"/>
			<point x="454.2" y="373.88" type="curve"/>
			<point x="454.16" y="422.96"/>
			<point x="428.92" y="437.92"/>
			<point x="382.4" y="435.88" type="curve"/>
			<point x="420.44" y="409.36"/>
			<point x="429.36" y="394.28"/>
			<point x="429.36" y="274.52" type="curve" smooth="yes"/>
			<point x="429.36" y="72.68"/>
			<point x="462.04" y="-10"/>
		</contour>
	</outline>
</glyph>
<glyph name="o" format="2">
	<unicode hex="006F"/>
	<advance width="622"/>
	<outline>
		<contour>
			<point x="325.92" y="-12" type="curve" smooth="yes"/>
			<point x="460.44" y="-12"/>
			<point x="562.72" y="101.52"/>
			<point x="562.72" y="251.6" type="curve" smooth="yes"/>
			<point x="562.72" y="404.16"/>
			<point x="474.56" y="500.16"/>
			<point x="329.12" y="500.16" type="curve" smooth="yes"/>
			<point x="242.4960869565" y="500.16"/>
			<point x="157.04" y="420.08"/>
			<point x="157.04" y="357.96" type="curve" smooth="yes"/>
			<point x="157.04" y="326.76"/>
			<point x="169.8" y="315.8"/>
			<point x="189.76" y="315.8" type="curve" smooth="yes"/>
			<point x="217.44" y="315.8"/>
			<point x="220.76" y="335.88"/>
			<point x="251.64" y="366.76" type="curve" smooth="yes"/>
			<point x="276.8104961862" y="391.9304961862"/>
			<point x="298.6254545454" y="406.04"/>
			<point x="338.24" y="406.04" type="curve" smooth="yes"/>
			<point x="416.96" y="406.04"/>
			<point x="466.16" y="348"/>
			<point x="466.16" y="253.68" type="curve" smooth="yes"/>
			<point x="466.16" y="149.92"/>
			<point x="409.52" y="82"/>
			<point x="322.36" y="82" type="curve" smooth="yes"/>
			<point x="220.2" y="82"/>
			<point x="155.24" y="149.92"/>
			<point x="155.24" y="254.68" type="curve" smooth="yes"/>
			<point x="155.24" y="321.1465088758"/>
			<point x="201.5351848724" y="367.6951205689"/>
			<point x="247.76" y="394.08" type="curve" smooth="yes"/>
			<point x="283.36" y="410.76"/>
			<point x="293.88" y="430.72"/>
			<point x="293.88" y="460.24" type="curve" smooth="yes"/>
			<point x="293.88" y="484.6730434783"/>
			<point x="276.04" y="493"/>
			<point x="254.32" y="493" type="curve" smooth="yes"/>
			<point x="185.2" y="493"/>
			<point x="59.12" y="390.68"/>
			<point x="59.12" y="251.6" type="curve" smooth="yes"/>
			<point x="59.12" y="98.24"/>
			<point x="170.4" y="-12"/>
		</contour>
	</outline>
</glyph>
<glyph name="p" format="2">
	<unicode hex="0070"/>
	<advance width="567"/>
	<outline>
		<contour>
			<point x="153.4" y="376.72" type="curve" smooth="yes"/>
			<point x="153.4" y="218.52"/>
			<point x="206.6" y="98.48"/>
			<point x="206.6" y="-46" type="curve" smooth="yes"/>
			<point x="206.6" y="-174.24"/>
			<point x="183.04" y="-261"/>
			<point x="125.32" y="-261" type="curve" smooth="yes"/>
			<point x="98.88" y="-261"/>
			<point x="78.12" y="-246.16"/>
			<point x="78.12" y="-210.04" type="curve" smooth="yes"/>
			<point x="78.12" y="-168.64"/>
			<point x="106.68" y="-148.24"/>
			<point x="106.68" y="-35.44" type="curve" smooth="yes"/>
			<point x="106.68" y="109.8"/>
			<point x="54" y="253.76"/>
			<point x="50.92" y="406" type="curve" smooth="yes"/>
			<point x="50.36" y="439.32"/>
			<point x="64.72" y="456"/>
			<point x="90.08" y="456" type="curve" smooth="yes"/>
			<point x="125.3569230769" y="456"/>
			<point x="153.4" y="419.64"/>
		</contour>
		<contour>
			<point x="201.32" y="503.52" type="curve" smooth="yes"/>
			<point x="378.8" y="503.52"/>
			<point x="517.76" y="385.8"/>
			<point x="517.76" y="193.52" type="curve" smooth="yes"/>
			<point x="517.76" y="73.48"/>
			<point x="432.08" y="-10"/>
			<point x="307.44" y="-10" type="curve" smooth="yes"/>
			<point x="208.2" y="-10"/>
			<point x="133.2" y="40.2"/>
			<point x="133.2" y="93.32" type="curve" smooth="yes"/>
			<point x="133.2" y="110.4"/>
			<point x="142.8" y="125.6"/>
			<point x="161.04" y="125.6" type="curve" smooth="yes"/>
			<point x="190.92" y="125.6"/>
			<point x="201.76" y="84.84"/>
			<point x="295.72" y="84.84" type="curve" smooth="yes"/>
			<point x="368.16" y="84.84"/>
			<point x="417.84" y="117.52"/>
			<point x="417.84" y="205.4" type="curve" smooth="yes"/>
			<point x="417.84" y="328"/>
			<point x="318.88" y="407.72"/>
			<point x="204.4" y="407.72" type="curve" smooth="yes"/>
			<point x="175.56" y="407.72"/>
			<point x="146.68" y="398.4"/>
			<point x="124.72" y="398.4" type="curve" smooth="yes"/>
			<point x="98.44" y="398.4"/>
			<point x="78.24" y="419.68"/>
			<point x="78.24" y="444.2" type="curve" smooth="yes"/>
			<point x="78.24" y="483.08"/>
			<point x="114.84" y="503.52"/>
		</contour>
	</outline>
</glyph>
<glyph name="q" format="2">
	<unicode hex="0071"/>
	<advance width="575"/>
	<outline>
		<contour>
			<point x="427.32" y="335.24" type="curve" smooth="yes"/>
			<point x="450.16" y="335.24"/>
			<point x="469.04" y="354.2675"/>
			<point x="469.04" y="375.72" type="curve" smooth="yes"/>
			<point x="469.04" y="435.045"/>
			<point x="407.48" y="503.4"/>
			<point x="317.4" y="503.4" type="curve" smooth="yes"/>
			<point x="179" y="503.4"/>
			<point x="36.6" y="335.262019544"/>
			<point x="36.6" y="179.2" type="curve" smooth="yes"/>
			<point x="36.6" y="65.4945454545"/>
			<point x="95.2" y="-10"/>
			<point x="213.4" y="-10" type="curve" smooth="yes"/>
			<point x="300.28" y="-10"/>
			<point x="383.08" y="39.64"/>
			<point x="433.4" y="127.56" type="curve" smooth="yes"/>
			<point x="476.88" y="195.56"/>
			<point x="412.1331514682" y="198.5142712496"/>
			<point x="410.32" y="145.88" type="curve" smooth="yes"/>
			<point x="404.6088642336" y="-6.2666121646"/>
			<point x="413.64" y="-35.64"/>
			<point x="415.32" y="-201.12" type="curve" smooth="yes"/>
			<point x="416.16" y="-235.12"/>
			<point x="436.6" y="-260"/>
			<point x="466.12" y="-260" type="curve" smooth="yes"/>
			<point x="501.76" y="-260"/>
			<point x="536.7276841292" y="-229.768276387"/>
			<point x="575.2" y="-196" type="curve" smooth="yes"/>
			<point x="587.2" y="-185"/>
			<point x="595.2" y="-169"/>
			<point x="595.2" y="-151" type="curve" smooth="yes"/>
			<point x="595.2" y="-122.3663157895"/>
			<point x="582.56" y="-98.76"/>
			<point x="567.24" y="-98.76" type="curve" smooth="yes"/>
			<point x="542.04" y="-98.76"/>
			<point x="523.4843162538" y="-125.603247855"/>
			<point x="492.2" y="-143.48" type="curve" smooth="yes"/>
			<point x="468.4551366802" y="-156.8667234591"/>
			<point x="510.44" y="-184.92"/>
			<point x="509.6" y="-148.28" type="curve" smooth="yes"/>
			<point x="507.92" y="1.1350868487"/>
			<point x="502.6214285974" y="64.2946417605"/>
			<point x="500" y="202.84" type="curve"/>
			<point x="510.5399769276" y="232.3445550416"/>
			<point x="522.8" y="271.1114893617"/>
			<point x="522.8" y="312.8" type="curve" smooth="yes"/>
			<point x="522.8" y="343.84"/>
			<point x="503.6117647059" y="368"/>
			<point x="472.4" y="368" type="curve" smooth="yes"/>
			<point x="450.4" y="368"/>
			<point x="438.4" y="356"/>
			<point x="433.84" y="335.56" type="curve" smooth="yes"/>
			<point x="399" y="180.88"/>
			<point x="314.4" y="84.4"/>
			<point x="213.4" y="84.4" type="curve" smooth="yes"/>
			<point x="162.7942857143" y="84.4"/>
			<point x="134.4" y="114.2864516129"/>
			<point x="134.4" y="170.2" type="curve" smooth="yes"/>
			<point x="134.4" y="280.312"/>
			<point x="233.5310204081" y="408"/>
			<point x="317.4" y="408" type="curve" smooth="yes"/>
			<point x="353.36" y="408"/>
			<point x="368.68" y="394.08"/>
			<point x="391.36" y="359.64" type="curve" smooth="yes"/>
			<point x="401.2153556228" y="343.205047113"/>
			<point x="413.04" y="335.24"/>
		</contour>
	</outline>
</glyph>
<glyph name="r" format="2">
	<unicode hex="0072"/>
	<advance width="485"/>
	<outline>
		<contour>
			<point x="161.4" y="-12" type="curve" smooth="yes"/>
			<point x="194.44" y="-12"/>
			<point x="203.28" y="6.24"/>
			<point x="210.36" y="72.96" type="curve" smooth="yes"/>
			<point x="225.48" y="248.08"/>
			<point x="264.04" y="370.84"/>
			<point x="407.44" y="406.88" type="curve" smooth="yes"/>
			<point x="436.16" y="414.36"/>
			<point x="444.88" y="434"/>
			<point x="444.88" y="452.48" type="curve" smooth="yes"/>
			<point x="444.88" y="482.04"/>
			<point x="434.36" y="503.72"/>
			<point x="401.64" y="503.72" type="curve" smooth="yes"/>
			<point x="301.68" y="503.72"/>
			<point x="178.28" y="413.68"/>
			<point x="153.84" y="164.92" type="curve"/>
			<point x="190.28" y="145.32" type="line"/>
			<point x="191.36" y="424.28"/>
			<point x="159.72" y="495.88"/>
			<point x="104.64" y="495.88" type="curve" smooth="yes"/>
			<point x="80.56" y="495.88"/>
			<point x="65.64" y="479.5006896552"/>
			<point x="65.64" y="455.76" type="curve" smooth="yes"/>
			<point x="65.64" y="438.04"/>
			<point x="68.2103234748" y="424.926447937"/>
			<point x="78.16" y="392.92" type="curve" smooth="yes"/>
			<point x="99.08" y="324.48"/>
			<point x="105.48" y="197.12"/>
			<point x="105.48" y="66.04" type="curve" smooth="yes"/>
			<point x="105.48" y="23.4"/>
			<point x="132.44" y="-12"/>
		</contour>
	</outline>
</glyph>
<glyph name="s" format="2">
	<unicode hex="0073"/>
	<advance width="500"/>
	<outline>
		<contour>
			<point x="179.4" y="-10" type="curve" smooth="yes"/>
			<point x="316.8" y="-10"/>
			<point x="447.2" y="38.36"/>
			<point x="447.2" y="147.2" type="curve" smooth="yes"/>
			<point x="447.2" y="295.36"/>
			<point x="171.24" y="267.84"/>
			<point x="153.4" y="342.92" type="curve"/>
			<point x="181.6" y="385.64"/>
			<point x="240.6953846154" y="408.48"/>
			<point x="320.32" y="408.48" type="curve" smooth="yes"/>
			<point x="343.24" y="408.48"/>
			<point x="358.32" y="405.36"/>
			<point x="369.36" y="405.36" type="curve" smooth="yes"/>
			<point x="389.64" y="405.36"/>
			<point x="401.6" y="420.4"/>
			<point x="401.6" y="442.4" type="curve" smooth="yes"/>
			<point x="401.6" y="470.1709090909"/>
			<point x="371.1192565915" y="503.8400172886"/>
			<point x="321.4" y="504.84" type="curve" smooth="yes"/>
			<point x="196.56" y="507.84"/>
			<point x="63.6" y="441.12"/>
			<point x="63.6" y="344" type="curve" smooth="yes"/>
			<point x="63.6" y="198.16"/>
			<point x="325.24" y="226.52"/>
			<point x="354.4" y="146.44" type="curve"/>
			<point x="330.5388452068" y="101.9989623845"/>
			<point x="262.2" y="84.4"/>
			<point x="179.88" y="84.4" type="curve" smooth="yes"/>
			<point x="111.12" y="84.4"/>
			<point x="104.52" y="109.8"/>
			<point x="77.64" y="109.8" type="curve" smooth="yes"/>
			<point x="55.28" y="109.8"/>
			<point x="43.6" y="94"/>
			<point x="43.6" y="75.2" type="curve" smooth="yes"/>
			<point x="43.6" y="35.16"/>
			<point x="91.76" y="-10"/>
		</contour>
	</outline>
</glyph>
<glyph name="t" format="2">
	<unicode hex="0074"/>
	<advance width="460"/>
	<outline>
		<contour>
			<point x="169.28" y="303.36" type="curve" smooth="yes"/>
			<point x="169.28" y="411.2"/>
			<point x="186.48" y="457.64"/>
			<point x="197.28" y="557.28" type="curve" smooth="yes"/>
			<point x="206.64" y="657.92"/>
			<point x="188.36" y="708.8"/>
			<point x="140.64" y="708.8" type="curve" smooth="yes"/>
			<point x="112.92" y="708.8"/>
			<point x="105.8" y="694"/>
			<point x="104.36" y="675.36" type="curve" smooth="yes"/>
			<point x="101.48" y="641.92"/>
			<point x="104.08" y="608.16"/>
			<point x="98.32" y="546.52" type="curve" smooth="yes"/>
			<point x="90.4" y="469.64"/>
			<point x="72.6" y="402.2234024896"/>
			<point x="72.6" y="298.8" type="curve" smooth="yes"/>
			<point x="72.6" y="111.72"/>
			<point x="134.12" y="-13"/>
			<point x="305.48" y="-13" type="curve" smooth="yes"/>
			<point x="378.72" y="-13"/>
			<point x="418.92" y="25.56"/>
			<point x="418.92" y="71.4" type="curve" smooth="yes"/>
			<point x="418.92" y="95.28"/>
			<point x="411.16" y="107.08"/>
			<point x="393.6" y="107.08" type="curve" smooth="yes"/>
			<point x="367.2411267605" y="107.08"/>
			<point x="363.3228169014" y="84.92"/>
			<point x="312.84" y="84.92" type="curve" smooth="yes"/>
			<point x="217.7066666666" y="84.92"/>
			<point x="169.28" y="140.84"/>
		</contour>
		<contour>
			<point x="168.32" y="370.2" type="curve" smooth="yes"/>
			<point x="227.6" y="394.72"/>
			<point x="278.96" y="409.04"/>
			<point x="367.56" y="415.76" type="curve" smooth="yes"/>
			<point x="392.84" y="417.76"/>
			<point x="404.24" y="428.96"/>
			<point x="404.24" y="449.36" type="curve" smooth="yes"/>
			<point x="404.24" y="478.44"/>
			<point x="373.72" y="503.4"/>
			<point x="335.4" y="503.4" type="curve" smooth="yes"/>
			<point x="285.6" y="503.4"/>
			<point x="220.52" y="490.4"/>
			<point x="171" y="471.84" type="curve" smooth="yes"/>
			<point x="116.2" y="451.72"/>
			<point x="108.76" y="430.12"/>
			<point x="108.76" y="401.08" type="curve" smooth="yes"/>
			<point x="108.76" y="372.56"/>
			<point x="130.36" y="353.84"/>
		</contour>
	</outline>
</glyph>
<glyph name="u" format="2">
	<unicode hex="0075"/>
	<advance width="596"/>
	<outline>
		<contour>
			<point x="311.4" y="-10" type="curve" smooth="yes"/>
			<point x="428.0951351351" y="-10"/>
			<point x="520.2" y="111.7817868923"/>
			<point x="520.2" y="362.84" type="curve" smooth="yes"/>
			<point x="520.2" y="462.92"/>
			<point x="495.16" y="496.84"/>
			<point x="454.64" y="496.84" type="curve" smooth="yes"/>
			<point x="426.56" y="496.84"/>
			<point x="418.76" y="480.8"/>
			<point x="418.76" y="454.84" type="curve" smooth="yes"/>
			<point x="418.76" y="420.68"/>
			<point x="424.92" y="402.16"/>
			<point x="424.92" y="350.64" type="curve" smooth="yes"/>
			<point x="424.92" y="178.4873481837"/>
			<point x="378.96" y="85.8"/>
			<point x="299.4" y="85.8" type="curve" smooth="yes"/>
			<point x="231.4" y="85.8"/>
			<point x="153.28" y="200.8411047181"/>
			<point x="153.28" y="298.28" type="curve" smooth="yes"/>
			<point x="153.28" y="384.56"/>
			<point x="176.72" y="401.84"/>
			<point x="176.72" y="439.8" type="curve" smooth="yes"/>
			<point x="176.72" y="470.8446846847"/>
			<point x="154.68" y="494.96"/>
			<point x="125.32" y="494.96" type="curve" smooth="yes"/>
			<point x="107.96" y="494.96"/>
			<point x="93.72" y="483.72"/>
			<point x="88.6" y="468.92" type="curve" smooth="yes"/>
			<point x="66.7277429626" y="412.7993574066"/>
			<point x="56.6" y="359.3151807229"/>
			<point x="56.6" y="298.28" type="curve" smooth="yes"/>
			<point x="56.6" y="168.9965055609"/>
			<point x="156.4973134328" y="-10"/>
		</contour>
	</outline>
</glyph>
<glyph name="v" format="2">
	<unicode hex="0076"/>
	<advance width="544"/>
	<outline>
		<contour>
			<point x="206.2" y="38.2" type="curve" smooth="yes"/>
			<point x="228.24" y="4.36"/>
			<point x="246.4" y="-10"/>
			<point x="272.92" y="-10" type="curve" smooth="yes"/>
			<point x="295.28" y="-10"/>
			<point x="305.96" y="0.12"/>
			<point x="318.08" y="28.92" type="curve" smooth="yes"/>
			<point x="388.56" y="194.04"/>
			<point x="409.56" y="290.68"/>
			<point x="501.64" y="413.64" type="curve" smooth="yes"/>
			<point x="508.64" y="423.2"/>
			<point x="513.64" y="434.88"/>
			<point x="513.64" y="448" type="curve" smooth="yes"/>
			<point x="513.64" y="474.2"/>
			<point x="489.4" y="502.96"/>
			<point x="466.8" y="502.96" type="curve" smooth="yes"/>
			<point x="447" y="502.96"/>
			<point x="438.04" y="496.08"/>
			<point x="423.36" y="478.56" type="curve" smooth="yes"/>
			<point x="341.88" y="375.64"/>
			<point x="311.76" y="250.56"/>
			<point x="247.24" y="102.08" type="curve"/>
			<point x="282.56" y="101.44" type="line"/>
			<point x="240.44" y="176.08"/>
			<point x="210.28" y="286.68"/>
			<point x="178.64" y="373.28" type="curve" smooth="yes"/>
			<point x="154.08" y="438.52"/>
			<point x="126.12" y="500.96"/>
			<point x="64.48" y="500.96" type="curve" smooth="yes"/>
			<point x="41" y="500.96"/>
			<point x="28.76" y="487.6"/>
			<point x="28.76" y="472.56" type="curve" smooth="yes"/>
			<point x="28.76" y="430.44"/>
			<point x="59.4" y="422.96"/>
			<point x="112.44" y="276.48" type="curve" smooth="yes"/>
			<point x="143.08" y="192.68"/>
			<point x="176.32" y="84.96"/>
		</contour>
	</outline>
</glyph>
<glyph name="w" format="2">
	<unicode hex="0077"/>
	<advance width="874"/>
	<outline>
		<contour>
			<point x="142.48" y="442.36" type="curve" smooth="yes"/>
			<point x="195.68" y="336.84"/>
			<point x="198.6" y="173.24"/>
			<point x="250.48" y="83.8" type="curve" smooth="yes"/>
			<point x="268.44" y="54.04"/>
			<point x="198.84" y="52.44"/>
			<point x="218.16" y="81.36" type="curve" smooth="yes"/>
			<point x="258" y="143.76"/>
			<point x="281.6" y="279.44"/>
			<point x="318.28" y="374.48" type="curve" smooth="yes"/>
			<point x="351.68" y="462.4"/>
			<point x="377.76" y="501.52"/>
			<point x="420.4" y="501.52" type="curve" smooth="yes"/>
			<point x="477.12" y="501.52"/>
			<point x="509.48" y="451.56"/>
			<point x="552.4" y="342.12" type="curve" smooth="yes"/>
			<point x="585.72" y="253.96"/>
			<point x="609.4" y="140.68"/>
			<point x="662.2" y="91.36" type="curve" smooth="yes"/>
			<point x="704.36" y="52.68"/>
			<point x="615.36" y="39.6"/>
			<point x="637.88" y="85.12" type="curve" smooth="yes"/>
			<point x="683.44" y="170.36"/>
			<point x="680.8" y="312.28"/>
			<point x="712.08" y="409.6" type="curve" smooth="yes"/>
			<point x="728.8" y="461"/>
			<point x="761.0016494846" y="503.52"/>
			<point x="804.4" y="503.52" type="curve" smooth="yes"/>
			<point x="827.6759322034" y="503.52"/>
			<point x="848.88" y="482.44"/>
			<point x="848.88" y="460.8" type="curve" smooth="yes"/>
			<point x="848.88" y="439.8"/>
			<point x="837.88" y="419.8"/>
			<point x="822.16" y="404.68" type="curve" smooth="yes"/>
			<point x="782.3702861757" y="364.287468857"/>
			<point x="774.6269036108" y="246.8333076687"/>
			<point x="758.4" y="159.88" type="curve" smooth="yes"/>
			<point x="731.76" y="17.56"/>
			<point x="704.4" y="-13"/>
			<point x="660.4" y="-13" type="curve" smooth="yes"/>
			<point x="622.2065306123" y="-13"/>
			<point x="598.48" y="5.96"/>
			<point x="559.08" y="70.48" type="curve" smooth="yes"/>
			<point x="497.68" y="172.44"/>
			<point x="472.72" y="343.4"/>
			<point x="419.72" y="402.4" type="curve" smooth="yes"/>
			<point x="390.24" y="433.16"/>
			<point x="458.48" y="434.56"/>
			<point x="436.36" y="406.44" type="curve" smooth="yes"/>
			<point x="386.48" y="342.88"/>
			<point x="366.52" y="191.64"/>
			<point x="313.8" y="61.92" type="curve" smooth="yes"/>
			<point x="290.24" y="4.48"/>
			<point x="269.96" y="-15"/>
			<point x="231.4" y="-15" type="curve" smooth="yes"/>
			<point x="188.56" y="-15"/>
			<point x="157.28" y="20.52"/>
			<point x="132.24" y="120.8" type="curve" smooth="yes"/>
			<point x="106" y="226"/>
			<point x="89" y="348.92"/>
			<point x="40.8" y="426.6" type="curve" smooth="yes"/>
			<point x="10.32" y="475.68"/>
			<point x="30.4" y="504.52"/>
			<point x="68.48" y="504.52" type="curve" smooth="yes"/>
			<point x="93.76" y="504.52"/>
			<point x="115.6" y="497.56"/>
		</contour>
	</outline>
</glyph>
<glyph name="x" format="2">
	<unicode hex="0078"/>
	<advance width="524"/>
	<outline>
		<contour>
			<point x="464.36" y="408.92" type="curve" smooth="yes"/>
			<point x="315.4809944177" y="320.5769512468"/>
			<point x="197.64" y="164.52"/>
			<point x="141.4" y="-3.96" type="curve" smooth="yes"/>
			<point x="132.28" y="-34.36"/>
			<point x="114.8" y="-53.32"/>
			<point x="96.52" y="-53.32" type="curve" smooth="yes"/>
			<point x="79.04" y="-53.32"/>
			<point x="55.88" y="-45.52"/>
			<point x="55.88" y="6.16" type="curve" smooth="yes"/>
			<point x="55.88" y="98.44"/>
			<point x="179.28" y="314.08"/>
			<point x="348.64" y="445.36" type="curve" smooth="yes"/>
			<point x="410.56" y="495"/>
			<point x="436.76" y="504.84"/>
			<point x="458.08" y="504.84" type="curve" smooth="yes"/>
			<point x="484.72" y="504.84"/>
			<point x="498.36" y="488.28"/>
			<point x="498.36" y="459.72" type="curve" smooth="yes"/>
			<point x="498.36" y="440.92"/>
			<point x="490.36" y="424.92"/>
		</contour>
		<contour>
			<point x="442.24" y="121.52" type="curve" smooth="yes"/>
			<point x="483.24" y="63.52"/>
			<point x="489.24" y="36.52"/>
			<point x="489.24" y="17.52" type="curve" smooth="yes"/>
			<point x="489.24" y="-0.76"/>
			<point x="476.52" y="-11.68"/>
			<point x="453.64" y="-11.68" type="curve" smooth="yes"/>
			<point x="435.96" y="-11.68"/>
			<point x="410.6" y="-2.24"/>
			<point x="385.12" y="34.36" type="curve" smooth="yes"/>
			<point x="301.72" y="150.52"/>
			<point x="169.76" y="312"/>
			<point x="81.24" y="390.44" type="curve" smooth="yes"/>
			<point x="49.08" y="418.72"/>
			<point x="29.92" y="438.56"/>
			<point x="29.92" y="465.88" type="curve" smooth="yes"/>
			<point x="29.92" y="483.04"/>
			<point x="40.84" y="503.4"/>
			<point x="64.56" y="503.4" type="curve" smooth="yes"/>
			<point x="86.64" y="503.4"/>
			<point x="105.88" y="496.32"/>
			<point x="145.88" y="461" type="curve" smooth="yes"/>
			<point x="214" y="400.8"/>
			<point x="380.12" y="207.64"/>
		</contour>
	</outline>
</glyph>
<glyph name="y" format="2">
	<unicode hex="0079"/>
	<advance width="580"/>
	<outline>
		<contour>
			<point x="165.88" y="424.92" type="curve" smooth="yes"/>
			<point x="168.76" y="481.88"/>
			<point x="152.72" y="504.28"/>
			<point x="113.84" y="504.28" type="curve" smooth="yes"/>
			<point x="83.52" y="504.28"/>
			<point x="59.6" y="478.2332934132"/>
			<point x="59.6" y="343" type="curve" smooth="yes"/>
			<point x="59.6" y="133.2220689656"/>
			<point x="129.76" y="42"/>
			<point x="244.4" y="42" type="curve" smooth="yes"/>
			<point x="302.1782608696" y="42"/>
			<point x="384.32" y="76.24"/>
			<point x="434.56" y="252.52" type="curve" smooth="yes"/>
			<point x="444.24" y="286"/>
			<point x="396.5158437818" y="313.3712600246"/>
			<point x="398.68" y="282.76" type="curve" smooth="yes"/>
			<point x="400.84" y="133.16"/>
			<point x="415.2" y="75.24"/>
			<point x="415.2" y="-5" type="curve" smooth="yes"/>
			<point x="415.2" y="-99.4017910448"/>
			<point x="387.12" y="-163.2"/>
			<point x="292.76" y="-163.2" type="curve" smooth="yes"/>
			<point x="182.984" y="-163.2"/>
			<point x="169.696" y="-130.4"/>
			<point x="133.24" y="-130.4" type="curve" smooth="yes"/>
			<point x="108.88" y="-130.4"/>
			<point x="98.48" y="-143.08"/>
			<point x="98.48" y="-168.32" type="curve" smooth="yes"/>
			<point x="98.48" y="-225.16"/>
			<point x="168.2933333333" y="-261"/>
			<point x="295.88" y="-261" type="curve" smooth="yes"/>
			<point x="411.64" y="-261"/>
			<point x="510.2" y="-186.44"/>
			<point x="510.2" y="-5" type="curve" smooth="yes"/>
			<point x="510.2" y="186.72"/>
			<point x="470.2" y="231.28"/>
			<point x="487.2" y="400" type="curve" smooth="yes"/>
			<point x="495.68943171" y="482.1578398631"/>
			<point x="454.3828571428" y="503.28"/>
			<point x="426.8" y="503.28" type="curve" smooth="yes"/>
			<point x="403.0816" y="503.28"/>
			<point x="396.2014591766" y="496.2934973837"/>
			<point x="392.2" y="459.28" type="curve" smooth="yes"/>
			<point x="373.5943707748" y="276.5996779774"/>
			<point x="322.2082840237" y="137.8"/>
			<point x="238.72" y="137.8" type="curve" smooth="yes"/>
			<point x="167.2731034483" y="137.8"/>
			<point x="157.24" y="266.6"/>
		</contour>
	</outline>
</glyph>
<glyph name="z" format="2">
	<unicode hex="007A"/>
	<advance width="611"/>
	<outline>
		<contour>
			<point x="102.08" y="473.76" type="curve" smooth="yes"/>
			<point x="166.84" y="491.08"/>
			<point x="249" y="503.84"/>
			<point x="317.8" y="503.84" type="curve" smooth="yes"/>
			<point x="469.8" y="503.84"/>
			<point x="515.8" y="444.68"/>
			<point x="515.8" y="385.52" type="curve" smooth="yes"/>
			<point x="515.8" y="309.7945454545"/>
			<point x="426.24" y="201.72"/>
			<point x="145.4" y="95.28" type="curve"/>
			<point x="167.16" y="118.08" type="line"/>
			<point x="176.72" y="90.12"/>
			<point x="195.44" y="84"/>
			<point x="231.4" y="84" type="curve" smooth="yes"/>
			<point x="302.8" y="84"/>
			<point x="383.24" y="97.12"/>
			<point x="463.56" y="97.12" type="curve" smooth="yes"/>
			<point x="515.32" y="97.12"/>
			<point x="548" y="71.32"/>
			<point x="548" y="38.4" type="curve" smooth="yes"/>
			<point x="548" y="16.8"/>
			<point x="532.6" y="0"/>
			<point x="504.16" y="0" type="curve" smooth="yes"/>
			<point x="426.32" y="0"/>
			<point x="307.92" y="-10"/>
			<point x="215.8" y="-10" type="curve" smooth="yes"/>
			<point x="98.72" y="-10"/>
			<point x="65.6" y="44.145"/>
			<point x="65.6" y="95.44" type="curve" smooth="yes"/>
			<point x="65.6" y="131.76"/>
			<point x="80.92" y="156.88"/>
			<point x="113.92" y="169.48" type="curve" smooth="yes"/>
			<point x="317.1885613731" y="250.3286520894"/>
			<point x="424.5800575033" y="331.6801150066"/>
			<point x="425.24" y="410.04" type="curve"/>
			<point x="449.24" y="361.92" type="line"/>
			<point x="420.52" y="396.8"/>
			<point x="388.08" y="409"/>
			<point x="322.88" y="409" type="curve" smooth="yes"/>
			<point x="213.08" y="409"/>
			<point x="148.56" y="378.08"/>
			<point x="111.08" y="378.08" type="curve" smooth="yes"/>
			<point x="90.8" y="378.08"/>
			<point x="69.52" y="405.16"/>
			<point x="69.52" y="434.24" type="curve" smooth="yes"/>
			<point x="69.52" y="455.72"/>
			<point x="76.92" y="466.92"/>
		</contour>
	</outline>
</glyph>
<glyph name="section" format="2">
	<unicode hex="00A7"/>
	<advance width="573"/>
	<outline>
		<contour>
			<point x="211.6" y="-259.28" type="curve"/>
			<point x="367.56" y="-259.28"/>
			<point x="512.8" y="-211.48"/>
			<point x="512.8" y="-111.8" type="curve" smooth="yes"/>
			<point x="512.8" y="56.28"/>
			<point x="156.16" y="74"/>
			<point x="156.16" y="179.76" type="curve" smooth="yes"/>
			<point x="156.16" y="223.72"/>
			<point x="194.8340420553" y="254.6018686769"/>
			<point x="288.08" y="278.32" type="curve"/>
			<point x="217.12" y="326.6" type="line"/>
			<point x="117.6132356092" y="302.0006441801"/>
			<point x="61.4" y="249.96"/>
			<point x="61.4" y="175.92" type="curve" smooth="yes"/>
			<point x="61.4" y="-0.48"/>
			<point x="388.0792653585" y="-7.7952054975"/>
			<point x="411" y="-115" type="curve"/>
			<point x="368.16" y="-145.44"/>
			<point x="293.92" y="-163.56"/>
			<point x="199.96" y="-163.56" type="curve"/>
			<point x="124.24" y="-163.56"/>
			<point x="113.44" y="-148.8"/>
			<point x="83.2" y="-148.8" type="curve" smooth="yes"/>
			<point x="57.04" y="-148.8"/>
			<point x="47.76" y="-161.16"/>
			<point x="47.76" y="-182.48" type="curve" smooth="yes"/>
			<point x="47.76" y="-224.4"/>
			<point x="95.72" y="-259.28"/>
		</contour>
		<contour>
			<point x="321.6" y="20.4" type="line"/>
			<point x="442.44" y="29.76"/>
			<point x="519.2" y="81.28"/>
			<point x="519.2" y="158.48" type="curve" smooth="yes"/>
			<point x="519.2" y="315.44"/>
			<point x="167.6" y="336.72"/>
			<point x="167.6" y="427.24" type="curve" smooth="yes"/>
			<point x="167.6" y="501.88"/>
			<point x="281.24" y="580.52"/>
			<point x="471.28" y="614.4" type="curve" smooth="yes"/>
			<point x="504.72" y="619.68"/>
			<point x="518.8" y="636.44"/>
			<point x="518.8" y="659.64" type="curve" smooth="yes"/>
			<point x="518.8" y="688.48"/>
			<point x="502.72" y="710"/>
			<point x="463.84" y="710" type="curve" smooth="yes"/>
			<point x="327.16" y="710"/>
			<point x="67.8" y="596.88"/>
			<point x="67.8" y="426.2" type="curve" smooth="yes"/>
			<point x="67.8" y="255.56"/>
			<point x="401.52" y="248.52"/>
			<point x="424.44" y="148.88" type="curve"/>
			<point x="392.52" y="106.2"/>
			<point x="327.2" y="81.84"/>
			<point x="228.64" y="79.72" type="curve"/>
		</contour>
	</outline>
</glyph>
<glyph name="endash" format="2">
	<unicode hex="2013"/>
	<advance width="700"/>
	<outline>
		<contour>
			<point x="142.64" y="201.92" type="curve" smooth="yes"/>
			<point x="207.097451642" y="201.92"/>
			<point x="310.6300907441" y="211.92"/>
			<point x="597.92" y="211.92" type="curve" smooth="yes"/>
			<point x="629.64" y="211.92"/>
			<point x="648.36" y="225.72"/>
			<point x="648.36" y="247.92" type="curve" smooth="yes"/>
			<point x="648.36" y="268.5493577982"/>
			<point x="620.48" y="302.36"/>
			<point x="542.52" y="302.36" type="curve" smooth="yes"/>
			<point x="389.0956734694" y="302.36"/>
			<point x="243.2689371063" y="298.0732625349"/>
			<point x="84.2" y="285.56" type="curve" smooth="yes"/>
			<point x="57.6009280863" y="282.9339211154"/>
			<point x="51.08" y="266.02"/>
			<point x="51.08" y="251.52" type="curve" smooth="yes"/>
			<point x="51.08" y="227.1277669903"/>
			<point x="83.3592638037" y="201.92"/>
		</contour>
	</outline>
</glyph>
<glyph name="emdash" format="2">
	<unicode hex="2014"/>
	<advance width="1000"/>
	<outline>
		<contour>
			<point x="142.64" y="201.92" type="curve" smooth="yes"/>
			<point x="249.2332120908" y="201.92"/>
			<point x="421.1136552532" y="211.92"/>
			<point x="898.48" y="211.92" type="curve" smooth="yes"/>
			<point x="930.2" y="211.92"/>
			<point x="948.92" y="225.72"/>
			<point x="948.92" y="247.92" type="curve" smooth="yes"/>
			<point x="948.92" y="268.48"/>
			<point x="921.04" y="302.36"/>
			<point x="843.08" y="302.36" type="curve" smooth="yes"/>
			<point x="588.622772697" y="302.36"/>
			<point x="347.76" y="298.24"/>
			<point x="84.2" y="285.56" type="curve" smooth="yes"/>
			<point x="57.52" y="284.28"/>
			<point x="51.08" y="266.16"/>
			<point x="51.08" y="251.52" type="curve" smooth="yes"/>
			<point x="51.08" y="227"/>
			<point x="83.44" y="201.92"/>
		</contour>
	</outline>
</glyph>
<glyph name="quoteleft" format="2">
	<unicode hex="2018"/>
	<advance width="220"/>
	<outline>
		<contour>
			<point x="200.68" y="810.12" type="curve" smooth="yes"/>
			<point x="177.08" y="810.12"/>
			<point x="160.44" y="802.44"/>
			<point x="132.28" y="765.16" type="curve" smooth="yes"/>
			<point x="80.48" y="696.8"/>
			<point x="47.96" y="606.6"/>
			<point x="47.96" y="536.8" type="curve" smooth="yes"/>
			<point x="47.96" y="487.88"/>
			<point x="70" y="443.8"/>
			<point x="102.28" y="443.8" type="curve" smooth="yes"/>
			<point x="126.88" y="443.8"/>
			<point x="139.68" y="462"/>
			<point x="151.12" y="515.32" type="curve" smooth="yes"/>
			<point x="162.84" y="571.04"/>
			<point x="183" y="632.56"/>
			<point x="235.08" y="695.36" type="curve" smooth="yes"/>
			<point x="254.12" y="718.4"/>
			<point x="257.68" y="728.64"/>
			<point x="257.68" y="740.44" type="curve" smooth="yes"/>
			<point x="258.4" y="771.44"/>
			<point x="237.08" y="810.12"/>
		</contour>
	</outline>
</glyph>
<glyph name="quoteright" format="2">
	<unicode hex="2019"/>
	<advance width="229"/>
	<outline>
		<contour>
			<point x="186.64" y="812.28" type="curve" smooth="yes"/>
			<point x="163.44" y="812.28"/>
			<point x="150.2" y="802.6"/>
			<point x="128.44" y="760.84" type="curve" smooth="yes"/>
			<point x="87.08" y="682.48"/>
			<point x="53.32" y="572.92"/>
			<point x="53.32" y="497.72" type="curve" smooth="yes"/>
			<point x="53.32" y="449.4"/>
			<point x="73.12" y="415"/>
			<point x="103.44" y="415" type="curve" smooth="yes"/>
			<point x="128.04" y="415"/>
			<point x="140.4" y="431.76"/>
			<point x="153.2" y="477.08" type="curve" smooth="yes"/>
			<point x="168.44" y="532.88"/>
			<point x="178.6" y="591.88"/>
			<point x="226.2" y="676.84" type="curve" smooth="yes"/>
			<point x="250.16" y="719.08"/>
			<point x="253.72" y="732.88"/>
			<point x="253.72" y="748.68" type="curve" smooth="yes"/>
			<point x="253.72" y="777.84"/>
			<point x="217.76" y="812.28"/>
		</contour>
	</outline>
</glyph>
<glyph name="quotedblleft" format="2">
	<unicode hex="201C"/>
	<advance width="439"/>
	<outline>
		<contour>
			<point x="195.44" y="810.12" type="curve" smooth="yes"/>
			<point x="172.12" y="810.12"/>
			<point x="156.04" y="802.44"/>
			<point x="127.88" y="765.16" type="curve" smooth="yes"/>
			<point x="76.08" y="696.8"/>
			<point x="43.56" y="606.6"/>
			<point x="43.56" y="536.8" type="curve" smooth="yes"/>
			<point x="43.56" y="487.88"/>
			<point x="65.6" y="443.8"/>
			<point x="97.88" y="443.8" type="curve" smooth="yes"/>
			<point x="122.48" y="443.8"/>
			<point x="135.28" y="462"/>
			<point x="146.72" y="515.32" type="curve" smooth="yes"/>
			<point x="158.44" y="571.04"/>
			<point x="178.6" y="632.56"/>
			<point x="230.68" y="695.36" type="curve" smooth="yes"/>
			<point x="250.28" y="719.24"/>
			<point x="253.84" y="730.32"/>
			<point x="253.84" y="742.96" type="curve" smooth="yes"/>
			<point x="254.56" y="772.84"/>
			<point x="232.68" y="810.12"/>
		</contour>
		<contour>
			<point x="362.84" y="718.72" type="curve" smooth="yes"/>
			<point x="339.24" y="718.72"/>
			<point x="322.6" y="711.04"/>
			<point x="295.88" y="673.76" type="curve" smooth="yes"/>
			<point x="258.68" y="622.12"/>
			<point x="238.76" y="546.3740585774"/>
			<point x="238.76" y="490.36" type="curve" smooth="yes"/>
			<point x="238.76" y="441.44"/>
			<point x="260.8" y="397.36"/>
			<point x="293.08" y="397.36" type="curve" smooth="yes"/>
			<point x="317.68" y="397.36"/>
			<point x="330.48" y="415.56"/>
			<point x="341.92" y="468.88" type="curve" smooth="yes"/>
			<point x="350.79727386" y="510.4939446802"/>
			<point x="362.2" y="555.44"/>
			<point x="399.4" y="602.52" type="curve" smooth="yes"/>
			<point x="420.12" y="630.4"/>
			<point x="424.08" y="642.8685714286"/>
			<point x="424.08" y="657.12" type="curve" smooth="yes"/>
			<point x="424.7335086545" y="684.5642077074"/>
			<point x="401.8576744186" y="718.72"/>
		</contour>
	</outline>
</glyph>
<glyph name="quotedblright" format="2">
	<unicode hex="201D"/>
	<advance width="456"/>
	<outline>
		<contour>
			<point x="183.84" y="812.28" type="curve" smooth="yes"/>
			<point x="160.64" y="812.28"/>
			<point x="147.4" y="802.6"/>
			<point x="125.64" y="760.84" type="curve" smooth="yes"/>
			<point x="84.28" y="682.48"/>
			<point x="50.52" y="572.92"/>
			<point x="50.52" y="497.72" type="curve" smooth="yes"/>
			<point x="50.52" y="449.4"/>
			<point x="70.32" y="415"/>
			<point x="100.64" y="415" type="curve" smooth="yes"/>
			<point x="125.24" y="415"/>
			<point x="137.6" y="431.76"/>
			<point x="150.4" y="477.08" type="curve" smooth="yes"/>
			<point x="165.64" y="532.88"/>
			<point x="175.8" y="591.88"/>
			<point x="223.4" y="676.84" type="curve" smooth="yes"/>
			<point x="247.36" y="719.08"/>
			<point x="250.92" y="732.88"/>
			<point x="250.92" y="748.68" type="curve" smooth="yes"/>
			<point x="250.92" y="777.84"/>
			<point x="214.96" y="812.28"/>
		</contour>
		<contour>
			<point x="380.64" y="741.08" type="curve" smooth="yes"/>
			<point x="357.44" y="741.08"/>
			<point x="344.2" y="731.4"/>
			<point x="322.44" y="689.64" type="curve" smooth="yes"/>
			<point x="290.9809332853" y="629.7199228754"/>
			<point x="267.32" y="547.6765217391"/>
			<point x="267.32" y="490.92" type="curve" smooth="yes"/>
			<point x="267.32" y="444"/>
			<point x="288.8" y="411"/>
			<point x="322.2" y="411" type="curve" smooth="yes"/>
			<point x="344.56" y="411"/>
			<point x="356.08" y="426.36"/>
			<point x="367.2" y="470.28" type="curve" smooth="yes"/>
			<point x="376.677556563" y="508.7671841368"/>
			<point x="383.004272598" y="548.4411523897"/>
			<point x="419.08" y="607.04" type="curve" smooth="yes"/>
			<point x="444.16" y="647.88"/>
			<point x="447.72" y="661.68"/>
			<point x="447.72" y="677.48" type="curve" smooth="yes"/>
			<point x="447.72" y="706.64"/>
			<point x="411.76" y="741.08"/>
		</contour>
	</outline>
</glyph>
<glyph name="dagger" format="2">
	<unicode hex="2020"/>
	<advance width="561"/>
	<outline>
		<contour>
			<point x="340.8" y="632.56" type="curve" smooth="yes"/>
			<point x="340.8" y="524.52"/>
			<point x="325.16" y="397.16"/>
			<point x="325.16" y="209.8" type="curve" smooth="yes"/>
			<point x="325.16" y="-40.88"/>
			<point x="343.24" y="-83.12"/>
			<point x="343.24" y="-204.64" type="curve" smooth="yes"/>
			<point x="343.24" y="-246.08"/>
			<point x="322.16" y="-261.12"/>
			<point x="299.92" y="-261.12" type="curve" smooth="yes"/>
			<point x="276.8" y="-261.12"/>
			<point x="259.76" y="-242.92"/>
			<point x="254.24" y="-209.44" type="curve" smooth="yes"/>
			<point x="228.96" y="-39.6"/>
			<point x="229.44" y="70"/>
			<point x="229.44" y="213.44" type="curve" smooth="yes"/>
			<point x="229.44" y="410.64"/>
			<point x="246.48" y="546.2"/>
			<point x="245.08" y="666.04" type="curve" smooth="yes"/>
			<point x="244.52" y="692.32"/>
			<point x="255.92" y="713.68"/>
			<point x="282.6" y="713.68" type="curve" smooth="yes"/>
			<point x="315.2" y="713.68"/>
			<point x="340.8" y="687.36"/>
		</contour>
		<contour>
			<point x="87.68" y="367.12" type="curve" smooth="yes"/>
			<point x="52.8" y="361.36"/>
			<point x="33.72" y="383.6730232558"/>
			<point x="33.72" y="410.36" type="curve" smooth="yes"/>
			<point x="34.44" y="438.9687356322"/>
			<point x="43.8287532228" y="458.5974293081"/>
			<point x="100.88" y="468.84" type="curve" smooth="yes"/>
			<point x="216.56" y="490.8"/>
			<point x="355.96" y="503.4"/>
			<point x="466.76" y="503.4" type="curve" smooth="yes"/>
			<point x="507.6" y="503.4"/>
			<point x="535.6" y="481.8"/>
			<point x="535.6" y="452.16" type="curve" smooth="yes"/>
			<point x="535.6" y="428.96"/>
			<point x="524.2" y="417.2"/>
			<point x="491.08" y="415.76" type="curve" smooth="yes"/>
			<point x="282.48" y="405.68"/>
			<point x="188.32" y="385.12"/>
		</contour>
	</outline>
</glyph>
<glyph name="daggerdbl" format="2">
	<unicode hex="2021"/>
	<advance width="561"/>
	<outline>
		<contour>
			<point x="343.6" y="632.56" type="curve" smooth="yes"/>
			<point x="343.6" y="524.52"/>
			<point x="327.96" y="397.16"/>
			<point x="327.96" y="209.8" type="curve" smooth="yes"/>
			<point x="327.96" y="-40.88"/>
			<point x="346.04" y="-83.12"/>
			<point x="346.04" y="-204.64" type="curve" smooth="yes"/>
			<point x="346.04" y="-246.08"/>
			<point x="324.96" y="-261.12"/>
			<point x="302.72" y="-261.12" type="curve" smooth="yes"/>
			<point x="279.6" y="-261.12"/>
			<point x="262.56" y="-242.92"/>
			<point x="257.04" y="-209.44" type="curve" smooth="yes"/>
			<point x="231.76" y="-39.6"/>
			<point x="232.24" y="70"/>
			<point x="232.24" y="213.44" type="curve" smooth="yes"/>
			<point x="232.24" y="410.64"/>
			<point x="249.28" y="546.2"/>
			<point x="247.88" y="666.04" type="curve" smooth="yes"/>
			<point x="247.32" y="692.32"/>
			<point x="258.72" y="713.68"/>
			<point x="285.4" y="713.68" type="curve" smooth="yes"/>
			<point x="318" y="713.68"/>
			<point x="343.6" y="687.36"/>
		</contour>
		<contour>
			<point x="87.68" y="369.36" type="curve" smooth="yes"/>
			<point x="52.8" y="363.6"/>
			<point x="33.72" y="386.04"/>
			<point x="33.72" y="412.88" type="curve" smooth="yes"/>
			<point x="34.44" y="441.36"/>
			<point x="43.84" y="460.56"/>
			<point x="101.72" y="469.96" type="curve" smooth="yes"/>
			<point x="218.24" y="490.52"/>
			<point x="355.96" y="503.4"/>
			<point x="466.76" y="503.4" type="curve" smooth="yes"/>
			<point x="507.6" y="503.4"/>
			<point x="535.6" y="481.8"/>
			<point x="535.6" y="452.16" type="curve" smooth="yes"/>
			<point x="535.6" y="428.96"/>
			<point x="524.2" y="417.2"/>
			<point x="491.08" y="415.76" type="curve" smooth="yes"/>
			<point x="280.24" y="405.68"/>
			<point x="187.76" y="387.36"/>
		</contour>
		<contour>
			<point x="87.68" y="-11.12" type="curve" smooth="yes"/>
			<point x="52.8" y="-16.88"/>
			<point x="33.72" y="5.56"/>
			<point x="33.72" y="32.4" type="curve" smooth="yes"/>
			<point x="34.44" y="60.88"/>
			<point x="44.68" y="80.08"/>
			<point x="103.4" y="88.92" type="curve" smooth="yes"/>
			<point x="221.32" y="108.36"/>
			<point x="355.96" y="119.56"/>
			<point x="466.76" y="119.56" type="curve" smooth="yes"/>
			<point x="507.6" y="119.56"/>
			<point x="535.6" y="97.96"/>
			<point x="535.6" y="68.32" type="curve" smooth="yes"/>
			<point x="535.6" y="45.12"/>
			<point x="524.2" y="33.36"/>
			<point x="491.08" y="31.92" type="curve" smooth="yes"/>
			<point x="281.92" y="21.84"/>
			<point x="186.64" y="6.88"/>
		</contour>
	</outline>
</glyph>
<glyph name="ellipsis" format="2">
	<unicode hex="2026"/>
	<advance width="863"/>
	<outline>
		<contour>
			<point x="177.96" y="-11.68" type="curve" smooth="yes"/>
			<point x="220.36" y="-11.68"/>
			<point x="238.96" y="16.56"/>
			<point x="238.96" y="45.48" type="curve" smooth="yes"/>
			<point x="238.96" y="90.56"/>
			<point x="206.6" y="140.84"/>
			<point x="142.92" y="140.84" type="curve" smooth="yes"/>
			<point x="109.64" y="140.84"/>
			<point x="82.04" y="116.92"/>
			<point x="82.04" y="79.4" type="curve" smooth="yes"/>
			<point x="82.04" y="27.76"/>
			<point x="121.4" y="-11.68"/>
		</contour>
		<contour>
			<point x="449.16" y="-11.68" type="curve" smooth="yes"/>
			<point x="491.56" y="-11.68"/>
			<point x="510.16" y="16.56"/>
			<point x="510.16" y="45.48" type="curve" smooth="yes"/>
			<point x="510.16" y="90.56"/>
			<point x="477.8" y="140.84"/>
			<point x="414.12" y="140.84" type="curve" smooth="yes"/>
			<point x="380.84" y="140.84"/>
			<point x="353.24" y="116.92"/>
			<point x="353.24" y="79.4" type="curve" smooth="yes"/>
			<point x="353.24" y="27.76"/>
			<point x="392.6" y="-11.68"/>
		</contour>
		<contour>
			<point x="720.36" y="-11.68" type="curve" smooth="yes"/>
			<point x="762.76" y="-11.68"/>
			<point x="781.36" y="16.56"/>
			<point x="781.36" y="45.48" type="curve" smooth="yes"/>
			<point x="781.36" y="90.56"/>
			<point x="749" y="140.84"/>
			<point x="685.32" y="140.84" type="curve" smooth="yes"/>
			<point x="652.04" y="140.84"/>
			<point x="624.44" y="116.92"/>
			<point x="624.44" y="79.4" type="curve" smooth="yes"/>
			<point x="624.44" y="27.76"/>
			<point x="663.8" y="-11.68"/>
		</contour>
	</outline>
</glyph>
<glyph name="minute" format="2">
	<unicode hex="2032"/>
	<advance width="265"/>
	<outline>
		<contour>
			<point x="104.2" y="403.72" type="curve" smooth="yes"/>
			<point x="127.64" y="403.72"/>
			<point x="143.4" y="416.8"/>
			<point x="158.2" y="443.88" type="curve" smooth="yes"/>
			<point x="187.84" y="501.84"/>
			<point x="208.48" y="587.72"/>
			<point x="208.48" y="647.56" type="curve" smooth="yes"/>
			<point x="208.48" y="696.72"/>
			<point x="181.48" y="716.44"/>
			<point x="147.32" y="716.44" type="curve" smooth="yes"/>
			<point x="116.24" y="716.44"/>
			<point x="102.04" y="696.16"/>
			<point x="102.04" y="657.36" type="curve" smooth="yes"/>
			<point x="102.04" y="500.56"/>
			<point x="69.84" y="480.64"/>
			<point x="69.84" y="437.8" type="curve" smooth="yes"/>
			<point x="69.84" y="415.76"/>
			<point x="82.52" y="403.72"/>
		</contour>
	</outline>
</glyph>
<glyph name="second" format="2">
	<unicode hex="2033"/>
	<advance width="457"/>
	<outline>
		<contour>
			<point x="157.96" y="403.72" type="curve" smooth="yes"/>
			<point x="181.4" y="403.72"/>
			<point x="197.16" y="416.8"/>
			<point x="211.96" y="443.88" type="curve" smooth="yes"/>
			<point x="241.6" y="501.84"/>
			<point x="262.24" y="587.72"/>
			<point x="262.24" y="647.56" type="curve" smooth="yes"/>
			<point x="262.24" y="696.72"/>
			<point x="235.24" y="716.44"/>
			<point x="201.08" y="716.44" type="curve" smooth="yes"/>
			<point x="170" y="716.44"/>
			<point x="155.8" y="696.16"/>
			<point x="155.8" y="657.36" type="curve" smooth="yes"/>
			<point x="155.8" y="496.36"/>
			<point x="123.6" y="480.08"/>
			<point x="123.6" y="437.8" type="curve" smooth="yes"/>
			<point x="123.6" y="415.76"/>
			<point x="136.28" y="403.72"/>
		</contour>
		<contour>
			<point x="233.8" y="403.72" type="curve" smooth="yes"/>
			<point x="257.24" y="403.72"/>
			<point x="273" y="416.8"/>
			<point x="287.8" y="443.88" type="curve" smooth="yes"/>
			<point x="317.44" y="501.84"/>
			<point x="338.08" y="587.72"/>
			<point x="338.08" y="647.56" type="curve" smooth="yes"/>
			<point x="338.08" y="696.72"/>
			<point x="311.08" y="716.44"/>
			<point x="276.92" y="716.44" type="curve" smooth="yes"/>
			<point x="245.84" y="716.44"/>
			<point x="231.64" y="696.16"/>
			<point x="231.64" y="657.36" type="curve" smooth="yes"/>
			<point x="231.64" y="500.56"/>
			<point x="199.44" y="480.64"/>
			<point x="199.44" y="437.8" type="curve" smooth="yes"/>
			<point x="199.44" y="415.76"/>
			<point x="212.12" y="403.72"/>
		</contour>
	</outline>
</glyph>
